<?xml version="1.0" standalone="no"?>
 <!DOCTYPE svg PUBLIC "-//W3C//DTD SVG 1.1//EN" 
 "http://www.w3.org/Graphics/SVG/1.1/DTD/svg11.dtd"> 
<svg
  xmlns:svg="http://www.w3.org/2000/svg"
  xmlns="http://www.w3.org/2000/svg"
  xmlns:xlink="http://www.w3.org/1999/xlink"
  version="1.1"
  width="29.700220cm" height="21.000720cm" viewBox="0 0 116930 82680">
<title>SVG Picture created as ina219-INA4.svg date 2021/03/24 14:45:31 </title>
  <desc>Picture generated by Eeschema-SVG </desc>
<g style="fill:#000000; fill-opacity:1;stroke:#000000; stroke-opacity:1;
stroke-linecap:round; stroke-linejoin:round;"
 transform="translate(0 0) scale(1 1)">
</g>
<g style="fill:#000000; fill-opacity:0.0; 
stroke:#000000; stroke-width:-10; stroke-opacity:1; 
stroke-linecap:round; stroke-linejoin:round;">
</g>
<g style="fill:#840000; fill-opacity:0.0; 
stroke:#840000; stroke-width:-10; stroke-opacity:1; 
stroke-linecap:round; stroke-linejoin:round;">
</g>
<g style="fill:#840000; fill-opacity:0.0; 
stroke:#840000; stroke-width:100; stroke-opacity:1; 
stroke-linecap:round; stroke-linejoin:round;">
</g>
<g style="fill:#840000; fill-opacity:0.0; 
stroke:#840000; stroke-width:60; stroke-opacity:1; 
stroke-linecap:round; stroke-linejoin:round;">
<rect x="69690" y="65360" width="42520" height="12600" rx="0" />
</g>
<g style="fill:#840000; fill-opacity:0.0; 
stroke:#840000; stroke-width:100; stroke-opacity:1; 
stroke-linecap:round; stroke-linejoin:round;">
</g>
<g style="fill:#840000; fill-opacity:0.0; 
stroke:#840000; stroke-width:60; stroke-opacity:1; 
stroke-linecap:round; stroke-linejoin:round;">
<rect x="3940" y="3940" width="109050" height="74800" rx="0" />
</g>
<g style="fill:#840000; fill-opacity:0.0; 
stroke:#840000; stroke-width:100; stroke-opacity:1; 
stroke-linecap:round; stroke-linejoin:round;">
</g>
<g style="fill:#840000; fill-opacity:0.0; 
stroke:#840000; stroke-width:60; stroke-opacity:1; 
stroke-linecap:round; stroke-linejoin:round;">
<rect x="4720" y="4720" width="107490" height="73240" rx="0" />
</g>
<g style="fill:#840000; fill-opacity:0.0; 
stroke:#840000; stroke-width:100; stroke-opacity:1; 
stroke-linecap:round; stroke-linejoin:round;">
</g>
<g style="fill:#840000; fill-opacity:0.0; 
stroke:#840000; stroke-width:60; stroke-opacity:1; 
stroke-linecap:round; stroke-linejoin:round;">
<path d="M23620 4720
L23620 3940
" />
</g>
<g style="fill:#840000; fill-opacity:0.0; 
stroke:#840000; stroke-width:100; stroke-opacity:1; 
stroke-linecap:round; stroke-linejoin:round;">
</g>
<g style="fill:#840000; fill-opacity:0.0; 
stroke:#840000; stroke-width:60; stroke-opacity:1; 
stroke-linecap:round; stroke-linejoin:round;">
<path d="M43310 4720
L43310 3940
" />
</g>
<g style="fill:#840000; fill-opacity:0.0; 
stroke:#840000; stroke-width:100; stroke-opacity:1; 
stroke-linecap:round; stroke-linejoin:round;">
</g>
<g style="fill:#840000; fill-opacity:0.0; 
stroke:#840000; stroke-width:60; stroke-opacity:1; 
stroke-linecap:round; stroke-linejoin:round;">
<path d="M62990 4720
L62990 3940
" />
</g>
<g style="fill:#840000; fill-opacity:0.0; 
stroke:#840000; stroke-width:100; stroke-opacity:1; 
stroke-linecap:round; stroke-linejoin:round;">
</g>
<g style="fill:#840000; fill-opacity:0.0; 
stroke:#840000; stroke-width:60; stroke-opacity:1; 
stroke-linecap:round; stroke-linejoin:round;">
<path d="M82680 4720
L82680 3940
" />
</g>
<g style="fill:#840000; fill-opacity:0.0; 
stroke:#840000; stroke-width:100; stroke-opacity:1; 
stroke-linecap:round; stroke-linejoin:round;">
</g>
<g style="fill:#840000; fill-opacity:0.0; 
stroke:#840000; stroke-width:60; stroke-opacity:1; 
stroke-linecap:round; stroke-linejoin:round;">
<path d="M102360 4720
L102360 3940
" />
</g>
<g style="fill:#840000; fill-opacity:0.0; 
stroke:#840000; stroke-width:100; stroke-opacity:1; 
stroke-linecap:round; stroke-linejoin:round;">
</g>
<g style="fill:#840000; fill-opacity:0.0; 
stroke:#840000; stroke-width:60; stroke-opacity:1; 
stroke-linecap:round; stroke-linejoin:round;">
<text x="13780" y="4580"
textLength="550" font-size="680" lengthAdjust="spacingAndGlyphs"
text-anchor="start" opacity="0">1</text>
<path d="M14190 4560
L13900 4560
" />
<path d="M14050 4560
L14050 4050
L14000 4120
L13950 4170
L13900 4190
" />
</g>
<g style="fill:#840000; fill-opacity:0.0; 
stroke:#840000; stroke-width:100; stroke-opacity:1; 
stroke-linecap:round; stroke-linejoin:round;">
</g>
<g style="fill:#840000; fill-opacity:0.0; 
stroke:#840000; stroke-width:60; stroke-opacity:1; 
stroke-linecap:round; stroke-linejoin:round;">
<text x="33460" y="4580"
textLength="550" font-size="680" lengthAdjust="spacingAndGlyphs"
text-anchor="start" opacity="0">2</text>
<path d="M33580 4090
L33610 4070
L33660 4050
L33780 4050
L33830 4070
L33850 4090
L33870 4140
L33870 4190
L33850 4260
L33560 4560
L33870 4560
" />
</g>
<g style="fill:#840000; fill-opacity:0.0; 
stroke:#840000; stroke-width:100; stroke-opacity:1; 
stroke-linecap:round; stroke-linejoin:round;">
</g>
<g style="fill:#840000; fill-opacity:0.0; 
stroke:#840000; stroke-width:60; stroke-opacity:1; 
stroke-linecap:round; stroke-linejoin:round;">
<text x="53150" y="4580"
textLength="550" font-size="680" lengthAdjust="spacingAndGlyphs"
text-anchor="start" opacity="0">3</text>
<path d="M53250 4050
L53560 4050
L53390 4240
L53470 4240
L53520 4260
L53540 4290
L53560 4340
L53560 4460
L53540 4510
L53520 4530
L53470 4560
L53320 4560
L53270 4530
L53250 4510
" />
</g>
<g style="fill:#840000; fill-opacity:0.0; 
stroke:#840000; stroke-width:100; stroke-opacity:1; 
stroke-linecap:round; stroke-linejoin:round;">
</g>
<g style="fill:#840000; fill-opacity:0.0; 
stroke:#840000; stroke-width:60; stroke-opacity:1; 
stroke-linecap:round; stroke-linejoin:round;">
<text x="72830" y="4580"
textLength="550" font-size="680" lengthAdjust="spacingAndGlyphs"
text-anchor="start" opacity="0">4</text>
<path d="M73200 4220
L73200 4560
" />
<path d="M73070 4020
L72950 4390
L73270 4390
" />
</g>
<g style="fill:#840000; fill-opacity:0.0; 
stroke:#840000; stroke-width:100; stroke-opacity:1; 
stroke-linecap:round; stroke-linejoin:round;">
</g>
<g style="fill:#840000; fill-opacity:0.0; 
stroke:#840000; stroke-width:60; stroke-opacity:1; 
stroke-linecap:round; stroke-linejoin:round;">
<text x="92520" y="4580"
textLength="550" font-size="680" lengthAdjust="spacingAndGlyphs"
text-anchor="start" opacity="0">5</text>
<path d="M92910 4050
L92670 4050
L92640 4290
L92670 4260
L92720 4240
L92840 4240
L92890 4260
L92910 4290
L92930 4340
L92930 4460
L92910 4510
L92890 4530
L92840 4560
L92720 4560
L92670 4530
L92640 4510
" />
</g>
<g style="fill:#840000; fill-opacity:0.0; 
stroke:#840000; stroke-width:100; stroke-opacity:1; 
stroke-linecap:round; stroke-linejoin:round;">
</g>
<g style="fill:#840000; fill-opacity:0.0; 
stroke:#840000; stroke-width:60; stroke-opacity:1; 
stroke-linecap:round; stroke-linejoin:round;">
<text x="112200" y="4580"
textLength="550" font-size="680" lengthAdjust="spacingAndGlyphs"
text-anchor="start" opacity="0">6</text>
<path d="M112570 4050
L112470 4050
L112420 4070
L112400 4090
L112350 4170
L112320 4260
L112320 4460
L112350 4510
L112370 4530
L112420 4560
L112520 4560
L112570 4530
L112590 4510
L112610 4460
L112610 4340
L112590 4290
L112570 4260
L112520 4240
L112420 4240
L112370 4260
L112350 4290
L112320 4340
" />
</g>
<g style="fill:#840000; fill-opacity:0.0; 
stroke:#840000; stroke-width:100; stroke-opacity:1; 
stroke-linecap:round; stroke-linejoin:round;">
</g>
<g style="fill:#840000; fill-opacity:0.0; 
stroke:#840000; stroke-width:60; stroke-opacity:1; 
stroke-linecap:round; stroke-linejoin:round;">
<path d="M23620 77960
L23620 78740
" />
</g>
<g style="fill:#840000; fill-opacity:0.0; 
stroke:#840000; stroke-width:100; stroke-opacity:1; 
stroke-linecap:round; stroke-linejoin:round;">
</g>
<g style="fill:#840000; fill-opacity:0.0; 
stroke:#840000; stroke-width:60; stroke-opacity:1; 
stroke-linecap:round; stroke-linejoin:round;">
<path d="M43310 77960
L43310 78740
" />
</g>
<g style="fill:#840000; fill-opacity:0.0; 
stroke:#840000; stroke-width:100; stroke-opacity:1; 
stroke-linecap:round; stroke-linejoin:round;">
</g>
<g style="fill:#840000; fill-opacity:0.0; 
stroke:#840000; stroke-width:60; stroke-opacity:1; 
stroke-linecap:round; stroke-linejoin:round;">
<path d="M62990 77960
L62990 78740
" />
</g>
<g style="fill:#840000; fill-opacity:0.0; 
stroke:#840000; stroke-width:100; stroke-opacity:1; 
stroke-linecap:round; stroke-linejoin:round;">
</g>
<g style="fill:#840000; fill-opacity:0.0; 
stroke:#840000; stroke-width:60; stroke-opacity:1; 
stroke-linecap:round; stroke-linejoin:round;">
<path d="M82680 77960
L82680 78740
" />
</g>
<g style="fill:#840000; fill-opacity:0.0; 
stroke:#840000; stroke-width:100; stroke-opacity:1; 
stroke-linecap:round; stroke-linejoin:round;">
</g>
<g style="fill:#840000; fill-opacity:0.0; 
stroke:#840000; stroke-width:60; stroke-opacity:1; 
stroke-linecap:round; stroke-linejoin:round;">
<path d="M102360 77960
L102360 78740
" />
</g>
<g style="fill:#840000; fill-opacity:0.0; 
stroke:#840000; stroke-width:100; stroke-opacity:1; 
stroke-linecap:round; stroke-linejoin:round;">
</g>
<g style="fill:#840000; fill-opacity:0.0; 
stroke:#840000; stroke-width:60; stroke-opacity:1; 
stroke-linecap:round; stroke-linejoin:round;">
<text x="13780" y="78600"
textLength="550" font-size="680" lengthAdjust="spacingAndGlyphs"
text-anchor="start" opacity="0">1</text>
<path d="M14190 78580
L13900 78580
" />
<path d="M14050 78580
L14050 78070
L14000 78140
L13950 78190
L13900 78210
" />
</g>
<g style="fill:#840000; fill-opacity:0.0; 
stroke:#840000; stroke-width:100; stroke-opacity:1; 
stroke-linecap:round; stroke-linejoin:round;">
</g>
<g style="fill:#840000; fill-opacity:0.0; 
stroke:#840000; stroke-width:60; stroke-opacity:1; 
stroke-linecap:round; stroke-linejoin:round;">
<text x="33460" y="78600"
textLength="550" font-size="680" lengthAdjust="spacingAndGlyphs"
text-anchor="start" opacity="0">2</text>
<path d="M33580 78110
L33610 78090
L33660 78070
L33780 78070
L33830 78090
L33850 78110
L33870 78160
L33870 78210
L33850 78280
L33560 78580
L33870 78580
" />
</g>
<g style="fill:#840000; fill-opacity:0.0; 
stroke:#840000; stroke-width:100; stroke-opacity:1; 
stroke-linecap:round; stroke-linejoin:round;">
</g>
<g style="fill:#840000; fill-opacity:0.0; 
stroke:#840000; stroke-width:60; stroke-opacity:1; 
stroke-linecap:round; stroke-linejoin:round;">
<text x="53150" y="78600"
textLength="550" font-size="680" lengthAdjust="spacingAndGlyphs"
text-anchor="start" opacity="0">3</text>
<path d="M53250 78070
L53560 78070
L53390 78260
L53470 78260
L53520 78280
L53540 78310
L53560 78360
L53560 78480
L53540 78530
L53520 78550
L53470 78580
L53320 78580
L53270 78550
L53250 78530
" />
</g>
<g style="fill:#840000; fill-opacity:0.0; 
stroke:#840000; stroke-width:100; stroke-opacity:1; 
stroke-linecap:round; stroke-linejoin:round;">
</g>
<g style="fill:#840000; fill-opacity:0.0; 
stroke:#840000; stroke-width:60; stroke-opacity:1; 
stroke-linecap:round; stroke-linejoin:round;">
<text x="72830" y="78600"
textLength="550" font-size="680" lengthAdjust="spacingAndGlyphs"
text-anchor="start" opacity="0">4</text>
<path d="M73200 78240
L73200 78580
" />
<path d="M73070 78040
L72950 78410
L73270 78410
" />
</g>
<g style="fill:#840000; fill-opacity:0.0; 
stroke:#840000; stroke-width:100; stroke-opacity:1; 
stroke-linecap:round; stroke-linejoin:round;">
</g>
<g style="fill:#840000; fill-opacity:0.0; 
stroke:#840000; stroke-width:60; stroke-opacity:1; 
stroke-linecap:round; stroke-linejoin:round;">
<text x="92520" y="78600"
textLength="550" font-size="680" lengthAdjust="spacingAndGlyphs"
text-anchor="start" opacity="0">5</text>
<path d="M92910 78070
L92670 78070
L92640 78310
L92670 78280
L92720 78260
L92840 78260
L92890 78280
L92910 78310
L92930 78360
L92930 78480
L92910 78530
L92890 78550
L92840 78580
L92720 78580
L92670 78550
L92640 78530
" />
</g>
<g style="fill:#840000; fill-opacity:0.0; 
stroke:#840000; stroke-width:100; stroke-opacity:1; 
stroke-linecap:round; stroke-linejoin:round;">
</g>
<g style="fill:#840000; fill-opacity:0.0; 
stroke:#840000; stroke-width:60; stroke-opacity:1; 
stroke-linecap:round; stroke-linejoin:round;">
<text x="112200" y="78600"
textLength="550" font-size="680" lengthAdjust="spacingAndGlyphs"
text-anchor="start" opacity="0">6</text>
<path d="M112570 78070
L112470 78070
L112420 78090
L112400 78110
L112350 78190
L112320 78280
L112320 78480
L112350 78530
L112370 78550
L112420 78580
L112520 78580
L112570 78550
L112590 78530
L112610 78480
L112610 78360
L112590 78310
L112570 78280
L112520 78260
L112420 78260
L112370 78280
L112350 78310
L112320 78360
" />
</g>
<g style="fill:#840000; fill-opacity:0.0; 
stroke:#840000; stroke-width:100; stroke-opacity:1; 
stroke-linecap:round; stroke-linejoin:round;">
</g>
<g style="fill:#840000; fill-opacity:0.0; 
stroke:#840000; stroke-width:60; stroke-opacity:1; 
stroke-linecap:round; stroke-linejoin:round;">
<path d="M3940 23620
L4720 23620
" />
</g>
<g style="fill:#840000; fill-opacity:0.0; 
stroke:#840000; stroke-width:100; stroke-opacity:1; 
stroke-linecap:round; stroke-linejoin:round;">
</g>
<g style="fill:#840000; fill-opacity:0.0; 
stroke:#840000; stroke-width:60; stroke-opacity:1; 
stroke-linecap:round; stroke-linejoin:round;">
<path d="M3940 43310
L4720 43310
" />
</g>
<g style="fill:#840000; fill-opacity:0.0; 
stroke:#840000; stroke-width:100; stroke-opacity:1; 
stroke-linecap:round; stroke-linejoin:round;">
</g>
<g style="fill:#840000; fill-opacity:0.0; 
stroke:#840000; stroke-width:60; stroke-opacity:1; 
stroke-linecap:round; stroke-linejoin:round;">
<path d="M3940 62990
L4720 62990
" />
</g>
<g style="fill:#840000; fill-opacity:0.0; 
stroke:#840000; stroke-width:100; stroke-opacity:1; 
stroke-linecap:round; stroke-linejoin:round;">
</g>
<g style="fill:#840000; fill-opacity:0.0; 
stroke:#840000; stroke-width:60; stroke-opacity:1; 
stroke-linecap:round; stroke-linejoin:round;">
<text x="4330" y="14030"
textLength="500" font-size="680" lengthAdjust="spacingAndGlyphs"
text-anchor="middle" opacity="0">A</text>
<path d="M4200 13860
L4450 13860
" />
<path d="M4160 14010
L4330 13500
L4500 14010
" />
</g>
<g style="fill:#840000; fill-opacity:0.0; 
stroke:#840000; stroke-width:100; stroke-opacity:1; 
stroke-linecap:round; stroke-linejoin:round;">
</g>
<g style="fill:#840000; fill-opacity:0.0; 
stroke:#840000; stroke-width:60; stroke-opacity:1; 
stroke-linecap:round; stroke-linejoin:round;">
<text x="4330" y="33710"
textLength="570" font-size="680" lengthAdjust="spacingAndGlyphs"
text-anchor="middle" opacity="0">B</text>
<path d="M4360 33420
L4430 33440
L4460 33470
L4480 33520
L4480 33590
L4460 33640
L4430 33660
L4390 33690
L4190 33690
L4190 33180
L4360 33180
L4410 33200
L4430 33220
L4460 33270
L4460 33320
L4430 33370
L4410 33390
L4360 33420
L4190 33420
" />
</g>
<g style="fill:#840000; fill-opacity:0.0; 
stroke:#840000; stroke-width:100; stroke-opacity:1; 
stroke-linecap:round; stroke-linejoin:round;">
</g>
<g style="fill:#840000; fill-opacity:0.0; 
stroke:#840000; stroke-width:60; stroke-opacity:1; 
stroke-linecap:round; stroke-linejoin:round;">
<text x="4330" y="53400"
textLength="570" font-size="680" lengthAdjust="spacingAndGlyphs"
text-anchor="middle" opacity="0">C</text>
<path d="M4480 53330
L4460 53350
L4390 53380
L4340 53380
L4260 53350
L4220 53300
L4190 53250
L4170 53160
L4170 53080
L4190 52990
L4220 52940
L4260 52890
L4340 52870
L4390 52870
L4460 52890
L4480 52910
" />
</g>
<g style="fill:#840000; fill-opacity:0.0; 
stroke:#840000; stroke-width:100; stroke-opacity:1; 
stroke-linecap:round; stroke-linejoin:round;">
</g>
<g style="fill:#840000; fill-opacity:0.0; 
stroke:#840000; stroke-width:60; stroke-opacity:1; 
stroke-linecap:round; stroke-linejoin:round;">
<text x="4330" y="73080"
textLength="570" font-size="680" lengthAdjust="spacingAndGlyphs"
text-anchor="middle" opacity="0">D</text>
<path d="M4190 73060
L4190 72550
L4310 72550
L4390 72570
L4430 72620
L4460 72670
L4480 72760
L4480 72840
L4460 72930
L4430 72980
L4390 73030
L4310 73060
L4190 73060
" />
</g>
<g style="fill:#840000; fill-opacity:0.0; 
stroke:#840000; stroke-width:100; stroke-opacity:1; 
stroke-linecap:round; stroke-linejoin:round;">
</g>
<g style="fill:#840000; fill-opacity:0.0; 
stroke:#840000; stroke-width:60; stroke-opacity:1; 
stroke-linecap:round; stroke-linejoin:round;">
<path d="M112990 23620
L112210 23620
" />
</g>
<g style="fill:#840000; fill-opacity:0.0; 
stroke:#840000; stroke-width:100; stroke-opacity:1; 
stroke-linecap:round; stroke-linejoin:round;">
</g>
<g style="fill:#840000; fill-opacity:0.0; 
stroke:#840000; stroke-width:60; stroke-opacity:1; 
stroke-linecap:round; stroke-linejoin:round;">
<path d="M112990 43310
L112210 43310
" />
</g>
<g style="fill:#840000; fill-opacity:0.0; 
stroke:#840000; stroke-width:100; stroke-opacity:1; 
stroke-linecap:round; stroke-linejoin:round;">
</g>
<g style="fill:#840000; fill-opacity:0.0; 
stroke:#840000; stroke-width:60; stroke-opacity:1; 
stroke-linecap:round; stroke-linejoin:round;">
<path d="M112990 62990
L112210 62990
" />
</g>
<g style="fill:#840000; fill-opacity:0.0; 
stroke:#840000; stroke-width:100; stroke-opacity:1; 
stroke-linecap:round; stroke-linejoin:round;">
</g>
<g style="fill:#840000; fill-opacity:0.0; 
stroke:#840000; stroke-width:60; stroke-opacity:1; 
stroke-linecap:round; stroke-linejoin:round;">
<text x="112600" y="14030"
textLength="500" font-size="680" lengthAdjust="spacingAndGlyphs"
text-anchor="middle" opacity="0">A</text>
<path d="M112470 13860
L112720 13860
" />
<path d="M112430 14010
L112600 13500
L112770 14010
" />
</g>
<g style="fill:#840000; fill-opacity:0.0; 
stroke:#840000; stroke-width:100; stroke-opacity:1; 
stroke-linecap:round; stroke-linejoin:round;">
</g>
<g style="fill:#840000; fill-opacity:0.0; 
stroke:#840000; stroke-width:60; stroke-opacity:1; 
stroke-linecap:round; stroke-linejoin:round;">
<text x="112600" y="33710"
textLength="570" font-size="680" lengthAdjust="spacingAndGlyphs"
text-anchor="middle" opacity="0">B</text>
<path d="M112630 33420
L112700 33440
L112730 33470
L112750 33520
L112750 33590
L112730 33640
L112700 33660
L112660 33690
L112460 33690
L112460 33180
L112630 33180
L112680 33200
L112700 33220
L112730 33270
L112730 33320
L112700 33370
L112680 33390
L112630 33420
L112460 33420
" />
</g>
<g style="fill:#840000; fill-opacity:0.0; 
stroke:#840000; stroke-width:100; stroke-opacity:1; 
stroke-linecap:round; stroke-linejoin:round;">
</g>
<g style="fill:#840000; fill-opacity:0.0; 
stroke:#840000; stroke-width:60; stroke-opacity:1; 
stroke-linecap:round; stroke-linejoin:round;">
<text x="112600" y="53400"
textLength="570" font-size="680" lengthAdjust="spacingAndGlyphs"
text-anchor="middle" opacity="0">C</text>
<path d="M112750 53330
L112730 53350
L112660 53380
L112610 53380
L112530 53350
L112490 53300
L112460 53250
L112440 53160
L112440 53080
L112460 52990
L112490 52940
L112530 52890
L112610 52870
L112660 52870
L112730 52890
L112750 52910
" />
</g>
<g style="fill:#840000; fill-opacity:0.0; 
stroke:#840000; stroke-width:100; stroke-opacity:1; 
stroke-linecap:round; stroke-linejoin:round;">
</g>
<g style="fill:#840000; fill-opacity:0.0; 
stroke:#840000; stroke-width:60; stroke-opacity:1; 
stroke-linecap:round; stroke-linejoin:round;">
<text x="112600" y="73080"
textLength="570" font-size="680" lengthAdjust="spacingAndGlyphs"
text-anchor="middle" opacity="0">D</text>
<path d="M112460 73060
L112460 72550
L112580 72550
L112660 72570
L112700 72620
L112730 72670
L112750 72760
L112750 72840
L112730 72930
L112700 72980
L112660 73030
L112580 73060
L112460 73060
" />
</g>
<g style="fill:#840000; fill-opacity:0.0; 
stroke:#840000; stroke-width:100; stroke-opacity:1; 
stroke-linecap:round; stroke-linejoin:round;">
</g>
<g style="fill:#840000; fill-opacity:0.0; 
stroke:#840000; stroke-width:60; stroke-opacity:1; 
stroke-linecap:round; stroke-linejoin:round;">
<text x="78740" y="76320"
textLength="8710" font-size="780" lengthAdjust="spacingAndGlyphs"
text-anchor="start" opacity="0">Date: 2021-03-03</text>
<path d="M78910 76290
L78910 75700
L79050 75700
L79130 75730
L79190 75790
L79210 75840
L79240 75950
L79240 76040
L79210 76150
L79190 76210
L79130 76260
L79050 76290
L78910 76290
" />
<path d="M79750 76290
L79750 75980
L79720 75930
L79660 75900
L79550 75900
L79500 75930
" />
<path d="M79750 76260
L79690 76290
L79550 76290
L79500 76260
L79470 76210
L79470 76150
L79500 76100
L79550 76070
L79690 76070
L79750 76040
" />
<path d="M79950 75900
L80170 75900
" />
<path d="M80030 75700
L80030 76210
L80060 76260
L80110 76290
L80170 76290
" />
<path d="M80590 76260
L80540 76290
L80420 76290
L80370 76260
L80340 76210
L80340 75980
L80370 75930
L80420 75900
L80540 75900
L80590 75930
L80620 75980
L80620 76040
L80340 76100
" />
<path d="M80870 76240
L80900 76260
L80870 76290
L80840 76260
L80870 76240
L80870 76290
" />
<path d="M80870 75930
L80900 75950
L80870 75980
L80840 75950
L80870 75930
L80870 75980
" />
<path d="M81570 75760
L81600 75730
L81660 75700
L81800 75700
L81860 75730
L81880 75760
L81910 75810
L81910 75870
L81880 75950
L81550 76290
L81910 76290
" />
<path d="M82280 75700
L82330 75700
L82390 75730
L82420 75760
L82450 75810
L82470 75930
L82470 76070
L82450 76180
L82420 76240
L82390 76260
L82330 76290
L82280 76290
L82220 76260
L82190 76240
L82160 76180
L82140 76070
L82140 75930
L82160 75810
L82190 75760
L82220 75730
L82280 75700
" />
<path d="M82700 75760
L82730 75730
L82780 75700
L82920 75700
L82980 75730
L83010 75760
L83040 75810
L83040 75870
L83010 75950
L82670 76290
L83040 76290
" />
<path d="M83600 76290
L83260 76290
" />
<path d="M83430 76290
L83430 75700
L83370 75790
L83320 75840
L83260 75870
" />
<path d="M83850 76070
L84300 76070
" />
<path d="M84690 75700
L84750 75700
L84810 75730
L84830 75760
L84860 75810
L84890 75930
L84890 76070
L84860 76180
L84830 76240
L84810 76260
L84750 76290
L84690 76290
L84640 76260
L84610 76240
L84580 76180
L84550 76070
L84550 75930
L84580 75810
L84610 75760
L84640 75730
L84690 75700
" />
<path d="M85090 75700
L85450 75700
L85260 75930
L85340 75930
L85400 75950
L85420 75980
L85450 76040
L85450 76180
L85420 76240
L85400 76260
L85340 76290
L85170 76290
L85110 76260
L85090 76240
" />
<path d="M85700 76070
L86150 76070
" />
<path d="M86550 75700
L86600 75700
L86660 75730
L86690 75760
L86720 75810
L86740 75930
L86740 76070
L86720 76180
L86690 76240
L86660 76260
L86600 76290
L86550 76290
L86490 76260
L86460 76240
L86440 76180
L86410 76070
L86410 75930
L86440 75810
L86460 75760
L86490 75730
L86550 75700
" />
<path d="M86940 75700
L87310 75700
L87110 75930
L87190 75930
L87250 75950
L87280 75980
L87310 76040
L87310 76180
L87280 76240
L87250 76260
L87190 76290
L87030 76290
L86970 76260
L86940 76240
" />
</g>
<g style="fill:#840000; fill-opacity:0.0; 
stroke:#840000; stroke-width:100; stroke-opacity:1; 
stroke-linecap:round; stroke-linejoin:round;">
</g>
<g style="fill:#840000; fill-opacity:0.0; 
stroke:#840000; stroke-width:60; stroke-opacity:1; 
stroke-linecap:round; stroke-linejoin:round;">
<path d="M69690 76580
L112210 76580
" />
</g>
<g style="fill:#840000; fill-opacity:0.0; 
stroke:#840000; stroke-width:100; stroke-opacity:1; 
stroke-linecap:round; stroke-linejoin:round;">
</g>
<g style="fill:#840000; fill-opacity:0.0; 
stroke:#840000; stroke-width:60; stroke-opacity:1; 
stroke-linecap:round; stroke-linejoin:round;">
<text x="70080" y="77420"
textLength="19920" font-size="780" lengthAdjust="spacingAndGlyphs"
text-anchor="start" opacity="0">KiCad E.D.A.  kicad 5.1.9+dfsg1-1~bpo10+1</text>
<path d="M70250 77390
L70250 76800
" />
<path d="M70580 77390
L70330 77050
" />
<path d="M70580 76800
L70250 77140
" />
<path d="M70840 77390
L70840 77000
" />
<path d="M70840 76800
L70810 76830
L70840 76860
L70860 76830
L70840 76800
L70840 76860
" />
<path d="M71450 77340
L71430 77360
L71340 77390
L71290 77390
L71200 77360
L71140 77310
L71120 77250
L71090 77140
L71090 77050
L71120 76940
L71140 76890
L71200 76830
L71290 76800
L71340 76800
L71430 76830
L71450 76860
" />
<path d="M71960 77390
L71960 77080
L71930 77030
L71880 77000
L71760 77000
L71710 77030
" />
<path d="M71960 77360
L71900 77390
L71760 77390
L71710 77360
L71680 77310
L71680 77250
L71710 77200
L71760 77170
L71900 77170
L71960 77140
" />
<path d="M72490 77390
L72490 76800
" />
<path d="M72490 77360
L72440 77390
L72320 77390
L72270 77360
L72240 77340
L72210 77280
L72210 77110
L72240 77050
L72270 77030
L72320 77000
L72440 77000
L72490 77030
" />
<path d="M73220 77080
L73420 77080
" />
<path d="M73500 77390
L73220 77390
L73220 76800
L73500 76800
" />
<path d="M73760 77340
L73790 77360
L73760 77390
L73730 77360
L73760 77340
L73760 77390
" />
<path d="M74040 77390
L74040 76800
L74180 76800
L74260 76830
L74320 76890
L74350 76940
L74380 77050
L74380 77140
L74350 77250
L74320 77310
L74260 77360
L74180 77390
L74040 77390
" />
<path d="M74630 77340
L74660 77360
L74630 77390
L74600 77360
L74630 77340
L74630 77390
" />
<path d="M74880 77220
L75160 77220
" />
<path d="M74830 77390
L75020 76800
L75220 77390
" />
<path d="M75420 77340
L75440 77360
L75420 77390
L75390 77360
L75420 77340
L75420 77390
" />
<path d="M76600 77390
L76600 76800
" />
<path d="M76650 77170
L76820 77390
" />
<path d="M76820 77000
L76600 77220
" />
<path d="M77070 77390
L77070 77000
" />
<path d="M77070 76800
L77040 76830
L77070 76860
L77100 76830
L77070 76800
L77070 76860
" />
<path d="M77610 77360
L77550 77390
L77440 77390
L77380 77360
L77350 77340
L77330 77280
L77330 77110
L77350 77050
L77380 77030
L77440 77000
L77550 77000
L77610 77030
" />
<path d="M78110 77390
L78110 77080
L78080 77030
L78030 77000
L77920 77000
L77860 77030
" />
<path d="M78110 77360
L78060 77390
L77920 77390
L77860 77360
L77830 77310
L77830 77250
L77860 77200
L77920 77170
L78060 77170
L78110 77140
" />
<path d="M78650 77390
L78650 76800
" />
<path d="M78650 77360
L78590 77390
L78480 77390
L78420 77360
L78390 77340
L78370 77280
L78370 77110
L78390 77050
L78420 77030
L78480 77000
L78590 77000
L78650 77030
" />
<path d="M79660 76800
L79380 76800
L79350 77080
L79380 77050
L79430 77030
L79570 77030
L79630 77050
L79660 77080
L79690 77140
L79690 77280
L79660 77340
L79630 77360
L79570 77390
L79430 77390
L79380 77360
L79350 77340
" />
<path d="M79940 77340
L79970 77360
L79940 77390
L79910 77360
L79940 77340
L79940 77390
" />
<path d="M80530 77390
L80190 77390
" />
<path d="M80360 77390
L80360 76800
L80300 76890
L80250 76940
L80190 76970
" />
<path d="M80780 77340
L80810 77360
L80780 77390
L80750 77360
L80780 77340
L80780 77390
" />
<path d="M81090 77390
L81200 77390
L81260 77360
L81290 77340
L81340 77250
L81370 77140
L81370 76910
L81340 76860
L81320 76830
L81260 76800
L81150 76800
L81090 76830
L81060 76860
L81030 76910
L81030 77050
L81060 77110
L81090 77140
L81150 77170
L81260 77170
L81320 77140
L81340 77110
L81370 77050
" />
<path d="M81620 77170
L82070 77170
" />
<path d="M81850 77390
L81850 76940
" />
<path d="M82610 77390
L82610 76800
" />
<path d="M82610 77360
L82550 77390
L82440 77390
L82380 77360
L82350 77340
L82330 77280
L82330 77110
L82350 77050
L82380 77030
L82440 77000
L82550 77000
L82610 77030
" />
<path d="M82800 77000
L83030 77000
" />
<path d="M82890 77390
L82890 76890
L82920 76830
L82970 76800
L83030 76800
" />
<path d="M83200 77360
L83250 77390
L83370 77390
L83420 77360
L83450 77310
L83450 77280
L83420 77220
L83370 77200
L83280 77200
L83230 77170
L83200 77110
L83200 77080
L83230 77030
L83280 77000
L83370 77000
L83420 77030
" />
<path d="M83960 77000
L83960 77480
L83930 77530
L83900 77560
L83840 77590
L83760 77590
L83700 77560
" />
<path d="M83960 77360
L83900 77390
L83790 77390
L83730 77360
L83700 77340
L83680 77280
L83680 77110
L83700 77050
L83730 77030
L83790 77000
L83900 77000
L83960 77030
" />
<path d="M84550 77390
L84210 77390
" />
<path d="M84380 77390
L84380 76800
L84320 76890
L84270 76940
L84210 76970
" />
<path d="M84800 77170
L85250 77170
" />
<path d="M85840 77390
L85500 77390
" />
<path d="M85670 77390
L85670 76800
L85610 76890
L85560 76940
L85500 76970
" />
<path d="M85950 76640
L86480 76640
" />
<path d="M86090 77390
L86090 76800
" />
<path d="M86090 77030
L86150 77000
L86260 77000
L86320 77030
L86340 77050
L86370 77110
L86370 77280
L86340 77340
L86320 77360
L86260 77390
L86150 77390
L86090 77360
" />
<path d="M86480 76640
L87020 76640
" />
<path d="M86630 77000
L86630 77590
" />
<path d="M86630 77030
L86680 77000
L86790 77000
L86850 77030
L86880 77050
L86910 77110
L86910 77280
L86880 77340
L86850 77360
L86790 77390
L86680 77390
L86630 77360
" />
<path d="M87020 76640
L87550 76640
" />
<path d="M87240 77390
L87190 77360
L87160 77340
L87130 77280
L87130 77110
L87160 77050
L87190 77030
L87240 77000
L87330 77000
L87380 77030
L87410 77050
L87440 77110
L87440 77280
L87410 77340
L87380 77360
L87330 77390
L87240 77390
" />
<path d="M87550 76640
L88110 76640
" />
<path d="M88000 77390
L87660 77390
" />
<path d="M87830 77390
L87830 76800
L87780 76890
L87720 76940
L87660 76970
" />
<path d="M88110 76640
L88680 76640
" />
<path d="M88370 76800
L88420 76800
L88480 76830
L88510 76860
L88540 76910
L88560 77030
L88560 77170
L88540 77280
L88510 77340
L88480 77360
L88420 77390
L88370 77390
L88310 77360
L88280 77340
L88250 77280
L88230 77170
L88230 77030
L88250 76910
L88280 76860
L88310 76830
L88370 76800
" />
<path d="M88680 76640
L89410 76640
" />
<path d="M88820 77170
L89270 77170
" />
<path d="M89040 77390
L89040 76940
" />
<path d="M89410 76640
L89970 76640
" />
<path d="M89860 77390
L89520 77390
" />
<path d="M89690 77390
L89690 76800
L89630 76890
L89580 76940
L89520 76970
" />
</g>
<g style="fill:#840000; fill-opacity:0.0; 
stroke:#840000; stroke-width:100; stroke-opacity:1; 
stroke-linecap:round; stroke-linejoin:round;">
</g>
<g style="fill:#840000; fill-opacity:0.0; 
stroke:#840000; stroke-width:60; stroke-opacity:1; 
stroke-linecap:round; stroke-linejoin:round;">
<path d="M69690 75400
L112210 75400
" />
</g>
<g style="fill:#840000; fill-opacity:0.0; 
stroke:#840000; stroke-width:100; stroke-opacity:1; 
stroke-linecap:round; stroke-linejoin:round;">
</g>
<g style="fill:#840000; fill-opacity:0.0; 
stroke:#840000; stroke-width:120; stroke-opacity:1; 
stroke-linecap:round; stroke-linejoin:round;">
<text x="103540" y="76320"
textLength="3740" font-size="780" lengthAdjust="spacingAndGlyphs"
text-anchor="start" opacity="0">Rev: 0.1</text>
<path d="M104090 76290
L103890 76010
" />
<path d="M103750 76290
L103750 75700
L103980 75700
L104030 75730
L104060 75760
L104090 75810
L104090 75900
L104060 75950
L104030 75980
L103980 76010
L103750 76010
" />
<path d="M104570 76260
L104510 76290
L104400 76290
L104340 76260
L104320 76210
L104320 75980
L104340 75930
L104400 75900
L104510 75900
L104570 75930
L104600 75980
L104600 76040
L104320 76100
" />
<path d="M104790 75900
L104930 76290
L105070 75900
" />
<path d="M105300 76240
L105330 76260
L105300 76290
L105270 76260
L105300 76240
L105300 76290
" />
<path d="M105300 75930
L105330 75950
L105300 75980
L105270 75950
L105300 75930
L105300 75980
" />
<path d="M106140 75700
L106200 75700
L106250 75730
L106280 75760
L106310 75810
L106340 75930
L106340 76070
L106310 76180
L106280 76240
L106250 76260
L106200 76290
L106140 76290
L106090 76260
L106060 76240
L106030 76180
L106000 76070
L106000 75930
L106030 75810
L106060 75760
L106090 75730
L106140 75700
" />
<path d="M106590 76240
L106620 76260
L106590 76290
L106560 76260
L106590 76240
L106590 76290
" />
<path d="M107180 76290
L106840 76290
" />
<path d="M107010 76290
L107010 75700
L106960 75790
L106900 75840
L106840 75870
" />
</g>
<g style="fill:#840000; fill-opacity:0.0; 
stroke:#840000; stroke-width:100; stroke-opacity:1; 
stroke-linecap:round; stroke-linejoin:round;">
</g>
<g style="fill:#840000; fill-opacity:0.0; 
stroke:#840000; stroke-width:60; stroke-opacity:1; 
stroke-linecap:round; stroke-linejoin:round;">
<text x="70080" y="76320"
textLength="3780" font-size="780" lengthAdjust="spacingAndGlyphs"
text-anchor="start" opacity="0">Size: A4</text>
<path d="M70220 76260
L70300 76290
L70440 76290
L70500 76260
L70530 76240
L70550 76180
L70550 76120
L70530 76070
L70500 76040
L70440 76010
L70330 75980
L70270 75950
L70250 75930
L70220 75870
L70220 75810
L70250 75760
L70270 75730
L70330 75700
L70470 75700
L70550 75730
" />
<path d="M70810 76290
L70810 75900
" />
<path d="M70810 75700
L70780 75730
L70810 75760
L70840 75730
L70810 75700
L70810 75760
" />
<path d="M71030 75900
L71340 75900
L71030 76290
L71340 76290
" />
<path d="M71790 76260
L71730 76290
L71620 76290
L71570 76260
L71540 76210
L71540 75980
L71570 75930
L71620 75900
L71730 75900
L71790 75930
L71820 75980
L71820 76040
L71540 76100
" />
<path d="M72070 76240
L72100 76260
L72070 76290
L72040 76260
L72070 76240
L72070 76290
" />
<path d="M72070 75930
L72100 75950
L72070 75980
L72040 75950
L72070 75930
L72070 75980
" />
<path d="M72770 76120
L73060 76120
" />
<path d="M72720 76290
L72910 75700
L73110 76290
" />
<path d="M73560 75900
L73560 76290
" />
<path d="M73420 75670
L73280 76100
L73650 76100
" />
</g>
<g style="fill:#840000; fill-opacity:0.0; 
stroke:#840000; stroke-width:100; stroke-opacity:1; 
stroke-linecap:round; stroke-linejoin:round;">
</g>
<g style="fill:#840000; fill-opacity:0.0; 
stroke:#840000; stroke-width:60; stroke-opacity:1; 
stroke-linecap:round; stroke-linejoin:round;">
<text x="103540" y="77420"
textLength="3910" font-size="780" lengthAdjust="spacingAndGlyphs"
text-anchor="start" opacity="0">Id: 9/11</text>
<path d="M103710 77390
L103710 76800
" />
<path d="M104240 77390
L104240 76800
" />
<path d="M104240 77360
L104180 77390
L104070 77390
L104010 77360
L103990 77340
L103960 77280
L103960 77110
L103990 77050
L104010 77030
L104070 77000
L104180 77000
L104240 77030
" />
<path d="M104520 77340
L104550 77360
L104520 77390
L104490 77360
L104520 77340
L104520 77390
" />
<path d="M104520 77030
L104550 77050
L104520 77080
L104490 77050
L104520 77030
L104520 77080
" />
<path d="M105280 77390
L105390 77390
L105450 77360
L105480 77340
L105530 77250
L105560 77140
L105560 76910
L105530 76860
L105500 76830
L105450 76800
L105340 76800
L105280 76830
L105250 76860
L105220 76910
L105220 77050
L105250 77110
L105280 77140
L105340 77170
L105450 77170
L105500 77140
L105530 77110
L105560 77050
" />
<path d="M106230 76770
L105730 77530
" />
<path d="M106740 77390
L106400 77390
" />
<path d="M106570 77390
L106570 76800
L106520 76890
L106460 76940
L106400 76970
" />
<path d="M107300 77390
L106960 77390
" />
<path d="M107130 77390
L107130 76800
L107080 76890
L107020 76940
L106960 76970
" />
</g>
<g style="fill:#840000; fill-opacity:0.0; 
stroke:#840000; stroke-width:100; stroke-opacity:1; 
stroke-linecap:round; stroke-linejoin:round;">
</g>
<g style="fill:#840000; fill-opacity:0.0; 
stroke:#840000; stroke-width:60; stroke-opacity:1; 
stroke-linecap:round; stroke-linejoin:round;">
<path d="M69690 73820
L112210 73820
" />
</g>
<g style="fill:#840000; fill-opacity:0.0; 
stroke:#840000; stroke-width:100; stroke-opacity:1; 
stroke-linecap:round; stroke-linejoin:round;">
</g>
<g style="fill:#840000; fill-opacity:0.0; 
stroke:#840000; stroke-width:160; stroke-opacity:1; 
stroke-linecap:round; stroke-linejoin:round;">
<text x="70080" y="74920"
textLength="19930" font-size="1050" lengthAdjust="spacingAndGlyphs"
text-anchor="start" opacity="0">Title: Embedded Testbench (ETB)</text>
<path d="M70360 74090
L70810 74090
" />
<path d="M70480 74880
L70580 74090
" />
<path d="M70970 74880
L71040 74360
" />
<path d="M71070 74090
L71030 74130
L71060 74170
L71110 74130
L71070 74090
L71060 74170
" />
<path d="M71300 74360
L71600 74360
" />
<path d="M71450 74090
L71360 74770
L71390 74840
L71460 74880
L71540 74880
" />
<path d="M71910 74880
L71840 74840
L71820 74770
L71900 74090
" />
<path d="M72520 74840
L72440 74880
L72290 74880
L72220 74840
L72190 74770
L72230 74470
L72280 74390
L72360 74360
L72510 74360
L72580 74390
L72610 74470
L72600 74540
L72210 74620
" />
<path d="M72900 74810
L72930 74840
L72890 74880
L72860 74840
L72900 74810
L72890 74880
" />
<path d="M72950 74390
L72990 74430
L72940 74470
L72910 74430
L72950 74390
L72940 74470
" />
<path d="M73920 74470
L74190 74470
" />
<path d="M74250 74880
L73870 74880
L73970 74090
L74350 74090
" />
<path d="M74590 74880
L74650 74360
" />
<path d="M74640 74430
L74680 74390
L74760 74360
L74880 74360
L74950 74390
L74980 74470
L74920 74880
" />
<path d="M74980 74470
L75020 74390
L75100 74360
L75220 74360
L75290 74390
L75310 74470
L75260 74880
" />
<path d="M75640 74880
L75740 74090
" />
<path d="M75700 74390
L75780 74360
L75930 74360
L76000 74390
L76030 74430
L76060 74510
L76030 74730
L75990 74810
L75940 74840
L75860 74880
L75710 74880
L75640 74840
" />
<path d="M76660 74840
L76580 74880
L76430 74880
L76360 74840
L76330 74770
L76370 74470
L76410 74390
L76490 74360
L76640 74360
L76720 74390
L76740 74470
L76730 74540
L76350 74620
" />
<path d="M77370 74880
L77470 74090
" />
<path d="M77370 74840
L77290 74880
L77140 74880
L77070 74840
L77040 74810
L77010 74730
L77040 74510
L77090 74430
L77130 74390
L77210 74360
L77360 74360
L77430 74390
" />
<path d="M78080 74880
L78180 74090
" />
<path d="M78090 74840
L78010 74880
L77860 74880
L77790 74840
L77750 74810
L77730 74730
L77750 74510
L77800 74430
L77840 74390
L77920 74360
L78070 74360
L78140 74390
" />
<path d="M78770 74840
L78690 74880
L78540 74880
L78460 74840
L78440 74770
L78470 74470
L78520 74390
L78600 74360
L78750 74360
L78820 74390
L78850 74470
L78840 74540
L78460 74620
" />
<path d="M79480 74880
L79570 74090
" />
<path d="M79480 74840
L79400 74880
L79250 74880
L79180 74840
L79150 74810
L79120 74730
L79150 74510
L79190 74430
L79240 74390
L79320 74360
L79470 74360
L79540 74390
" />
<path d="M80440 74090
L80890 74090
" />
<path d="M80570 74880
L80670 74090
" />
<path d="M81360 74840
L81280 74880
L81130 74880
L81060 74840
L81030 74770
L81070 74470
L81120 74390
L81200 74360
L81350 74360
L81420 74390
L81450 74470
L81440 74540
L81050 74620
" />
<path d="M81700 74840
L81770 74880
L81920 74880
L82000 74840
L82050 74770
L82050 74730
L82020 74660
L81950 74620
L81840 74620
L81770 74580
L81740 74510
L81750 74470
L81790 74390
L81870 74360
L81990 74360
L82060 74390
" />
<path d="M82330 74360
L82630 74360
" />
<path d="M82470 74090
L82390 74770
L82410 74840
L82490 74880
L82560 74880
" />
<path d="M82820 74880
L82920 74090
" />
<path d="M82880 74390
L82960 74360
L83120 74360
L83190 74390
L83220 74430
L83250 74510
L83220 74730
L83170 74810
L83130 74840
L83050 74880
L82900 74880
L82830 74840
" />
<path d="M83840 74840
L83760 74880
L83610 74880
L83540 74840
L83510 74770
L83550 74470
L83600 74390
L83680 74360
L83830 74360
L83900 74390
L83930 74470
L83920 74540
L83530 74620
" />
<path d="M84280 74360
L84220 74880
" />
<path d="M84270 74430
L84310 74390
L84390 74360
L84510 74360
L84580 74390
L84610 74470
L84550 74880
" />
<path d="M85270 74840
L85190 74880
L85040 74880
L84970 74840
L84940 74810
L84910 74730
L84940 74510
L84990 74430
L85030 74390
L85110 74360
L85260 74360
L85330 74390
" />
<path d="M85610 74880
L85710 74090
" />
<path d="M85950 74880
L86000 74470
L85970 74390
L85900 74360
L85790 74360
L85710 74390
L85660 74430
" />
<path d="M87110 75180
L87080 75150
L87020 75030
L86990 74960
L86970 74840
L86950 74660
L86970 74510
L87030 74320
L87080 74210
L87130 74130
L87220 74020
L87260 73980
" />
<path d="M87500 74470
L87770 74470
" />
<path d="M87830 74880
L87450 74880
L87550 74090
L87930 74090
" />
<path d="M88150 74090
L88600 74090
" />
<path d="M88280 74880
L88380 74090
" />
<path d="M89080 74470
L89190 74510
L89220 74540
L89250 74620
L89240 74730
L89190 74810
L89150 74840
L89070 74880
L88770 74880
L88870 74090
L89130 74090
L89200 74130
L89230 74170
L89260 74240
L89250 74320
L89200 74390
L89160 74430
L89080 74470
L88820 74470
" />
<path d="M89440 75180
L89490 75150
L89580 75030
L89620 74960
L89680 74840
L89740 74660
L89760 74510
L89740 74320
L89720 74210
L89690 74130
L89630 74020
L89600 73980
" />
</g>
<g style="fill:#840000; fill-opacity:0.0; 
stroke:#840000; stroke-width:100; stroke-opacity:1; 
stroke-linecap:round; stroke-linejoin:round;">
</g>
<g style="fill:#840000; fill-opacity:0.0; 
stroke:#840000; stroke-width:60; stroke-opacity:1; 
stroke-linecap:round; stroke-linejoin:round;">
<text x="70080" y="73400"
textLength="7370" font-size="780" lengthAdjust="spacingAndGlyphs"
text-anchor="start" opacity="0">File: ina219.sch</text>
<path d="M70440 73060
L70250 73060
" />
<path d="M70250 73370
L70250 72780
L70530 72780
" />
<path d="M70750 73370
L70750 72980
" />
<path d="M70750 72780
L70720 72810
L70750 72840
L70780 72810
L70750 72780
L70750 72840
" />
<path d="M71120 73370
L71060 73340
L71030 73290
L71030 72780
" />
<path d="M71570 73340
L71510 73370
L71400 73370
L71340 73340
L71310 73290
L71310 73060
L71340 73010
L71400 72980
L71510 72980
L71570 73010
L71590 73060
L71590 73120
L71310 73180
" />
<path d="M71850 73320
L71880 73340
L71850 73370
L71820 73340
L71850 73320
L71850 73370
" />
<path d="M71850 73010
L71880 73030
L71850 73060
L71820 73030
L71850 73010
L71850 73060
" />
<path d="M72580 73370
L72580 72980
" />
<path d="M72580 72780
L72550 72810
L72580 72840
L72610 72810
L72580 72780
L72580 72840
" />
<path d="M72860 72980
L72860 73370
" />
<path d="M72860 73030
L72890 73010
L72940 72980
L73030 72980
L73080 73010
L73110 73060
L73110 73370
" />
<path d="M73650 73370
L73650 73060
L73620 73010
L73560 72980
L73450 72980
L73390 73010
" />
<path d="M73650 73340
L73590 73370
L73450 73370
L73390 73340
L73360 73290
L73360 73230
L73390 73180
L73450 73150
L73590 73150
L73650 73120
" />
<path d="M73900 72840
L73930 72810
L73980 72780
L74120 72780
L74180 72810
L74210 72840
L74240 72890
L74240 72950
L74210 73030
L73870 73370
L74240 73370
" />
<path d="M74800 73370
L74460 73370
" />
<path d="M74630 73370
L74630 72780
L74570 72870
L74520 72920
L74460 72950
" />
<path d="M75080 73370
L75190 73370
L75250 73340
L75270 73320
L75330 73230
L75360 73120
L75360 72890
L75330 72840
L75300 72810
L75250 72780
L75130 72780
L75080 72810
L75050 72840
L75020 72890
L75020 73030
L75050 73090
L75080 73120
L75130 73150
L75250 73150
L75300 73120
L75330 73090
L75360 73030
" />
<path d="M75610 73320
L75640 73340
L75610 73370
L75580 73340
L75610 73320
L75610 73370
" />
<path d="M75860 73340
L75920 73370
L76030 73370
L76090 73340
L76120 73290
L76120 73260
L76090 73200
L76030 73180
L75950 73180
L75890 73150
L75860 73090
L75860 73060
L75890 73010
L75950 72980
L76030 72980
L76090 73010
" />
<path d="M76620 73340
L76570 73370
L76450 73370
L76400 73340
L76370 73320
L76340 73260
L76340 73090
L76370 73030
L76400 73010
L76450 72980
L76570 72980
L76620 73010
" />
<path d="M76880 73370
L76880 72780
" />
<path d="M77130 73370
L77130 73060
L77100 73010
L77040 72980
L76960 72980
L76900 73010
L76880 73030
" />
</g>
<g style="fill:#840000; fill-opacity:0.0; 
stroke:#840000; stroke-width:100; stroke-opacity:1; 
stroke-linecap:round; stroke-linejoin:round;">
</g>
<g style="fill:#840000; fill-opacity:0.0; 
stroke:#840000; stroke-width:60; stroke-opacity:1; 
stroke-linecap:round; stroke-linejoin:round;">
<path d="M69690 71460
L112210 71460
" />
</g>
<g style="fill:#840000; fill-opacity:0.0; 
stroke:#840000; stroke-width:100; stroke-opacity:1; 
stroke-linecap:round; stroke-linejoin:round;">
</g>
<g style="fill:#840000; fill-opacity:0.0; 
stroke:#840000; stroke-width:60; stroke-opacity:1; 
stroke-linecap:round; stroke-linejoin:round;">
<text x="70080" y="72340"
textLength="6440" font-size="780" lengthAdjust="spacingAndGlyphs"
text-anchor="start" opacity="0">Sheet: /INA4/</text>
<path d="M70220 72280
L70300 72310
L70440 72310
L70500 72280
L70530 72260
L70550 72200
L70550 72140
L70530 72090
L70500 72060
L70440 72030
L70330 72000
L70270 71970
L70250 71950
L70220 71890
L70220 71830
L70250 71780
L70270 71750
L70330 71720
L70470 71720
L70550 71750
" />
<path d="M70810 72310
L70810 71720
" />
<path d="M71060 72310
L71060 72000
L71030 71950
L70980 71920
L70890 71920
L70840 71950
L70810 71970
" />
<path d="M71570 72280
L71510 72310
L71400 72310
L71340 72280
L71310 72230
L71310 72000
L71340 71950
L71400 71920
L71510 71920
L71570 71950
L71590 72000
L71590 72060
L71310 72120
" />
<path d="M72070 72280
L72020 72310
L71900 72310
L71850 72280
L71820 72230
L71820 72000
L71850 71950
L71900 71920
L72020 71920
L72070 71950
L72100 72000
L72100 72060
L71820 72120
" />
<path d="M72270 71920
L72490 71920
" />
<path d="M72350 71720
L72350 72230
L72380 72280
L72440 72310
L72490 72310
" />
<path d="M72690 72260
L72720 72280
L72690 72310
L72660 72280
L72690 72260
L72690 72310
" />
<path d="M72690 71950
L72720 71970
L72690 72000
L72660 71970
L72690 71950
L72690 72000
" />
<path d="M73840 71690
L73340 72450
" />
<path d="M74040 72310
L74040 71720
" />
<path d="M74320 72310
L74320 71720
L74660 72310
L74660 71720
" />
<path d="M74910 72140
L75190 72140
" />
<path d="M74850 72310
L75050 71720
L75250 72310
" />
<path d="M75700 71920
L75700 72310
" />
<path d="M75560 71690
L75420 72120
L75780 72120
" />
<path d="M76430 71690
L75920 72450
" />
</g>
<g style="fill:#840000; fill-opacity:0.0; 
stroke:#840000; stroke-width:100; stroke-opacity:1; 
stroke-linecap:round; stroke-linejoin:round;">
</g>
<g style="fill:#840000; fill-opacity:0.0; 
stroke:#840000; stroke-width:120; stroke-opacity:1; 
stroke-linecap:round; stroke-linejoin:round;">
<text x="70080" y="71160"
textLength="9250" font-size="780" lengthAdjust="spacingAndGlyphs"
text-anchor="start" opacity="0">UAS Technikum Wien</text>
<path d="M70290 70540
L70290 71020
L70320 71080
L70350 71100
L70410 71130
L70520 71130
L70570 71100
L70600 71080
L70630 71020
L70630 70540
" />
<path d="M70880 70960
L71160 70960
" />
<path d="M70830 71130
L71020 70540
L71220 71130
" />
<path d="M71390 71100
L71470 71130
L71610 71130
L71670 71100
L71700 71080
L71730 71020
L71730 70960
L71700 70910
L71670 70880
L71610 70850
L71500 70820
L71450 70790
L71420 70770
L71390 70710
L71390 70650
L71420 70600
L71450 70570
L71500 70540
L71640 70540
L71730 70570
" />
<path d="M72340 70540
L72680 70540
" />
<path d="M72510 71130
L72510 70540
" />
<path d="M73100 71100
L73050 71130
L72930 71130
L72880 71100
L72850 71050
L72850 70820
L72880 70770
L72930 70740
L73050 70740
L73100 70770
L73130 70820
L73130 70880
L72850 70940
" />
<path d="M73640 71100
L73580 71130
L73470 71130
L73410 71100
L73380 71080
L73360 71020
L73360 70850
L73380 70790
L73410 70770
L73470 70740
L73580 70740
L73640 70770
" />
<path d="M73890 71130
L73890 70540
" />
<path d="M74140 71130
L74140 70820
L74110 70770
L74060 70740
L73970 70740
L73920 70770
L73890 70790
" />
<path d="M74420 70740
L74420 71130
" />
<path d="M74420 70790
L74450 70770
L74510 70740
L74590 70740
L74650 70770
L74680 70820
L74680 71130
" />
<path d="M74960 71130
L74960 70740
" />
<path d="M74960 70540
L74930 70570
L74960 70600
L74990 70570
L74960 70540
L74960 70600
" />
<path d="M75240 71130
L75240 70540
" />
<path d="M75290 70910
L75460 71130
" />
<path d="M75460 70740
L75240 70960
" />
<path d="M75970 70740
L75970 71130
" />
<path d="M75720 70740
L75720 71050
L75740 71100
L75800 71130
L75880 71130
L75940 71100
L75970 71080
" />
<path d="M76250 71130
L76250 70740
" />
<path d="M76250 70790
L76280 70770
L76330 70740
L76420 70740
L76470 70770
L76500 70820
L76500 71130
" />
<path d="M76500 70820
L76530 70770
L76590 70740
L76670 70740
L76730 70770
L76760 70820
L76760 71130
" />
<path d="M77430 70540
L77570 71130
L77680 70710
L77790 71130
L77940 70540
" />
<path d="M78160 71130
L78160 70740
" />
<path d="M78160 70540
L78130 70570
L78160 70600
L78190 70570
L78160 70540
L78160 70600
" />
<path d="M78670 71100
L78610 71130
L78500 71130
L78440 71100
L78410 71050
L78410 70820
L78440 70770
L78500 70740
L78610 70740
L78670 70770
L78690 70820
L78690 70880
L78410 70940
" />
<path d="M78950 70740
L78950 71130
" />
<path d="M78950 70790
L78970 70770
L79030 70740
L79120 70740
L79170 70770
L79200 70820
L79200 71130
" />
</g>
<g style="fill:#840000; fill-opacity:0.0; 
stroke:#840000; stroke-width:100; stroke-opacity:1; 
stroke-linecap:round; stroke-linejoin:round;">
</g>
<g style="fill:#840000; fill-opacity:0.0; 
stroke:#840000; stroke-width:60; stroke-opacity:1; 
stroke-linecap:round; stroke-linejoin:round;">
<path d="M77560 75400
L77560 76580
" />
</g>
<g style="fill:#840000; fill-opacity:0.0; 
stroke:#840000; stroke-width:100; stroke-opacity:1; 
stroke-linecap:round; stroke-linejoin:round;">
</g>
<g style="fill:#840000; fill-opacity:0.0; 
stroke:#840000; stroke-width:60; stroke-opacity:1; 
stroke-linecap:round; stroke-linejoin:round;">
<path d="M102760 75400
L102760 77960
" />
</g>
<g style="fill:#840000; fill-opacity:0.0; 
stroke:#840000; stroke-width:0; stroke-opacity:1; 
stroke-linecap:round; stroke-linejoin:round;">
<g >
</g>
<g style="fill:#840000; fill-opacity:0.0; 
stroke:#840000; stroke-width:200; stroke-opacity:1; 
stroke-linecap:round; stroke-linejoin:round;">
<path style="fill:#840000; fill-opacity:0.0; 
stroke:#840000; stroke-width:200; stroke-opacity:1; 
stroke-linecap:round; stroke-linejoin:round;fill:none"
d="M 50700,39800
52300,39800
" /> 
<path style="fill:#840000; fill-opacity:0.0; 
stroke:#840000; stroke-width:200; stroke-opacity:1; 
stroke-linecap:round; stroke-linejoin:round;fill:none"
d="M 50700,39200
52300,39200
" /> 
</g>
<g style="fill:#840000; fill-opacity:0.0; 
stroke:#840000; stroke-width:60; stroke-opacity:1; 
stroke-linecap:round; stroke-linejoin:round;">
<path d="M51500 39100
L51500 38000
" />
<path d="M51500 39900
L51500 41000
" />
</g>
<g style="fill:#008484; fill-opacity:0.0; 
stroke:#008484; stroke-width:60; stroke-opacity:1; 
stroke-linecap:round; stroke-linejoin:round;">
<text x="51250" y="38770"
textLength="1610" font-size="660" lengthAdjust="spacingAndGlyphs"
text-anchor="middle" opacity="0">C39</text>
<path d="M50920 38690
L50900 38720
L50830 38740
L50780 38740
L50710 38720
L50660 38670
L50640 38620
L50610 38530
L50610 38460
L50640 38360
L50660 38310
L50710 38270
L50780 38240
L50830 38240
L50900 38270
L50920 38290
" />
<path d="M51090 38240
L51400 38240
L51230 38430
L51300 38430
L51350 38460
L51380 38480
L51400 38530
L51400 38650
L51380 38690
L51350 38720
L51300 38740
L51160 38740
L51110 38720
L51090 38690
" />
<path d="M51640 38740
L51730 38740
L51780 38720
L51800 38690
L51850 38620
L51880 38530
L51880 38340
L51850 38290
L51830 38270
L51780 38240
L51690 38240
L51640 38270
L51610 38290
L51590 38340
L51590 38460
L51610 38500
L51640 38530
L51690 38550
L51780 38550
L51830 38530
L51850 38500
L51880 38460
" />
<text x="50470" y="40770"
textLength="1940" font-size="660" lengthAdjust="spacingAndGlyphs"
text-anchor="middle" opacity="0">100n</text>
<path d="M49910 40740
L49620 40740
" />
<path d="M49760 40740
L49760 40240
L49720 40310
L49670 40360
L49620 40380
" />
<path d="M50220 40240
L50260 40240
L50310 40270
L50330 40290
L50360 40340
L50380 40430
L50380 40550
L50360 40650
L50330 40690
L50310 40720
L50260 40740
L50220 40740
L50170 40720
L50140 40690
L50120 40650
L50100 40550
L50100 40430
L50120 40340
L50140 40290
L50170 40270
L50220 40240
" />
<path d="M50690 40240
L50740 40240
L50790 40270
L50810 40290
L50830 40340
L50860 40430
L50860 40550
L50830 40650
L50810 40690
L50790 40720
L50740 40740
L50690 40740
L50640 40720
L50620 40690
L50600 40650
L50570 40550
L50570 40430
L50600 40340
L50620 40290
L50640 40270
L50690 40240
" />
<path d="M51070 40410
L51070 40740
" />
<path d="M51070 40460
L51100 40430
L51140 40410
L51220 40410
L51260 40430
L51290 40480
L51290 40740
" />
</g>
</g>
<g style="fill:#008484; fill-opacity:0.0; 
stroke:#008484; stroke-width:0; stroke-opacity:1; 
stroke-linecap:round; stroke-linejoin:round;">
<g >
</g>
<g style="fill:#840000; fill-opacity:0.0; 
stroke:#840000; stroke-width:0; stroke-opacity:1; 
stroke-linecap:round; stroke-linejoin:round;">
</g>
<g style="fill:#840000; fill-opacity:0.0; 
stroke:#840000; stroke-width:100; stroke-opacity:1; 
stroke-linecap:round; stroke-linejoin:round;">
<rect x="65600" y="37500" width="800" height="2000" rx="0" />
</g>
<g style="fill:#840000; fill-opacity:0.0; 
stroke:#840000; stroke-width:60; stroke-opacity:1; 
stroke-linecap:round; stroke-linejoin:round;">
<path d="M66000 37500
L66000 37000
" />
<path d="M66000 39500
L66000 40000
" />
</g>
<g style="fill:#008484; fill-opacity:0.0; 
stroke:#008484; stroke-width:60; stroke-opacity:1; 
stroke-linecap:round; stroke-linejoin:round;">
<text x="67450" y="38310"
textLength="1510" font-size="660" lengthAdjust="spacingAndGlyphs"
text-anchor="middle" opacity="0">R23</text>
<path d="M67120 38280
L66960 38040
" />
<path d="M66840 38280
L66840 37780
L67030 37780
L67080 37810
L67100 37830
L67120 37880
L67120 37950
L67100 38000
L67080 38020
L67030 38040
L66840 38040
" />
<path d="M67310 37830
L67340 37810
L67390 37780
L67500 37780
L67550 37810
L67580 37830
L67600 37880
L67600 37920
L67580 38000
L67290 38280
L67600 38280
" />
<path d="M67770 37780
L68080 37780
L67910 37970
L67980 37970
L68030 38000
L68050 38020
L68080 38070
L68080 38190
L68050 38230
L68030 38260
L67980 38280
L67840 38280
L67790 38260
L67770 38230
" />
<text x="67320" y="39220"
textLength="1250" font-size="660" lengthAdjust="spacingAndGlyphs"
text-anchor="middle" opacity="0">0.1</text>
<path d="M66930 38690
L66980 38690
L67030 38720
L67050 38740
L67080 38790
L67100 38880
L67100 39000
L67080 39100
L67050 39140
L67030 39170
L66980 39190
L66930 39190
L66890 39170
L66860 39140
L66840 39100
L66820 39000
L66820 38880
L66840 38790
L66860 38740
L66890 38720
L66930 38690
" />
<path d="M67320 39140
L67340 39170
L67320 39190
L67290 39170
L67320 39140
L67320 39190
" />
<path d="M67820 39190
L67530 39190
" />
<path d="M67670 39190
L67670 38690
L67620 38760
L67580 38810
L67530 38830
" />
</g>
</g>
<g style="fill:#008484; fill-opacity:0.0; 
stroke:#008484; stroke-width:0; stroke-opacity:1; 
stroke-linecap:round; stroke-linejoin:round;">
<g >
</g>
<g style="fill:#840000; fill-opacity:0.0; 
stroke:#840000; stroke-width:0; stroke-opacity:1; 
stroke-linecap:round; stroke-linejoin:round;">
</g>
<g style="fill:#840000; fill-opacity:0.0; 
stroke:#840000; stroke-width:60; stroke-opacity:1; 
stroke-linecap:round; stroke-linejoin:round;">
<path style="fill:#840000; fill-opacity:0.0; 
stroke:#840000; stroke-width:60; stroke-opacity:1; 
stroke-linecap:round; stroke-linejoin:round;fill:none"
d="M 54500,42000
54500,42500
55000,42500
54500,43000
54000,42500
54500,42500
" /> 
</g>
<g style="fill:#008484; fill-opacity:0.0; 
stroke:#008484; stroke-width:60; stroke-opacity:1; 
stroke-linecap:round; stroke-linejoin:round;">
<text x="54500" y="43770"
textLength="1580" font-size="660" lengthAdjust="spacingAndGlyphs"
text-anchor="middle" opacity="0">GND</text>
<path d="M54110 43270
L54070 43240
L54000 43240
L53920 43270
L53880 43310
L53850 43360
L53830 43460
L53830 43530
L53850 43620
L53880 43670
L53920 43720
L54000 43740
L54040 43740
L54110 43720
L54140 43690
L54140 43530
L54040 43530
" />
<path d="M54350 43740
L54350 43240
L54640 43740
L54640 43240
" />
<path d="M54880 43740
L54880 43240
L55000 43240
L55070 43270
L55110 43310
L55140 43360
L55160 43460
L55160 43530
L55140 43620
L55110 43670
L55070 43720
L55000 43740
L54880 43740
" />
</g>
</g>
<g style="fill:#008484; fill-opacity:0.0; 
stroke:#008484; stroke-width:0; stroke-opacity:1; 
stroke-linecap:round; stroke-linejoin:round;">
<g >
</g>
<g style="fill:#840000; fill-opacity:0.0; 
stroke:#840000; stroke-width:0; stroke-opacity:1; 
stroke-linecap:round; stroke-linejoin:round;">
</g>
<g style="fill:#840000; fill-opacity:0.0; 
stroke:#840000; stroke-width:60; stroke-opacity:1; 
stroke-linecap:round; stroke-linejoin:round;">
<path style="fill:#840000; fill-opacity:0.0; 
stroke:#840000; stroke-width:60; stroke-opacity:1; 
stroke-linecap:round; stroke-linejoin:round;fill:none"
d="M 51500,42000
51500,42500
52000,42500
51500,43000
51000,42500
51500,42500
" /> 
</g>
<g style="fill:#008484; fill-opacity:0.0; 
stroke:#008484; stroke-width:60; stroke-opacity:1; 
stroke-linecap:round; stroke-linejoin:round;">
<text x="51500" y="43770"
textLength="1580" font-size="660" lengthAdjust="spacingAndGlyphs"
text-anchor="middle" opacity="0">GND</text>
<path d="M51110 43270
L51070 43240
L51000 43240
L50920 43270
L50880 43310
L50850 43360
L50830 43460
L50830 43530
L50850 43620
L50880 43670
L50920 43720
L51000 43740
L51040 43740
L51110 43720
L51140 43690
L51140 43530
L51040 43530
" />
<path d="M51350 43740
L51350 43240
L51640 43740
L51640 43240
" />
<path d="M51880 43740
L51880 43240
L52000 43240
L52070 43270
L52110 43310
L52140 43360
L52160 43460
L52160 43530
L52140 43620
L52110 43670
L52070 43720
L52000 43740
L51880 43740
" />
</g>
</g>
<g style="fill:#008484; fill-opacity:0.0; 
stroke:#008484; stroke-width:0; stroke-opacity:1; 
stroke-linecap:round; stroke-linejoin:round;">
<g >
</g>
<g style="fill:#840000; fill-opacity:0.0; 
stroke:#840000; stroke-width:0; stroke-opacity:1; 
stroke-linecap:round; stroke-linejoin:round;">
</g>
<g style="fill:#840000; fill-opacity:0.0; 
stroke:#840000; stroke-width:60; stroke-opacity:1; 
stroke-linecap:round; stroke-linejoin:round;">
<rect x="57000" y="36500" width="6000" height="7000" rx="0" />
<path d="M63000 38000
L64000 38000
" />
</g>
<g style="fill:#008484; fill-opacity:0.0; 
stroke:#008484; stroke-width:60; stroke-opacity:1; 
stroke-linecap:round; stroke-linejoin:round;">
<text x="62600" y="38250"
textLength="1870" font-size="660" lengthAdjust="spacingAndGlyphs"
text-anchor="end" opacity="0">VIN+</text>
<path d="M60800 37720
L60970 38220
L61140 37720
" />
<path d="M61300 38220
L61300 37720
" />
<path d="M61540 38220
L61540 37720
L61830 38220
L61830 37720
" />
<path d="M62070 38030
L62450 38030
" />
<path d="M62260 38220
L62260 37840
" />
</g>
<g style="fill:#840000; fill-opacity:0.0; 
stroke:#840000; stroke-width:60; stroke-opacity:1; 
stroke-linecap:round; stroke-linejoin:round;">
<text x="63500" y="37900"
textLength="540" font-size="660" lengthAdjust="spacingAndGlyphs"
text-anchor="middle" opacity="0">1</text>
<path d="M63640 37870
L63350 37870
" />
<path d="M63500 37870
L63500 37370
L63450 37440
L63400 37490
L63350 37510
" />
<path d="M63000 40000
L64000 40000
" />
</g>
<g style="fill:#008484; fill-opacity:0.0; 
stroke:#008484; stroke-width:60; stroke-opacity:1; 
stroke-linecap:round; stroke-linejoin:round;">
<text x="62600" y="40250"
textLength="1870" font-size="660" lengthAdjust="spacingAndGlyphs"
text-anchor="end" opacity="0">VIN-</text>
<path d="M60800 39720
L60970 40220
L61140 39720
" />
<path d="M61300 40220
L61300 39720
" />
<path d="M61540 40220
L61540 39720
L61830 40220
L61830 39720
" />
<path d="M62070 40030
L62450 40030
" />
</g>
<g style="fill:#840000; fill-opacity:0.0; 
stroke:#840000; stroke-width:60; stroke-opacity:1; 
stroke-linecap:round; stroke-linejoin:round;">
<text x="63500" y="39900"
textLength="540" font-size="660" lengthAdjust="spacingAndGlyphs"
text-anchor="middle" opacity="0">2</text>
<path d="M63350 39420
L63380 39400
L63420 39370
L63540 39370
L63590 39400
L63610 39420
L63640 39470
L63640 39510
L63610 39590
L63330 39870
L63640 39870
" />
<path d="M63000 42000
L64000 42000
" />
</g>
<g style="fill:#008484; fill-opacity:0.0; 
stroke:#008484; stroke-width:60; stroke-opacity:1; 
stroke-linecap:round; stroke-linejoin:round;">
<text x="62600" y="42250"
textLength="1580" font-size="660" lengthAdjust="spacingAndGlyphs"
text-anchor="end" opacity="0">GND</text>
<path d="M61420 41750
L61370 41720
L61300 41720
L61230 41750
L61180 41790
L61160 41840
L61140 41940
L61140 42010
L61160 42100
L61180 42150
L61230 42200
L61300 42220
L61350 42220
L61420 42200
L61450 42170
L61450 42010
L61350 42010
" />
<path d="M61660 42220
L61660 41720
L61950 42220
L61950 41720
" />
<path d="M62180 42220
L62180 41720
L62300 41720
L62370 41750
L62420 41790
L62450 41840
L62470 41940
L62470 42010
L62450 42100
L62420 42150
L62370 42200
L62300 42220
L62180 42220
" />
</g>
<g style="fill:#840000; fill-opacity:0.0; 
stroke:#840000; stroke-width:60; stroke-opacity:1; 
stroke-linecap:round; stroke-linejoin:round;">
<text x="63500" y="41900"
textLength="540" font-size="660" lengthAdjust="spacingAndGlyphs"
text-anchor="middle" opacity="0">3</text>
<path d="M63330 41370
L63640 41370
L63470 41560
L63540 41560
L63590 41590
L63610 41610
L63640 41660
L63640 41780
L63610 41820
L63590 41850
L63540 41870
L63400 41870
L63350 41850
L63330 41820
" />
<path d="M57000 37000
L56000 37000
" />
</g>
<g style="fill:#008484; fill-opacity:0.0; 
stroke:#008484; stroke-width:60; stroke-opacity:1; 
stroke-linecap:round; stroke-linejoin:round;">
<text x="57400" y="37250"
textLength="1490" font-size="660" lengthAdjust="spacingAndGlyphs"
text-anchor="start" opacity="0">VCC</text>
<path d="M57470 36720
L57640 37220
L57810 36720
" />
<path d="M58260 37170
L58230 37200
L58160 37220
L58120 37220
L58040 37200
L58000 37150
L57970 37100
L57950 37010
L57950 36940
L57970 36840
L58000 36790
L58040 36750
L58120 36720
L58160 36720
L58230 36750
L58260 36770
" />
<path d="M58760 37170
L58730 37200
L58660 37220
L58620 37220
L58540 37200
L58500 37150
L58470 37100
L58450 37010
L58450 36940
L58470 36840
L58500 36790
L58540 36750
L58620 36720
L58660 36720
L58730 36750
L58760 36770
" />
</g>
<g style="fill:#840000; fill-opacity:0.0; 
stroke:#840000; stroke-width:60; stroke-opacity:1; 
stroke-linecap:round; stroke-linejoin:round;">
<text x="56500" y="36900"
textLength="540" font-size="660" lengthAdjust="spacingAndGlyphs"
text-anchor="middle" opacity="0">4</text>
<path d="M56590 36540
L56590 36870
" />
<path d="M56470 36350
L56350 36700
L56660 36700
" />
<path d="M57000 40000
L56000 40000
" />
</g>
<g style="fill:#008484; fill-opacity:0.0; 
stroke:#008484; stroke-width:60; stroke-opacity:1; 
stroke-linecap:round; stroke-linejoin:round;">
<text x="57400" y="40250"
textLength="1440" font-size="660" lengthAdjust="spacingAndGlyphs"
text-anchor="start" opacity="0">SCL</text>
<path d="M57520 40200
L57590 40220
L57710 40220
L57760 40200
L57780 40170
L57810 40130
L57810 40080
L57780 40030
L57760 40010
L57710 39980
L57620 39960
L57570 39940
L57540 39910
L57520 39860
L57520 39820
L57540 39770
L57570 39750
L57620 39720
L57730 39720
L57810 39750
" />
<path d="M58310 40170
L58280 40200
L58210 40220
L58160 40220
L58090 40200
L58040 40150
L58020 40100
L58000 40010
L58000 39940
L58020 39840
L58040 39790
L58090 39750
L58160 39720
L58210 39720
L58280 39750
L58310 39770
" />
<path d="M58760 40220
L58520 40220
L58520 39720
" />
</g>
<g style="fill:#840000; fill-opacity:0.0; 
stroke:#840000; stroke-width:60; stroke-opacity:1; 
stroke-linecap:round; stroke-linejoin:round;">
<text x="56500" y="39900"
textLength="540" font-size="660" lengthAdjust="spacingAndGlyphs"
text-anchor="middle" opacity="0">5</text>
<path d="M56610 39370
L56380 39370
L56350 39610
L56380 39590
L56420 39560
L56540 39560
L56590 39590
L56610 39610
L56640 39660
L56640 39780
L56610 39820
L56590 39850
L56540 39870
L56420 39870
L56380 39850
L56350 39820
" />
<path d="M57000 39000
L56000 39000
" />
</g>
<g style="fill:#008484; fill-opacity:0.0; 
stroke:#008484; stroke-width:60; stroke-opacity:1; 
stroke-linecap:round; stroke-linejoin:round;">
<text x="57400" y="39250"
textLength="1460" font-size="660" lengthAdjust="spacingAndGlyphs"
text-anchor="start" opacity="0">SDA</text>
<path d="M57520 39200
L57590 39220
L57710 39220
L57760 39200
L57780 39170
L57810 39130
L57810 39080
L57780 39030
L57760 39010
L57710 38980
L57620 38960
L57570 38940
L57540 38910
L57520 38860
L57520 38820
L57540 38770
L57570 38750
L57620 38720
L57730 38720
L57810 38750
" />
<path d="M58020 39220
L58020 38720
L58140 38720
L58210 38750
L58260 38790
L58280 38840
L58310 38940
L58310 39010
L58280 39100
L58260 39150
L58210 39200
L58140 39220
L58020 39220
" />
<path d="M58500 39080
L58730 39080
" />
<path d="M58450 39220
L58620 38720
L58780 39220
" />
</g>
<g style="fill:#840000; fill-opacity:0.0; 
stroke:#840000; stroke-width:60; stroke-opacity:1; 
stroke-linecap:round; stroke-linejoin:round;">
<text x="56500" y="38900"
textLength="540" font-size="660" lengthAdjust="spacingAndGlyphs"
text-anchor="middle" opacity="0">6</text>
<path d="M56590 38370
L56500 38370
L56450 38400
L56420 38420
L56380 38490
L56350 38590
L56350 38780
L56380 38820
L56400 38850
L56450 38870
L56540 38870
L56590 38850
L56610 38820
L56640 38780
L56640 38660
L56610 38610
L56590 38590
L56540 38560
L56450 38560
L56400 38590
L56380 38610
L56350 38660
" />
<path d="M57000 42000
L56000 42000
" />
</g>
<g style="fill:#008484; fill-opacity:0.0; 
stroke:#008484; stroke-width:60; stroke-opacity:1; 
stroke-linecap:round; stroke-linejoin:round;">
<text x="57400" y="42250"
textLength="960" font-size="660" lengthAdjust="spacingAndGlyphs"
text-anchor="start" opacity="0">A0</text>
<path d="M57520 42080
L57760 42080
" />
<path d="M57470 42220
L57640 41720
L57810 42220
" />
<path d="M58070 41720
L58120 41720
L58160 41750
L58190 41770
L58210 41820
L58230 41910
L58230 42030
L58210 42130
L58190 42170
L58160 42200
L58120 42220
L58070 42220
L58020 42200
L58000 42170
L57970 42130
L57950 42030
L57950 41910
L57970 41820
L58000 41770
L58020 41750
L58070 41720
" />
</g>
<g style="fill:#840000; fill-opacity:0.0; 
stroke:#840000; stroke-width:60; stroke-opacity:1; 
stroke-linecap:round; stroke-linejoin:round;">
<text x="56500" y="41900"
textLength="540" font-size="660" lengthAdjust="spacingAndGlyphs"
text-anchor="middle" opacity="0">7</text>
<path d="M56330 41370
L56660 41370
L56450 41870
" />
<path d="M57000 43000
L56000 43000
" />
</g>
<g style="fill:#008484; fill-opacity:0.0; 
stroke:#008484; stroke-width:60; stroke-opacity:1; 
stroke-linecap:round; stroke-linejoin:round;">
<text x="57400" y="43250"
textLength="960" font-size="660" lengthAdjust="spacingAndGlyphs"
text-anchor="start" opacity="0">A1</text>
<path d="M57520 43080
L57760 43080
" />
<path d="M57470 43220
L57640 42720
L57810 43220
" />
<path d="M58230 43220
L57950 43220
" />
<path d="M58090 43220
L58090 42720
L58040 42790
L58000 42840
L57950 42860
" />
</g>
<g style="fill:#840000; fill-opacity:0.0; 
stroke:#840000; stroke-width:60; stroke-opacity:1; 
stroke-linecap:round; stroke-linejoin:round;">
<text x="56500" y="42900"
textLength="540" font-size="660" lengthAdjust="spacingAndGlyphs"
text-anchor="middle" opacity="0">8</text>
<path d="M56450 42590
L56400 42560
L56380 42540
L56350 42490
L56350 42470
L56380 42420
L56400 42400
L56450 42370
L56540 42370
L56590 42400
L56610 42420
L56640 42470
L56640 42490
L56610 42540
L56590 42560
L56540 42590
L56450 42590
L56400 42610
L56380 42630
L56350 42680
L56350 42780
L56380 42820
L56400 42850
L56450 42870
L56540 42870
L56590 42850
L56610 42820
L56640 42780
L56640 42680
L56610 42630
L56590 42610
L56540 42590
" />
</g>
<g style="fill:#008484; fill-opacity:0.0; 
stroke:#008484; stroke-width:60; stroke-opacity:1; 
stroke-linecap:round; stroke-linejoin:round;">
<text x="60000" y="34860"
textLength="1830" font-size="800" lengthAdjust="spacingAndGlyphs"
text-anchor="middle" opacity="0">U12</text>
<path d="M59250 34230
L59250 34710
L59280 34770
L59310 34800
L59370 34830
L59480 34830
L59540 34800
L59570 34770
L59600 34710
L59600 34230
" />
<path d="M60200 34830
L59850 34830
" />
<path d="M60020 34830
L60020 34230
L59970 34310
L59910 34370
L59850 34400
" />
<path d="M60420 34280
L60450 34260
L60510 34230
L60650 34230
L60710 34260
L60740 34280
L60770 34340
L60770 34400
L60740 34480
L60400 34830
L60770 34830
" />
<text x="60000" y="35920"
textLength="3200" font-size="800" lengthAdjust="spacingAndGlyphs"
text-anchor="middle" opacity="0">INA219</text>
<path d="M58570 35890
L58570 35290
" />
<path d="M58850 35890
L58850 35290
L59200 35890
L59200 35290
" />
<path d="M59450 35720
L59740 35720
" />
<path d="M59400 35890
L59600 35290
L59800 35890
" />
<path d="M59970 35340
L60000 35320
L60050 35290
L60200 35290
L60250 35320
L60280 35340
L60310 35400
L60310 35460
L60280 35540
L59940 35890
L60310 35890
" />
<path d="M60880 35890
L60540 35890
" />
<path d="M60710 35890
L60710 35290
L60650 35370
L60600 35430
L60540 35460
" />
<path d="M61170 35890
L61280 35890
L61340 35860
L61370 35830
L61420 35740
L61450 35630
L61450 35400
L61420 35340
L61400 35320
L61340 35290
L61220 35290
L61170 35320
L61140 35340
L61110 35400
L61110 35540
L61140 35600
L61170 35630
L61220 35660
L61340 35660
L61400 35630
L61420 35600
L61450 35540
" />
</g>
</g>
<g style="fill:#008484; fill-opacity:0.0; 
stroke:#008484; stroke-width:0; stroke-opacity:1; 
stroke-linecap:round; stroke-linejoin:round;">
<g >
</g>
<g style="fill:#840000; fill-opacity:0.0; 
stroke:#840000; stroke-width:0; stroke-opacity:1; 
stroke-linecap:round; stroke-linejoin:round;">
</g>
<g style="fill:#840000; fill-opacity:0.0; 
stroke:#840000; stroke-width:60; stroke-opacity:1; 
stroke-linecap:round; stroke-linejoin:round;">
<path style="fill:#840000; fill-opacity:0.0; 
stroke:#840000; stroke-width:60; stroke-opacity:1; 
stroke-linecap:round; stroke-linejoin:round;fill:none"
d="M 65000,42000
65000,42500
65500,42500
65000,43000
64500,42500
65000,42500
" /> 
</g>
<g style="fill:#008484; fill-opacity:0.0; 
stroke:#008484; stroke-width:60; stroke-opacity:1; 
stroke-linecap:round; stroke-linejoin:round;">
<text x="65000" y="43770"
textLength="1580" font-size="660" lengthAdjust="spacingAndGlyphs"
text-anchor="middle" opacity="0">GND</text>
<path d="M64610 43270
L64570 43240
L64500 43240
L64420 43270
L64380 43310
L64350 43360
L64330 43460
L64330 43530
L64350 43620
L64380 43670
L64420 43720
L64500 43740
L64540 43740
L64610 43720
L64640 43690
L64640 43530
L64540 43530
" />
<path d="M64850 43740
L64850 43240
L65140 43740
L65140 43240
" />
<path d="M65380 43740
L65380 43240
L65500 43240
L65570 43270
L65610 43310
L65640 43360
L65660 43460
L65660 43530
L65640 43620
L65610 43670
L65570 43720
L65500 43740
L65380 43740
" />
</g>
</g>
<g style="fill:#008484; fill-opacity:0.0; 
stroke:#008484; stroke-width:0; stroke-opacity:1; 
stroke-linecap:round; stroke-linejoin:round;">
<g >
</g>
<g style="fill:#840000; fill-opacity:0.0; 
stroke:#840000; stroke-width:0; stroke-opacity:1; 
stroke-linecap:round; stroke-linejoin:round;">
</g>
<g style="fill:#840000; fill-opacity:0.0; 
stroke:#840000; stroke-width:60; stroke-opacity:1; 
stroke-linecap:round; stroke-linejoin:round;">
<path style="fill:#840000; fill-opacity:0.0; 
stroke:#840000; stroke-width:60; stroke-opacity:1; 
stroke-linecap:round; stroke-linejoin:round;fill:none"
d="M 51200,36500
51500,36000
" /> 
<path style="fill:#840000; fill-opacity:0.0; 
stroke:#840000; stroke-width:60; stroke-opacity:1; 
stroke-linecap:round; stroke-linejoin:round;fill:none"
d="M 51500,37000
51500,36000
" /> 
<path style="fill:#840000; fill-opacity:0.0; 
stroke:#840000; stroke-width:60; stroke-opacity:1; 
stroke-linecap:round; stroke-linejoin:round;fill:none"
d="M 51500,36000
51800,36500
" /> 
</g>
<g style="fill:#008484; fill-opacity:0.0; 
stroke:#008484; stroke-width:60; stroke-opacity:1; 
stroke-linecap:round; stroke-linejoin:round;">
<text x="51500" y="35770"
textLength="1580" font-size="660" lengthAdjust="spacingAndGlyphs"
text-anchor="middle" opacity="0">+5V</text>
<path d="M50850 35550
L51230 35550
" />
<path d="M51040 35740
L51040 35360
" />
<path d="M51710 35240
L51470 35240
L51450 35480
L51470 35460
L51520 35430
L51640 35430
L51690 35460
L51710 35480
L51730 35530
L51730 35650
L51710 35690
L51690 35720
L51640 35740
L51520 35740
L51470 35720
L51450 35690
" />
<path d="M51880 35240
L52040 35740
L52210 35240
" />
</g>
</g>
<g style="fill:#008484; fill-opacity:0.0; 
stroke:#008484; stroke-width:60; stroke-opacity:1; 
stroke-linecap:round; stroke-linejoin:round;">
</g>
<g style="fill:#008400; fill-opacity:0.0; 
stroke:#008400; stroke-width:60; stroke-opacity:1; 
stroke-linecap:round; stroke-linejoin:round;">
<path d="M51500 37000
L56000 37000
" />
<path d="M50000 37000
L51500 37000
" />
<path d="M51500 42000
L51500 41000
" />
<path d="M51500 38000
L51500 37000
" />
<path d="M66000 37000
L68000 37000
" />
<path d="M65000 37000
L66000 37000
" />
<path d="M65000 38000
L65000 37000
" />
<path d="M64000 38000
L65000 38000
" />
<path d="M66000 40000
L68000 40000
" />
<path d="M64000 40000
L66000 40000
" />
<path d="M56000 42000
L54500 42000
" />
<path d="M56000 43000
L56000 42000
" />
<path d="M65000 42000
L66000 42000
" />
<path d="M64000 42000
L65000 42000
" />
<path d="M55000 40000
L56000 40000
" />
<path d="M55000 39000
L56000 39000
" />
</g>
<g style="fill:#848400; fill-opacity:0.0; 
stroke:#848400; stroke-width:60; stroke-opacity:1; 
stroke-linecap:round; stroke-linejoin:round;">
<text x="66600" y="42250"
textLength="1580" font-size="660" lengthAdjust="spacingAndGlyphs"
text-anchor="start" opacity="0">GND</text>
<path d="M67010 41750
L66960 41720
L66890 41720
L66820 41750
L66770 41790
L66740 41840
L66720 41940
L66720 42010
L66740 42100
L66770 42150
L66820 42200
L66890 42220
L66930 42220
L67010 42200
L67030 42170
L67030 42010
L66930 42010
" />
<path d="M67240 42220
L67240 41720
L67530 42220
L67530 41720
" />
<path d="M67770 42220
L67770 41720
L67890 41720
L67960 41750
L68010 41790
L68030 41840
L68050 41940
L68050 42010
L68030 42100
L68010 42150
L67960 42200
L67890 42220
L67770 42220
" />
</g>
<g style="fill:#848400; fill-opacity:0.0; 
stroke:#848400; stroke-width:100; stroke-opacity:1; 
stroke-linecap:round; stroke-linejoin:round;">
<path style="fill:#848400; fill-opacity:0.0; 
stroke:#848400; stroke-width:100; stroke-opacity:1; 
stroke-linecap:round; stroke-linejoin:round;fill:none"
d="M 66000,42000
66250,42250
66500,42250
66500,41750
66250,41750
Z" /> 
</g>
<g style="fill:#848400; fill-opacity:0.0; 
stroke:#848400; stroke-width:60; stroke-opacity:1; 
stroke-linecap:round; stroke-linejoin:round;">
<text x="68600" y="40250"
textLength="1870" font-size="660" lengthAdjust="spacingAndGlyphs"
text-anchor="start" opacity="0">VIN-</text>
<path d="M68670 39720
L68840 40220
L69010 39720
" />
<path d="M69170 40220
L69170 39720
" />
<path d="M69410 40220
L69410 39720
L69700 40220
L69700 39720
" />
<path d="M69930 40030
L70320 40030
" />
</g>
<g style="fill:#848400; fill-opacity:0.0; 
stroke:#848400; stroke-width:100; stroke-opacity:1; 
stroke-linecap:round; stroke-linejoin:round;">
<path style="fill:#848400; fill-opacity:0.0; 
stroke:#848400; stroke-width:100; stroke-opacity:1; 
stroke-linecap:round; stroke-linejoin:round;fill:none"
d="M 68000,40000
68250,40250
68500,40250
68500,39750
68250,39750
Z" /> 
</g>
<g style="fill:#848400; fill-opacity:0.0; 
stroke:#848400; stroke-width:60; stroke-opacity:1; 
stroke-linecap:round; stroke-linejoin:round;">
<text x="68600" y="37250"
textLength="1870" font-size="660" lengthAdjust="spacingAndGlyphs"
text-anchor="start" opacity="0">VIN+</text>
<path d="M68670 36720
L68840 37220
L69010 36720
" />
<path d="M69170 37220
L69170 36720
" />
<path d="M69410 37220
L69410 36720
L69700 37220
L69700 36720
" />
<path d="M69930 37030
L70320 37030
" />
<path d="M70130 37220
L70130 36840
" />
</g>
<g style="fill:#848400; fill-opacity:0.0; 
stroke:#848400; stroke-width:100; stroke-opacity:1; 
stroke-linecap:round; stroke-linejoin:round;">
<path style="fill:#848400; fill-opacity:0.0; 
stroke:#848400; stroke-width:100; stroke-opacity:1; 
stroke-linecap:round; stroke-linejoin:round;fill:none"
d="M 68000,37000
68250,37250
68500,37250
68500,36750
68250,36750
Z" /> 
</g>
<g style="fill:#848400; fill-opacity:0.0; 
stroke:#848400; stroke-width:60; stroke-opacity:1; 
stroke-linecap:round; stroke-linejoin:round;">
<text x="49400" y="37250"
textLength="1490" font-size="660" lengthAdjust="spacingAndGlyphs"
text-anchor="end" opacity="0">VCC</text>
<path d="M47980 36720
L48150 37220
L48320 36720
" />
<path d="M48770 37170
L48750 37200
L48670 37220
L48630 37220
L48560 37200
L48510 37150
L48480 37100
L48460 37010
L48460 36940
L48480 36840
L48510 36790
L48560 36750
L48630 36720
L48670 36720
L48750 36750
L48770 36770
" />
<path d="M49270 37170
L49250 37200
L49170 37220
L49130 37220
L49060 37200
L49010 37150
L48980 37100
L48960 37010
L48960 36940
L48980 36840
L49010 36790
L49060 36750
L49130 36720
L49170 36720
L49250 36750
L49270 36770
" />
</g>
<g style="fill:#848400; fill-opacity:0.0; 
stroke:#848400; stroke-width:100; stroke-opacity:1; 
stroke-linecap:round; stroke-linejoin:round;">
<path style="fill:#848400; fill-opacity:0.0; 
stroke:#848400; stroke-width:100; stroke-opacity:1; 
stroke-linecap:round; stroke-linejoin:round;fill:none"
d="M 50000,37000
49750,36750
49500,36750
49500,37250
49750,37250
Z" /> 
</g>
<g style="fill:#848400; fill-opacity:0.0; 
stroke:#848400; stroke-width:60; stroke-opacity:1; 
stroke-linecap:round; stroke-linejoin:round;">
<text x="54400" y="39250"
textLength="1460" font-size="660" lengthAdjust="spacingAndGlyphs"
text-anchor="end" opacity="0">SDA</text>
<path d="M53060 39200
L53130 39220
L53250 39220
L53290 39200
L53320 39170
L53340 39130
L53340 39080
L53320 39030
L53290 39010
L53250 38980
L53150 38960
L53100 38940
L53080 38910
L53060 38860
L53060 38820
L53080 38770
L53100 38750
L53150 38720
L53270 38720
L53340 38750
" />
<path d="M53560 39220
L53560 38720
L53670 38720
L53750 38750
L53790 38790
L53820 38840
L53840 38940
L53840 39010
L53820 39100
L53790 39150
L53750 39200
L53670 39220
L53560 39220
" />
<path d="M54030 39080
L54270 39080
" />
<path d="M53980 39220
L54150 38720
L54320 39220
" />
</g>
<g style="fill:#848400; fill-opacity:0.0; 
stroke:#848400; stroke-width:100; stroke-opacity:1; 
stroke-linecap:round; stroke-linejoin:round;">
<path style="fill:#848400; fill-opacity:0.0; 
stroke:#848400; stroke-width:100; stroke-opacity:1; 
stroke-linecap:round; stroke-linejoin:round;fill:none"
d="M 55000,39000
54750,38750
54500,38750
54500,39250
54750,39250
Z" /> 
</g>
<g style="fill:#848400; fill-opacity:0.0; 
stroke:#848400; stroke-width:60; stroke-opacity:1; 
stroke-linecap:round; stroke-linejoin:round;">
<text x="54400" y="40250"
textLength="1440" font-size="660" lengthAdjust="spacingAndGlyphs"
text-anchor="end" opacity="0">SCL</text>
<path d="M53080 40200
L53150 40220
L53270 40220
L53320 40200
L53340 40170
L53370 40130
L53370 40080
L53340 40030
L53320 40010
L53270 39980
L53170 39960
L53130 39940
L53100 39910
L53080 39860
L53080 39820
L53100 39770
L53130 39750
L53170 39720
L53290 39720
L53370 39750
" />
<path d="M53870 40170
L53840 40200
L53770 40220
L53720 40220
L53650 40200
L53600 40150
L53580 40100
L53560 40010
L53560 39940
L53580 39840
L53600 39790
L53650 39750
L53720 39720
L53770 39720
L53840 39750
L53870 39770
" />
<path d="M54320 40220
L54080 40220
L54080 39720
" />
</g>
<g style="fill:#848400; fill-opacity:0.0; 
stroke:#848400; stroke-width:100; stroke-opacity:1; 
stroke-linecap:round; stroke-linejoin:round;">
<path style="fill:#848400; fill-opacity:0.0; 
stroke:#848400; stroke-width:100; stroke-opacity:1; 
stroke-linecap:round; stroke-linejoin:round;fill:none"
d="M 55000,40000
54750,39750
54500,39750
54500,40250
54750,40250
Z" /> 
</g>
<g style="fill:#848400; fill-opacity:0.0; 
stroke:#848400; stroke-width:60; stroke-opacity:1; 
stroke-linecap:round; stroke-linejoin:round;">
</g>
<g style="fill:#0000C2; fill-opacity:0.0; 
stroke:#0000C2; stroke-width:60; stroke-opacity:1; 
stroke-linecap:round; stroke-linejoin:round;">
<text x="65000" y="36400"
textLength="2890" font-size="660" lengthAdjust="spacingAndGlyphs"
text-anchor="start" opacity="0">2512FK</text>
<path d="M65120 35920
L65140 35900
L65190 35870
L65310 35870
L65360 35900
L65380 35920
L65410 35970
L65410 36010
L65380 36090
L65100 36370
L65410 36370
" />
<path d="M65860 35870
L65620 35870
L65600 36110
L65620 36090
L65670 36060
L65790 36060
L65830 36090
L65860 36110
L65880 36160
L65880 36280
L65860 36320
L65830 36350
L65790 36370
L65670 36370
L65620 36350
L65600 36320
" />
<path d="M66360 36370
L66070 36370
" />
<path d="M66220 36370
L66220 35870
L66170 35940
L66120 35990
L66070 36010
" />
<path d="M66550 35920
L66570 35900
L66620 35870
L66740 35870
L66790 35900
L66810 35920
L66830 35970
L66830 36010
L66810 36090
L66530 36370
L66830 36370
" />
<path d="M67220 36110
L67050 36110
" />
<path d="M67050 36370
L67050 35870
L67290 35870
" />
<path d="M67480 36370
L67480 35870
" />
<path d="M67760 36370
L67550 36090
" />
<path d="M67760 35870
L67480 36160
" />
</g>
<g style="fill:#0000C2; fill-opacity:0.0; 
stroke:#0000C2; stroke-width:0; stroke-opacity:1; 
stroke-linecap:round; stroke-linejoin:round;">
</g>
<g style="fill:#008400; fill-opacity:0.0; 
stroke:#008400; stroke-width:0; stroke-opacity:1; 
stroke-linecap:round; stroke-linejoin:round;">
</g>
<g style="fill:#008400; fill-opacity:1.0; 
stroke:#008400; stroke-width:100; stroke-opacity:1; 
stroke-linecap:round; stroke-linejoin:round;">
<circle cx="66000" cy="37000" r="200" /> 
</g>
<g style="fill:#008400; fill-opacity:1.0; 
stroke:#008400; stroke-width:0; stroke-opacity:1; 
stroke-linecap:round; stroke-linejoin:round;">
</g>
<g style="fill:#008400; fill-opacity:1.0; 
stroke:#008400; stroke-width:100; stroke-opacity:1; 
stroke-linecap:round; stroke-linejoin:round;">
<circle cx="66000" cy="40000" r="200" /> 
</g>
<g style="fill:#008400; fill-opacity:1.0; 
stroke:#008400; stroke-width:0; stroke-opacity:1; 
stroke-linecap:round; stroke-linejoin:round;">
</g>
<g style="fill:#008400; fill-opacity:1.0; 
stroke:#008400; stroke-width:100; stroke-opacity:1; 
stroke-linecap:round; stroke-linejoin:round;">
<circle cx="65000" cy="42000" r="200" /> 
</g>
<g style="fill:#008400; fill-opacity:1.0; 
stroke:#008400; stroke-width:0; stroke-opacity:1; 
stroke-linecap:round; stroke-linejoin:round;">
</g>
<g style="fill:#008400; fill-opacity:1.0; 
stroke:#008400; stroke-width:100; stroke-opacity:1; 
stroke-linecap:round; stroke-linejoin:round;">
<circle cx="51500" cy="37000" r="200" /> 
</g>
<g style="fill:#008400; fill-opacity:1.0; 
stroke:#008400; stroke-width:0; stroke-opacity:1; 
stroke-linecap:round; stroke-linejoin:round;">
</g>
<g style="fill:#008400; fill-opacity:1.0; 
stroke:#008400; stroke-width:100; stroke-opacity:1; 
stroke-linecap:round; stroke-linejoin:round;">
<circle cx="56000" cy="42000" r="200" /> 
</g> 
</svg>
