<?xml version="1.0" standalone="no"?>
 <!DOCTYPE svg PUBLIC "-//W3C//DTD SVG 1.1//EN" 
 "http://www.w3.org/Graphics/SVG/1.1/DTD/svg11.dtd"> 
<svg
  xmlns:svg="http://www.w3.org/2000/svg"
  xmlns="http://www.w3.org/2000/svg"
  xmlns:xlink="http://www.w3.org/1999/xlink"
  version="1.1"
  width="29.700220cm" height="21.000720cm" viewBox="0 0 116930 82680">
<title>SVG Picture created as shifter_2-Shift UART.svg date 2021/03/24 14:45:31 </title>
  <desc>Picture generated by Eeschema-SVG </desc>
<g style="fill:#000000; fill-opacity:1;stroke:#000000; stroke-opacity:1;
stroke-linecap:round; stroke-linejoin:round;"
 transform="translate(0 0) scale(1 1)">
</g>
<g style="fill:#000000; fill-opacity:0.0; 
stroke:#000000; stroke-width:-10; stroke-opacity:1; 
stroke-linecap:round; stroke-linejoin:round;">
</g>
<g style="fill:#840000; fill-opacity:0.0; 
stroke:#840000; stroke-width:-10; stroke-opacity:1; 
stroke-linecap:round; stroke-linejoin:round;">
</g>
<g style="fill:#840000; fill-opacity:0.0; 
stroke:#840000; stroke-width:100; stroke-opacity:1; 
stroke-linecap:round; stroke-linejoin:round;">
</g>
<g style="fill:#840000; fill-opacity:0.0; 
stroke:#840000; stroke-width:60; stroke-opacity:1; 
stroke-linecap:round; stroke-linejoin:round;">
<rect x="69690" y="65360" width="42520" height="12600" rx="0" />
</g>
<g style="fill:#840000; fill-opacity:0.0; 
stroke:#840000; stroke-width:100; stroke-opacity:1; 
stroke-linecap:round; stroke-linejoin:round;">
</g>
<g style="fill:#840000; fill-opacity:0.0; 
stroke:#840000; stroke-width:60; stroke-opacity:1; 
stroke-linecap:round; stroke-linejoin:round;">
<rect x="3940" y="3940" width="109050" height="74800" rx="0" />
</g>
<g style="fill:#840000; fill-opacity:0.0; 
stroke:#840000; stroke-width:100; stroke-opacity:1; 
stroke-linecap:round; stroke-linejoin:round;">
</g>
<g style="fill:#840000; fill-opacity:0.0; 
stroke:#840000; stroke-width:60; stroke-opacity:1; 
stroke-linecap:round; stroke-linejoin:round;">
<rect x="4720" y="4720" width="107490" height="73240" rx="0" />
</g>
<g style="fill:#840000; fill-opacity:0.0; 
stroke:#840000; stroke-width:100; stroke-opacity:1; 
stroke-linecap:round; stroke-linejoin:round;">
</g>
<g style="fill:#840000; fill-opacity:0.0; 
stroke:#840000; stroke-width:60; stroke-opacity:1; 
stroke-linecap:round; stroke-linejoin:round;">
<path d="M23620 4720
L23620 3940
" />
</g>
<g style="fill:#840000; fill-opacity:0.0; 
stroke:#840000; stroke-width:100; stroke-opacity:1; 
stroke-linecap:round; stroke-linejoin:round;">
</g>
<g style="fill:#840000; fill-opacity:0.0; 
stroke:#840000; stroke-width:60; stroke-opacity:1; 
stroke-linecap:round; stroke-linejoin:round;">
<path d="M43310 4720
L43310 3940
" />
</g>
<g style="fill:#840000; fill-opacity:0.0; 
stroke:#840000; stroke-width:100; stroke-opacity:1; 
stroke-linecap:round; stroke-linejoin:round;">
</g>
<g style="fill:#840000; fill-opacity:0.0; 
stroke:#840000; stroke-width:60; stroke-opacity:1; 
stroke-linecap:round; stroke-linejoin:round;">
<path d="M62990 4720
L62990 3940
" />
</g>
<g style="fill:#840000; fill-opacity:0.0; 
stroke:#840000; stroke-width:100; stroke-opacity:1; 
stroke-linecap:round; stroke-linejoin:round;">
</g>
<g style="fill:#840000; fill-opacity:0.0; 
stroke:#840000; stroke-width:60; stroke-opacity:1; 
stroke-linecap:round; stroke-linejoin:round;">
<path d="M82680 4720
L82680 3940
" />
</g>
<g style="fill:#840000; fill-opacity:0.0; 
stroke:#840000; stroke-width:100; stroke-opacity:1; 
stroke-linecap:round; stroke-linejoin:round;">
</g>
<g style="fill:#840000; fill-opacity:0.0; 
stroke:#840000; stroke-width:60; stroke-opacity:1; 
stroke-linecap:round; stroke-linejoin:round;">
<path d="M102360 4720
L102360 3940
" />
</g>
<g style="fill:#840000; fill-opacity:0.0; 
stroke:#840000; stroke-width:100; stroke-opacity:1; 
stroke-linecap:round; stroke-linejoin:round;">
</g>
<g style="fill:#840000; fill-opacity:0.0; 
stroke:#840000; stroke-width:60; stroke-opacity:1; 
stroke-linecap:round; stroke-linejoin:round;">
<text x="13780" y="4580"
textLength="550" font-size="680" lengthAdjust="spacingAndGlyphs"
text-anchor="start" opacity="0">1</text>
<path d="M14190 4560
L13900 4560
" />
<path d="M14050 4560
L14050 4050
L14000 4120
L13950 4170
L13900 4190
" />
</g>
<g style="fill:#840000; fill-opacity:0.0; 
stroke:#840000; stroke-width:100; stroke-opacity:1; 
stroke-linecap:round; stroke-linejoin:round;">
</g>
<g style="fill:#840000; fill-opacity:0.0; 
stroke:#840000; stroke-width:60; stroke-opacity:1; 
stroke-linecap:round; stroke-linejoin:round;">
<text x="33460" y="4580"
textLength="550" font-size="680" lengthAdjust="spacingAndGlyphs"
text-anchor="start" opacity="0">2</text>
<path d="M33580 4090
L33610 4070
L33660 4050
L33780 4050
L33830 4070
L33850 4090
L33870 4140
L33870 4190
L33850 4260
L33560 4560
L33870 4560
" />
</g>
<g style="fill:#840000; fill-opacity:0.0; 
stroke:#840000; stroke-width:100; stroke-opacity:1; 
stroke-linecap:round; stroke-linejoin:round;">
</g>
<g style="fill:#840000; fill-opacity:0.0; 
stroke:#840000; stroke-width:60; stroke-opacity:1; 
stroke-linecap:round; stroke-linejoin:round;">
<text x="53150" y="4580"
textLength="550" font-size="680" lengthAdjust="spacingAndGlyphs"
text-anchor="start" opacity="0">3</text>
<path d="M53250 4050
L53560 4050
L53390 4240
L53470 4240
L53520 4260
L53540 4290
L53560 4340
L53560 4460
L53540 4510
L53520 4530
L53470 4560
L53320 4560
L53270 4530
L53250 4510
" />
</g>
<g style="fill:#840000; fill-opacity:0.0; 
stroke:#840000; stroke-width:100; stroke-opacity:1; 
stroke-linecap:round; stroke-linejoin:round;">
</g>
<g style="fill:#840000; fill-opacity:0.0; 
stroke:#840000; stroke-width:60; stroke-opacity:1; 
stroke-linecap:round; stroke-linejoin:round;">
<text x="72830" y="4580"
textLength="550" font-size="680" lengthAdjust="spacingAndGlyphs"
text-anchor="start" opacity="0">4</text>
<path d="M73200 4220
L73200 4560
" />
<path d="M73070 4020
L72950 4390
L73270 4390
" />
</g>
<g style="fill:#840000; fill-opacity:0.0; 
stroke:#840000; stroke-width:100; stroke-opacity:1; 
stroke-linecap:round; stroke-linejoin:round;">
</g>
<g style="fill:#840000; fill-opacity:0.0; 
stroke:#840000; stroke-width:60; stroke-opacity:1; 
stroke-linecap:round; stroke-linejoin:round;">
<text x="92520" y="4580"
textLength="550" font-size="680" lengthAdjust="spacingAndGlyphs"
text-anchor="start" opacity="0">5</text>
<path d="M92910 4050
L92670 4050
L92640 4290
L92670 4260
L92720 4240
L92840 4240
L92890 4260
L92910 4290
L92930 4340
L92930 4460
L92910 4510
L92890 4530
L92840 4560
L92720 4560
L92670 4530
L92640 4510
" />
</g>
<g style="fill:#840000; fill-opacity:0.0; 
stroke:#840000; stroke-width:100; stroke-opacity:1; 
stroke-linecap:round; stroke-linejoin:round;">
</g>
<g style="fill:#840000; fill-opacity:0.0; 
stroke:#840000; stroke-width:60; stroke-opacity:1; 
stroke-linecap:round; stroke-linejoin:round;">
<text x="112200" y="4580"
textLength="550" font-size="680" lengthAdjust="spacingAndGlyphs"
text-anchor="start" opacity="0">6</text>
<path d="M112570 4050
L112470 4050
L112420 4070
L112400 4090
L112350 4170
L112320 4260
L112320 4460
L112350 4510
L112370 4530
L112420 4560
L112520 4560
L112570 4530
L112590 4510
L112610 4460
L112610 4340
L112590 4290
L112570 4260
L112520 4240
L112420 4240
L112370 4260
L112350 4290
L112320 4340
" />
</g>
<g style="fill:#840000; fill-opacity:0.0; 
stroke:#840000; stroke-width:100; stroke-opacity:1; 
stroke-linecap:round; stroke-linejoin:round;">
</g>
<g style="fill:#840000; fill-opacity:0.0; 
stroke:#840000; stroke-width:60; stroke-opacity:1; 
stroke-linecap:round; stroke-linejoin:round;">
<path d="M23620 77960
L23620 78740
" />
</g>
<g style="fill:#840000; fill-opacity:0.0; 
stroke:#840000; stroke-width:100; stroke-opacity:1; 
stroke-linecap:round; stroke-linejoin:round;">
</g>
<g style="fill:#840000; fill-opacity:0.0; 
stroke:#840000; stroke-width:60; stroke-opacity:1; 
stroke-linecap:round; stroke-linejoin:round;">
<path d="M43310 77960
L43310 78740
" />
</g>
<g style="fill:#840000; fill-opacity:0.0; 
stroke:#840000; stroke-width:100; stroke-opacity:1; 
stroke-linecap:round; stroke-linejoin:round;">
</g>
<g style="fill:#840000; fill-opacity:0.0; 
stroke:#840000; stroke-width:60; stroke-opacity:1; 
stroke-linecap:round; stroke-linejoin:round;">
<path d="M62990 77960
L62990 78740
" />
</g>
<g style="fill:#840000; fill-opacity:0.0; 
stroke:#840000; stroke-width:100; stroke-opacity:1; 
stroke-linecap:round; stroke-linejoin:round;">
</g>
<g style="fill:#840000; fill-opacity:0.0; 
stroke:#840000; stroke-width:60; stroke-opacity:1; 
stroke-linecap:round; stroke-linejoin:round;">
<path d="M82680 77960
L82680 78740
" />
</g>
<g style="fill:#840000; fill-opacity:0.0; 
stroke:#840000; stroke-width:100; stroke-opacity:1; 
stroke-linecap:round; stroke-linejoin:round;">
</g>
<g style="fill:#840000; fill-opacity:0.0; 
stroke:#840000; stroke-width:60; stroke-opacity:1; 
stroke-linecap:round; stroke-linejoin:round;">
<path d="M102360 77960
L102360 78740
" />
</g>
<g style="fill:#840000; fill-opacity:0.0; 
stroke:#840000; stroke-width:100; stroke-opacity:1; 
stroke-linecap:round; stroke-linejoin:round;">
</g>
<g style="fill:#840000; fill-opacity:0.0; 
stroke:#840000; stroke-width:60; stroke-opacity:1; 
stroke-linecap:round; stroke-linejoin:round;">
<text x="13780" y="78600"
textLength="550" font-size="680" lengthAdjust="spacingAndGlyphs"
text-anchor="start" opacity="0">1</text>
<path d="M14190 78580
L13900 78580
" />
<path d="M14050 78580
L14050 78070
L14000 78140
L13950 78190
L13900 78210
" />
</g>
<g style="fill:#840000; fill-opacity:0.0; 
stroke:#840000; stroke-width:100; stroke-opacity:1; 
stroke-linecap:round; stroke-linejoin:round;">
</g>
<g style="fill:#840000; fill-opacity:0.0; 
stroke:#840000; stroke-width:60; stroke-opacity:1; 
stroke-linecap:round; stroke-linejoin:round;">
<text x="33460" y="78600"
textLength="550" font-size="680" lengthAdjust="spacingAndGlyphs"
text-anchor="start" opacity="0">2</text>
<path d="M33580 78110
L33610 78090
L33660 78070
L33780 78070
L33830 78090
L33850 78110
L33870 78160
L33870 78210
L33850 78280
L33560 78580
L33870 78580
" />
</g>
<g style="fill:#840000; fill-opacity:0.0; 
stroke:#840000; stroke-width:100; stroke-opacity:1; 
stroke-linecap:round; stroke-linejoin:round;">
</g>
<g style="fill:#840000; fill-opacity:0.0; 
stroke:#840000; stroke-width:60; stroke-opacity:1; 
stroke-linecap:round; stroke-linejoin:round;">
<text x="53150" y="78600"
textLength="550" font-size="680" lengthAdjust="spacingAndGlyphs"
text-anchor="start" opacity="0">3</text>
<path d="M53250 78070
L53560 78070
L53390 78260
L53470 78260
L53520 78280
L53540 78310
L53560 78360
L53560 78480
L53540 78530
L53520 78550
L53470 78580
L53320 78580
L53270 78550
L53250 78530
" />
</g>
<g style="fill:#840000; fill-opacity:0.0; 
stroke:#840000; stroke-width:100; stroke-opacity:1; 
stroke-linecap:round; stroke-linejoin:round;">
</g>
<g style="fill:#840000; fill-opacity:0.0; 
stroke:#840000; stroke-width:60; stroke-opacity:1; 
stroke-linecap:round; stroke-linejoin:round;">
<text x="72830" y="78600"
textLength="550" font-size="680" lengthAdjust="spacingAndGlyphs"
text-anchor="start" opacity="0">4</text>
<path d="M73200 78240
L73200 78580
" />
<path d="M73070 78040
L72950 78410
L73270 78410
" />
</g>
<g style="fill:#840000; fill-opacity:0.0; 
stroke:#840000; stroke-width:100; stroke-opacity:1; 
stroke-linecap:round; stroke-linejoin:round;">
</g>
<g style="fill:#840000; fill-opacity:0.0; 
stroke:#840000; stroke-width:60; stroke-opacity:1; 
stroke-linecap:round; stroke-linejoin:round;">
<text x="92520" y="78600"
textLength="550" font-size="680" lengthAdjust="spacingAndGlyphs"
text-anchor="start" opacity="0">5</text>
<path d="M92910 78070
L92670 78070
L92640 78310
L92670 78280
L92720 78260
L92840 78260
L92890 78280
L92910 78310
L92930 78360
L92930 78480
L92910 78530
L92890 78550
L92840 78580
L92720 78580
L92670 78550
L92640 78530
" />
</g>
<g style="fill:#840000; fill-opacity:0.0; 
stroke:#840000; stroke-width:100; stroke-opacity:1; 
stroke-linecap:round; stroke-linejoin:round;">
</g>
<g style="fill:#840000; fill-opacity:0.0; 
stroke:#840000; stroke-width:60; stroke-opacity:1; 
stroke-linecap:round; stroke-linejoin:round;">
<text x="112200" y="78600"
textLength="550" font-size="680" lengthAdjust="spacingAndGlyphs"
text-anchor="start" opacity="0">6</text>
<path d="M112570 78070
L112470 78070
L112420 78090
L112400 78110
L112350 78190
L112320 78280
L112320 78480
L112350 78530
L112370 78550
L112420 78580
L112520 78580
L112570 78550
L112590 78530
L112610 78480
L112610 78360
L112590 78310
L112570 78280
L112520 78260
L112420 78260
L112370 78280
L112350 78310
L112320 78360
" />
</g>
<g style="fill:#840000; fill-opacity:0.0; 
stroke:#840000; stroke-width:100; stroke-opacity:1; 
stroke-linecap:round; stroke-linejoin:round;">
</g>
<g style="fill:#840000; fill-opacity:0.0; 
stroke:#840000; stroke-width:60; stroke-opacity:1; 
stroke-linecap:round; stroke-linejoin:round;">
<path d="M3940 23620
L4720 23620
" />
</g>
<g style="fill:#840000; fill-opacity:0.0; 
stroke:#840000; stroke-width:100; stroke-opacity:1; 
stroke-linecap:round; stroke-linejoin:round;">
</g>
<g style="fill:#840000; fill-opacity:0.0; 
stroke:#840000; stroke-width:60; stroke-opacity:1; 
stroke-linecap:round; stroke-linejoin:round;">
<path d="M3940 43310
L4720 43310
" />
</g>
<g style="fill:#840000; fill-opacity:0.0; 
stroke:#840000; stroke-width:100; stroke-opacity:1; 
stroke-linecap:round; stroke-linejoin:round;">
</g>
<g style="fill:#840000; fill-opacity:0.0; 
stroke:#840000; stroke-width:60; stroke-opacity:1; 
stroke-linecap:round; stroke-linejoin:round;">
<path d="M3940 62990
L4720 62990
" />
</g>
<g style="fill:#840000; fill-opacity:0.0; 
stroke:#840000; stroke-width:100; stroke-opacity:1; 
stroke-linecap:round; stroke-linejoin:round;">
</g>
<g style="fill:#840000; fill-opacity:0.0; 
stroke:#840000; stroke-width:60; stroke-opacity:1; 
stroke-linecap:round; stroke-linejoin:round;">
<text x="4330" y="14030"
textLength="500" font-size="680" lengthAdjust="spacingAndGlyphs"
text-anchor="middle" opacity="0">A</text>
<path d="M4200 13860
L4450 13860
" />
<path d="M4160 14010
L4330 13500
L4500 14010
" />
</g>
<g style="fill:#840000; fill-opacity:0.0; 
stroke:#840000; stroke-width:100; stroke-opacity:1; 
stroke-linecap:round; stroke-linejoin:round;">
</g>
<g style="fill:#840000; fill-opacity:0.0; 
stroke:#840000; stroke-width:60; stroke-opacity:1; 
stroke-linecap:round; stroke-linejoin:round;">
<text x="4330" y="33710"
textLength="570" font-size="680" lengthAdjust="spacingAndGlyphs"
text-anchor="middle" opacity="0">B</text>
<path d="M4360 33420
L4430 33440
L4460 33470
L4480 33520
L4480 33590
L4460 33640
L4430 33660
L4390 33690
L4190 33690
L4190 33180
L4360 33180
L4410 33200
L4430 33220
L4460 33270
L4460 33320
L4430 33370
L4410 33390
L4360 33420
L4190 33420
" />
</g>
<g style="fill:#840000; fill-opacity:0.0; 
stroke:#840000; stroke-width:100; stroke-opacity:1; 
stroke-linecap:round; stroke-linejoin:round;">
</g>
<g style="fill:#840000; fill-opacity:0.0; 
stroke:#840000; stroke-width:60; stroke-opacity:1; 
stroke-linecap:round; stroke-linejoin:round;">
<text x="4330" y="53400"
textLength="570" font-size="680" lengthAdjust="spacingAndGlyphs"
text-anchor="middle" opacity="0">C</text>
<path d="M4480 53330
L4460 53350
L4390 53380
L4340 53380
L4260 53350
L4220 53300
L4190 53250
L4170 53160
L4170 53080
L4190 52990
L4220 52940
L4260 52890
L4340 52870
L4390 52870
L4460 52890
L4480 52910
" />
</g>
<g style="fill:#840000; fill-opacity:0.0; 
stroke:#840000; stroke-width:100; stroke-opacity:1; 
stroke-linecap:round; stroke-linejoin:round;">
</g>
<g style="fill:#840000; fill-opacity:0.0; 
stroke:#840000; stroke-width:60; stroke-opacity:1; 
stroke-linecap:round; stroke-linejoin:round;">
<text x="4330" y="73080"
textLength="570" font-size="680" lengthAdjust="spacingAndGlyphs"
text-anchor="middle" opacity="0">D</text>
<path d="M4190 73060
L4190 72550
L4310 72550
L4390 72570
L4430 72620
L4460 72670
L4480 72760
L4480 72840
L4460 72930
L4430 72980
L4390 73030
L4310 73060
L4190 73060
" />
</g>
<g style="fill:#840000; fill-opacity:0.0; 
stroke:#840000; stroke-width:100; stroke-opacity:1; 
stroke-linecap:round; stroke-linejoin:round;">
</g>
<g style="fill:#840000; fill-opacity:0.0; 
stroke:#840000; stroke-width:60; stroke-opacity:1; 
stroke-linecap:round; stroke-linejoin:round;">
<path d="M112990 23620
L112210 23620
" />
</g>
<g style="fill:#840000; fill-opacity:0.0; 
stroke:#840000; stroke-width:100; stroke-opacity:1; 
stroke-linecap:round; stroke-linejoin:round;">
</g>
<g style="fill:#840000; fill-opacity:0.0; 
stroke:#840000; stroke-width:60; stroke-opacity:1; 
stroke-linecap:round; stroke-linejoin:round;">
<path d="M112990 43310
L112210 43310
" />
</g>
<g style="fill:#840000; fill-opacity:0.0; 
stroke:#840000; stroke-width:100; stroke-opacity:1; 
stroke-linecap:round; stroke-linejoin:round;">
</g>
<g style="fill:#840000; fill-opacity:0.0; 
stroke:#840000; stroke-width:60; stroke-opacity:1; 
stroke-linecap:round; stroke-linejoin:round;">
<path d="M112990 62990
L112210 62990
" />
</g>
<g style="fill:#840000; fill-opacity:0.0; 
stroke:#840000; stroke-width:100; stroke-opacity:1; 
stroke-linecap:round; stroke-linejoin:round;">
</g>
<g style="fill:#840000; fill-opacity:0.0; 
stroke:#840000; stroke-width:60; stroke-opacity:1; 
stroke-linecap:round; stroke-linejoin:round;">
<text x="112600" y="14030"
textLength="500" font-size="680" lengthAdjust="spacingAndGlyphs"
text-anchor="middle" opacity="0">A</text>
<path d="M112470 13860
L112720 13860
" />
<path d="M112430 14010
L112600 13500
L112770 14010
" />
</g>
<g style="fill:#840000; fill-opacity:0.0; 
stroke:#840000; stroke-width:100; stroke-opacity:1; 
stroke-linecap:round; stroke-linejoin:round;">
</g>
<g style="fill:#840000; fill-opacity:0.0; 
stroke:#840000; stroke-width:60; stroke-opacity:1; 
stroke-linecap:round; stroke-linejoin:round;">
<text x="112600" y="33710"
textLength="570" font-size="680" lengthAdjust="spacingAndGlyphs"
text-anchor="middle" opacity="0">B</text>
<path d="M112630 33420
L112700 33440
L112730 33470
L112750 33520
L112750 33590
L112730 33640
L112700 33660
L112660 33690
L112460 33690
L112460 33180
L112630 33180
L112680 33200
L112700 33220
L112730 33270
L112730 33320
L112700 33370
L112680 33390
L112630 33420
L112460 33420
" />
</g>
<g style="fill:#840000; fill-opacity:0.0; 
stroke:#840000; stroke-width:100; stroke-opacity:1; 
stroke-linecap:round; stroke-linejoin:round;">
</g>
<g style="fill:#840000; fill-opacity:0.0; 
stroke:#840000; stroke-width:60; stroke-opacity:1; 
stroke-linecap:round; stroke-linejoin:round;">
<text x="112600" y="53400"
textLength="570" font-size="680" lengthAdjust="spacingAndGlyphs"
text-anchor="middle" opacity="0">C</text>
<path d="M112750 53330
L112730 53350
L112660 53380
L112610 53380
L112530 53350
L112490 53300
L112460 53250
L112440 53160
L112440 53080
L112460 52990
L112490 52940
L112530 52890
L112610 52870
L112660 52870
L112730 52890
L112750 52910
" />
</g>
<g style="fill:#840000; fill-opacity:0.0; 
stroke:#840000; stroke-width:100; stroke-opacity:1; 
stroke-linecap:round; stroke-linejoin:round;">
</g>
<g style="fill:#840000; fill-opacity:0.0; 
stroke:#840000; stroke-width:60; stroke-opacity:1; 
stroke-linecap:round; stroke-linejoin:round;">
<text x="112600" y="73080"
textLength="570" font-size="680" lengthAdjust="spacingAndGlyphs"
text-anchor="middle" opacity="0">D</text>
<path d="M112460 73060
L112460 72550
L112580 72550
L112660 72570
L112700 72620
L112730 72670
L112750 72760
L112750 72840
L112730 72930
L112700 72980
L112660 73030
L112580 73060
L112460 73060
" />
</g>
<g style="fill:#840000; fill-opacity:0.0; 
stroke:#840000; stroke-width:100; stroke-opacity:1; 
stroke-linecap:round; stroke-linejoin:round;">
</g>
<g style="fill:#840000; fill-opacity:0.0; 
stroke:#840000; stroke-width:60; stroke-opacity:1; 
stroke-linecap:round; stroke-linejoin:round;">
<text x="78740" y="76320"
textLength="2760" font-size="780" lengthAdjust="spacingAndGlyphs"
text-anchor="start" opacity="0">Date: </text>
<path d="M78910 76290
L78910 75700
L79050 75700
L79130 75730
L79190 75790
L79210 75840
L79240 75950
L79240 76040
L79210 76150
L79190 76210
L79130 76260
L79050 76290
L78910 76290
" />
<path d="M79750 76290
L79750 75980
L79720 75930
L79660 75900
L79550 75900
L79500 75930
" />
<path d="M79750 76260
L79690 76290
L79550 76290
L79500 76260
L79470 76210
L79470 76150
L79500 76100
L79550 76070
L79690 76070
L79750 76040
" />
<path d="M79950 75900
L80170 75900
" />
<path d="M80030 75700
L80030 76210
L80060 76260
L80110 76290
L80170 76290
" />
<path d="M80590 76260
L80540 76290
L80420 76290
L80370 76260
L80340 76210
L80340 75980
L80370 75930
L80420 75900
L80540 75900
L80590 75930
L80620 75980
L80620 76040
L80340 76100
" />
<path d="M80870 76240
L80900 76260
L80870 76290
L80840 76260
L80870 76240
L80870 76290
" />
<path d="M80870 75930
L80900 75950
L80870 75980
L80840 75950
L80870 75930
L80870 75980
" />
</g>
<g style="fill:#840000; fill-opacity:0.0; 
stroke:#840000; stroke-width:100; stroke-opacity:1; 
stroke-linecap:round; stroke-linejoin:round;">
</g>
<g style="fill:#840000; fill-opacity:0.0; 
stroke:#840000; stroke-width:60; stroke-opacity:1; 
stroke-linecap:round; stroke-linejoin:round;">
<path d="M69690 76580
L112210 76580
" />
</g>
<g style="fill:#840000; fill-opacity:0.0; 
stroke:#840000; stroke-width:100; stroke-opacity:1; 
stroke-linecap:round; stroke-linejoin:round;">
</g>
<g style="fill:#840000; fill-opacity:0.0; 
stroke:#840000; stroke-width:60; stroke-opacity:1; 
stroke-linecap:round; stroke-linejoin:round;">
<text x="70080" y="77420"
textLength="19920" font-size="780" lengthAdjust="spacingAndGlyphs"
text-anchor="start" opacity="0">KiCad E.D.A.  kicad 5.1.9+dfsg1-1~bpo10+1</text>
<path d="M70250 77390
L70250 76800
" />
<path d="M70580 77390
L70330 77050
" />
<path d="M70580 76800
L70250 77140
" />
<path d="M70840 77390
L70840 77000
" />
<path d="M70840 76800
L70810 76830
L70840 76860
L70860 76830
L70840 76800
L70840 76860
" />
<path d="M71450 77340
L71430 77360
L71340 77390
L71290 77390
L71200 77360
L71140 77310
L71120 77250
L71090 77140
L71090 77050
L71120 76940
L71140 76890
L71200 76830
L71290 76800
L71340 76800
L71430 76830
L71450 76860
" />
<path d="M71960 77390
L71960 77080
L71930 77030
L71880 77000
L71760 77000
L71710 77030
" />
<path d="M71960 77360
L71900 77390
L71760 77390
L71710 77360
L71680 77310
L71680 77250
L71710 77200
L71760 77170
L71900 77170
L71960 77140
" />
<path d="M72490 77390
L72490 76800
" />
<path d="M72490 77360
L72440 77390
L72320 77390
L72270 77360
L72240 77340
L72210 77280
L72210 77110
L72240 77050
L72270 77030
L72320 77000
L72440 77000
L72490 77030
" />
<path d="M73220 77080
L73420 77080
" />
<path d="M73500 77390
L73220 77390
L73220 76800
L73500 76800
" />
<path d="M73760 77340
L73790 77360
L73760 77390
L73730 77360
L73760 77340
L73760 77390
" />
<path d="M74040 77390
L74040 76800
L74180 76800
L74260 76830
L74320 76890
L74350 76940
L74380 77050
L74380 77140
L74350 77250
L74320 77310
L74260 77360
L74180 77390
L74040 77390
" />
<path d="M74630 77340
L74660 77360
L74630 77390
L74600 77360
L74630 77340
L74630 77390
" />
<path d="M74880 77220
L75160 77220
" />
<path d="M74830 77390
L75020 76800
L75220 77390
" />
<path d="M75420 77340
L75440 77360
L75420 77390
L75390 77360
L75420 77340
L75420 77390
" />
<path d="M76600 77390
L76600 76800
" />
<path d="M76650 77170
L76820 77390
" />
<path d="M76820 77000
L76600 77220
" />
<path d="M77070 77390
L77070 77000
" />
<path d="M77070 76800
L77040 76830
L77070 76860
L77100 76830
L77070 76800
L77070 76860
" />
<path d="M77610 77360
L77550 77390
L77440 77390
L77380 77360
L77350 77340
L77330 77280
L77330 77110
L77350 77050
L77380 77030
L77440 77000
L77550 77000
L77610 77030
" />
<path d="M78110 77390
L78110 77080
L78080 77030
L78030 77000
L77920 77000
L77860 77030
" />
<path d="M78110 77360
L78060 77390
L77920 77390
L77860 77360
L77830 77310
L77830 77250
L77860 77200
L77920 77170
L78060 77170
L78110 77140
" />
<path d="M78650 77390
L78650 76800
" />
<path d="M78650 77360
L78590 77390
L78480 77390
L78420 77360
L78390 77340
L78370 77280
L78370 77110
L78390 77050
L78420 77030
L78480 77000
L78590 77000
L78650 77030
" />
<path d="M79660 76800
L79380 76800
L79350 77080
L79380 77050
L79430 77030
L79570 77030
L79630 77050
L79660 77080
L79690 77140
L79690 77280
L79660 77340
L79630 77360
L79570 77390
L79430 77390
L79380 77360
L79350 77340
" />
<path d="M79940 77340
L79970 77360
L79940 77390
L79910 77360
L79940 77340
L79940 77390
" />
<path d="M80530 77390
L80190 77390
" />
<path d="M80360 77390
L80360 76800
L80300 76890
L80250 76940
L80190 76970
" />
<path d="M80780 77340
L80810 77360
L80780 77390
L80750 77360
L80780 77340
L80780 77390
" />
<path d="M81090 77390
L81200 77390
L81260 77360
L81290 77340
L81340 77250
L81370 77140
L81370 76910
L81340 76860
L81320 76830
L81260 76800
L81150 76800
L81090 76830
L81060 76860
L81030 76910
L81030 77050
L81060 77110
L81090 77140
L81150 77170
L81260 77170
L81320 77140
L81340 77110
L81370 77050
" />
<path d="M81620 77170
L82070 77170
" />
<path d="M81850 77390
L81850 76940
" />
<path d="M82610 77390
L82610 76800
" />
<path d="M82610 77360
L82550 77390
L82440 77390
L82380 77360
L82350 77340
L82330 77280
L82330 77110
L82350 77050
L82380 77030
L82440 77000
L82550 77000
L82610 77030
" />
<path d="M82800 77000
L83030 77000
" />
<path d="M82890 77390
L82890 76890
L82920 76830
L82970 76800
L83030 76800
" />
<path d="M83200 77360
L83250 77390
L83370 77390
L83420 77360
L83450 77310
L83450 77280
L83420 77220
L83370 77200
L83280 77200
L83230 77170
L83200 77110
L83200 77080
L83230 77030
L83280 77000
L83370 77000
L83420 77030
" />
<path d="M83960 77000
L83960 77480
L83930 77530
L83900 77560
L83840 77590
L83760 77590
L83700 77560
" />
<path d="M83960 77360
L83900 77390
L83790 77390
L83730 77360
L83700 77340
L83680 77280
L83680 77110
L83700 77050
L83730 77030
L83790 77000
L83900 77000
L83960 77030
" />
<path d="M84550 77390
L84210 77390
" />
<path d="M84380 77390
L84380 76800
L84320 76890
L84270 76940
L84210 76970
" />
<path d="M84800 77170
L85250 77170
" />
<path d="M85840 77390
L85500 77390
" />
<path d="M85670 77390
L85670 76800
L85610 76890
L85560 76940
L85500 76970
" />
<path d="M85950 76640
L86480 76640
" />
<path d="M86090 77390
L86090 76800
" />
<path d="M86090 77030
L86150 77000
L86260 77000
L86320 77030
L86340 77050
L86370 77110
L86370 77280
L86340 77340
L86320 77360
L86260 77390
L86150 77390
L86090 77360
" />
<path d="M86480 76640
L87020 76640
" />
<path d="M86630 77000
L86630 77590
" />
<path d="M86630 77030
L86680 77000
L86790 77000
L86850 77030
L86880 77050
L86910 77110
L86910 77280
L86880 77340
L86850 77360
L86790 77390
L86680 77390
L86630 77360
" />
<path d="M87020 76640
L87550 76640
" />
<path d="M87240 77390
L87190 77360
L87160 77340
L87130 77280
L87130 77110
L87160 77050
L87190 77030
L87240 77000
L87330 77000
L87380 77030
L87410 77050
L87440 77110
L87440 77280
L87410 77340
L87380 77360
L87330 77390
L87240 77390
" />
<path d="M87550 76640
L88110 76640
" />
<path d="M88000 77390
L87660 77390
" />
<path d="M87830 77390
L87830 76800
L87780 76890
L87720 76940
L87660 76970
" />
<path d="M88110 76640
L88680 76640
" />
<path d="M88370 76800
L88420 76800
L88480 76830
L88510 76860
L88540 76910
L88560 77030
L88560 77170
L88540 77280
L88510 77340
L88480 77360
L88420 77390
L88370 77390
L88310 77360
L88280 77340
L88250 77280
L88230 77170
L88230 77030
L88250 76910
L88280 76860
L88310 76830
L88370 76800
" />
<path d="M88680 76640
L89410 76640
" />
<path d="M88820 77170
L89270 77170
" />
<path d="M89040 77390
L89040 76940
" />
<path d="M89410 76640
L89970 76640
" />
<path d="M89860 77390
L89520 77390
" />
<path d="M89690 77390
L89690 76800
L89630 76890
L89580 76940
L89520 76970
" />
</g>
<g style="fill:#840000; fill-opacity:0.0; 
stroke:#840000; stroke-width:100; stroke-opacity:1; 
stroke-linecap:round; stroke-linejoin:round;">
</g>
<g style="fill:#840000; fill-opacity:0.0; 
stroke:#840000; stroke-width:60; stroke-opacity:1; 
stroke-linecap:round; stroke-linejoin:round;">
<path d="M69690 75400
L112210 75400
" />
</g>
<g style="fill:#840000; fill-opacity:0.0; 
stroke:#840000; stroke-width:100; stroke-opacity:1; 
stroke-linecap:round; stroke-linejoin:round;">
</g>
<g style="fill:#840000; fill-opacity:0.0; 
stroke:#840000; stroke-width:120; stroke-opacity:1; 
stroke-linecap:round; stroke-linejoin:round;">
<text x="103540" y="76320"
textLength="3740" font-size="780" lengthAdjust="spacingAndGlyphs"
text-anchor="start" opacity="0">Rev: 0.1</text>
<path d="M104090 76290
L103890 76010
" />
<path d="M103750 76290
L103750 75700
L103980 75700
L104030 75730
L104060 75760
L104090 75810
L104090 75900
L104060 75950
L104030 75980
L103980 76010
L103750 76010
" />
<path d="M104570 76260
L104510 76290
L104400 76290
L104340 76260
L104320 76210
L104320 75980
L104340 75930
L104400 75900
L104510 75900
L104570 75930
L104600 75980
L104600 76040
L104320 76100
" />
<path d="M104790 75900
L104930 76290
L105070 75900
" />
<path d="M105300 76240
L105330 76260
L105300 76290
L105270 76260
L105300 76240
L105300 76290
" />
<path d="M105300 75930
L105330 75950
L105300 75980
L105270 75950
L105300 75930
L105300 75980
" />
<path d="M106140 75700
L106200 75700
L106250 75730
L106280 75760
L106310 75810
L106340 75930
L106340 76070
L106310 76180
L106280 76240
L106250 76260
L106200 76290
L106140 76290
L106090 76260
L106060 76240
L106030 76180
L106000 76070
L106000 75930
L106030 75810
L106060 75760
L106090 75730
L106140 75700
" />
<path d="M106590 76240
L106620 76260
L106590 76290
L106560 76260
L106590 76240
L106590 76290
" />
<path d="M107180 76290
L106840 76290
" />
<path d="M107010 76290
L107010 75700
L106960 75790
L106900 75840
L106840 75870
" />
</g>
<g style="fill:#840000; fill-opacity:0.0; 
stroke:#840000; stroke-width:100; stroke-opacity:1; 
stroke-linecap:round; stroke-linejoin:round;">
</g>
<g style="fill:#840000; fill-opacity:0.0; 
stroke:#840000; stroke-width:60; stroke-opacity:1; 
stroke-linecap:round; stroke-linejoin:round;">
<text x="70080" y="76320"
textLength="3780" font-size="780" lengthAdjust="spacingAndGlyphs"
text-anchor="start" opacity="0">Size: A4</text>
<path d="M70220 76260
L70300 76290
L70440 76290
L70500 76260
L70530 76240
L70550 76180
L70550 76120
L70530 76070
L70500 76040
L70440 76010
L70330 75980
L70270 75950
L70250 75930
L70220 75870
L70220 75810
L70250 75760
L70270 75730
L70330 75700
L70470 75700
L70550 75730
" />
<path d="M70810 76290
L70810 75900
" />
<path d="M70810 75700
L70780 75730
L70810 75760
L70840 75730
L70810 75700
L70810 75760
" />
<path d="M71030 75900
L71340 75900
L71030 76290
L71340 76290
" />
<path d="M71790 76260
L71730 76290
L71620 76290
L71570 76260
L71540 76210
L71540 75980
L71570 75930
L71620 75900
L71730 75900
L71790 75930
L71820 75980
L71820 76040
L71540 76100
" />
<path d="M72070 76240
L72100 76260
L72070 76290
L72040 76260
L72070 76240
L72070 76290
" />
<path d="M72070 75930
L72100 75950
L72070 75980
L72040 75950
L72070 75930
L72070 75980
" />
<path d="M72770 76120
L73060 76120
" />
<path d="M72720 76290
L72910 75700
L73110 76290
" />
<path d="M73560 75900
L73560 76290
" />
<path d="M73420 75670
L73280 76100
L73650 76100
" />
</g>
<g style="fill:#840000; fill-opacity:0.0; 
stroke:#840000; stroke-width:100; stroke-opacity:1; 
stroke-linecap:round; stroke-linejoin:round;">
</g>
<g style="fill:#840000; fill-opacity:0.0; 
stroke:#840000; stroke-width:60; stroke-opacity:1; 
stroke-linecap:round; stroke-linejoin:round;">
<text x="103540" y="77420"
textLength="4470" font-size="780" lengthAdjust="spacingAndGlyphs"
text-anchor="start" opacity="0">Id: 11/11</text>
<path d="M103710 77390
L103710 76800
" />
<path d="M104240 77390
L104240 76800
" />
<path d="M104240 77360
L104180 77390
L104070 77390
L104010 77360
L103990 77340
L103960 77280
L103960 77110
L103990 77050
L104010 77030
L104070 77000
L104180 77000
L104240 77030
" />
<path d="M104520 77340
L104550 77360
L104520 77390
L104490 77360
L104520 77340
L104520 77390
" />
<path d="M104520 77030
L104550 77050
L104520 77080
L104490 77050
L104520 77030
L104520 77080
" />
<path d="M105560 77390
L105220 77390
" />
<path d="M105390 77390
L105390 76800
L105340 76890
L105280 76940
L105220 76970
" />
<path d="M106120 77390
L105780 77390
" />
<path d="M105950 77390
L105950 76800
L105900 76890
L105840 76940
L105780 76970
" />
<path d="M106800 76770
L106290 77530
" />
<path d="M107300 77390
L106960 77390
" />
<path d="M107130 77390
L107130 76800
L107080 76890
L107020 76940
L106960 76970
" />
<path d="M107860 77390
L107530 77390
" />
<path d="M107700 77390
L107700 76800
L107640 76890
L107580 76940
L107530 76970
" />
</g>
<g style="fill:#840000; fill-opacity:0.0; 
stroke:#840000; stroke-width:100; stroke-opacity:1; 
stroke-linecap:round; stroke-linejoin:round;">
</g>
<g style="fill:#840000; fill-opacity:0.0; 
stroke:#840000; stroke-width:60; stroke-opacity:1; 
stroke-linecap:round; stroke-linejoin:round;">
<path d="M69690 73820
L112210 73820
" />
</g>
<g style="fill:#840000; fill-opacity:0.0; 
stroke:#840000; stroke-width:100; stroke-opacity:1; 
stroke-linecap:round; stroke-linejoin:round;">
</g>
<g style="fill:#840000; fill-opacity:0.0; 
stroke:#840000; stroke-width:160; stroke-opacity:1; 
stroke-linecap:round; stroke-linejoin:round;">
<text x="70080" y="74920"
textLength="19930" font-size="1050" lengthAdjust="spacingAndGlyphs"
text-anchor="start" opacity="0">Title: Embedded Testbench (ETB)</text>
<path d="M70360 74090
L70810 74090
" />
<path d="M70480 74880
L70580 74090
" />
<path d="M70970 74880
L71040 74360
" />
<path d="M71070 74090
L71030 74130
L71060 74170
L71110 74130
L71070 74090
L71060 74170
" />
<path d="M71300 74360
L71600 74360
" />
<path d="M71450 74090
L71360 74770
L71390 74840
L71460 74880
L71540 74880
" />
<path d="M71910 74880
L71840 74840
L71820 74770
L71900 74090
" />
<path d="M72520 74840
L72440 74880
L72290 74880
L72220 74840
L72190 74770
L72230 74470
L72280 74390
L72360 74360
L72510 74360
L72580 74390
L72610 74470
L72600 74540
L72210 74620
" />
<path d="M72900 74810
L72930 74840
L72890 74880
L72860 74840
L72900 74810
L72890 74880
" />
<path d="M72950 74390
L72990 74430
L72940 74470
L72910 74430
L72950 74390
L72940 74470
" />
<path d="M73920 74470
L74190 74470
" />
<path d="M74250 74880
L73870 74880
L73970 74090
L74350 74090
" />
<path d="M74590 74880
L74650 74360
" />
<path d="M74640 74430
L74680 74390
L74760 74360
L74880 74360
L74950 74390
L74980 74470
L74920 74880
" />
<path d="M74980 74470
L75020 74390
L75100 74360
L75220 74360
L75290 74390
L75310 74470
L75260 74880
" />
<path d="M75640 74880
L75740 74090
" />
<path d="M75700 74390
L75780 74360
L75930 74360
L76000 74390
L76030 74430
L76060 74510
L76030 74730
L75990 74810
L75940 74840
L75860 74880
L75710 74880
L75640 74840
" />
<path d="M76660 74840
L76580 74880
L76430 74880
L76360 74840
L76330 74770
L76370 74470
L76410 74390
L76490 74360
L76640 74360
L76720 74390
L76740 74470
L76730 74540
L76350 74620
" />
<path d="M77370 74880
L77470 74090
" />
<path d="M77370 74840
L77290 74880
L77140 74880
L77070 74840
L77040 74810
L77010 74730
L77040 74510
L77090 74430
L77130 74390
L77210 74360
L77360 74360
L77430 74390
" />
<path d="M78080 74880
L78180 74090
" />
<path d="M78090 74840
L78010 74880
L77860 74880
L77790 74840
L77750 74810
L77730 74730
L77750 74510
L77800 74430
L77840 74390
L77920 74360
L78070 74360
L78140 74390
" />
<path d="M78770 74840
L78690 74880
L78540 74880
L78460 74840
L78440 74770
L78470 74470
L78520 74390
L78600 74360
L78750 74360
L78820 74390
L78850 74470
L78840 74540
L78460 74620
" />
<path d="M79480 74880
L79570 74090
" />
<path d="M79480 74840
L79400 74880
L79250 74880
L79180 74840
L79150 74810
L79120 74730
L79150 74510
L79190 74430
L79240 74390
L79320 74360
L79470 74360
L79540 74390
" />
<path d="M80440 74090
L80890 74090
" />
<path d="M80570 74880
L80670 74090
" />
<path d="M81360 74840
L81280 74880
L81130 74880
L81060 74840
L81030 74770
L81070 74470
L81120 74390
L81200 74360
L81350 74360
L81420 74390
L81450 74470
L81440 74540
L81050 74620
" />
<path d="M81700 74840
L81770 74880
L81920 74880
L82000 74840
L82050 74770
L82050 74730
L82020 74660
L81950 74620
L81840 74620
L81770 74580
L81740 74510
L81750 74470
L81790 74390
L81870 74360
L81990 74360
L82060 74390
" />
<path d="M82330 74360
L82630 74360
" />
<path d="M82470 74090
L82390 74770
L82410 74840
L82490 74880
L82560 74880
" />
<path d="M82820 74880
L82920 74090
" />
<path d="M82880 74390
L82960 74360
L83120 74360
L83190 74390
L83220 74430
L83250 74510
L83220 74730
L83170 74810
L83130 74840
L83050 74880
L82900 74880
L82830 74840
" />
<path d="M83840 74840
L83760 74880
L83610 74880
L83540 74840
L83510 74770
L83550 74470
L83600 74390
L83680 74360
L83830 74360
L83900 74390
L83930 74470
L83920 74540
L83530 74620
" />
<path d="M84280 74360
L84220 74880
" />
<path d="M84270 74430
L84310 74390
L84390 74360
L84510 74360
L84580 74390
L84610 74470
L84550 74880
" />
<path d="M85270 74840
L85190 74880
L85040 74880
L84970 74840
L84940 74810
L84910 74730
L84940 74510
L84990 74430
L85030 74390
L85110 74360
L85260 74360
L85330 74390
" />
<path d="M85610 74880
L85710 74090
" />
<path d="M85950 74880
L86000 74470
L85970 74390
L85900 74360
L85790 74360
L85710 74390
L85660 74430
" />
<path d="M87110 75180
L87080 75150
L87020 75030
L86990 74960
L86970 74840
L86950 74660
L86970 74510
L87030 74320
L87080 74210
L87130 74130
L87220 74020
L87260 73980
" />
<path d="M87500 74470
L87770 74470
" />
<path d="M87830 74880
L87450 74880
L87550 74090
L87930 74090
" />
<path d="M88150 74090
L88600 74090
" />
<path d="M88280 74880
L88380 74090
" />
<path d="M89080 74470
L89190 74510
L89220 74540
L89250 74620
L89240 74730
L89190 74810
L89150 74840
L89070 74880
L88770 74880
L88870 74090
L89130 74090
L89200 74130
L89230 74170
L89260 74240
L89250 74320
L89200 74390
L89160 74430
L89080 74470
L88820 74470
" />
<path d="M89440 75180
L89490 75150
L89580 75030
L89620 74960
L89680 74840
L89740 74660
L89760 74510
L89740 74320
L89720 74210
L89690 74130
L89630 74020
L89600 73980
" />
</g>
<g style="fill:#840000; fill-opacity:0.0; 
stroke:#840000; stroke-width:100; stroke-opacity:1; 
stroke-linecap:round; stroke-linejoin:round;">
</g>
<g style="fill:#840000; fill-opacity:0.0; 
stroke:#840000; stroke-width:60; stroke-opacity:1; 
stroke-linecap:round; stroke-linejoin:round;">
<text x="70080" y="73400"
textLength="8190" font-size="780" lengthAdjust="spacingAndGlyphs"
text-anchor="start" opacity="0">File: shifter_2.sch</text>
<path d="M70440 73060
L70250 73060
" />
<path d="M70250 73370
L70250 72780
L70530 72780
" />
<path d="M70750 73370
L70750 72980
" />
<path d="M70750 72780
L70720 72810
L70750 72840
L70780 72810
L70750 72780
L70750 72840
" />
<path d="M71120 73370
L71060 73340
L71030 73290
L71030 72780
" />
<path d="M71570 73340
L71510 73370
L71400 73370
L71340 73340
L71310 73290
L71310 73060
L71340 73010
L71400 72980
L71510 72980
L71570 73010
L71590 73060
L71590 73120
L71310 73180
" />
<path d="M71850 73320
L71880 73340
L71850 73370
L71820 73340
L71850 73320
L71850 73370
" />
<path d="M71850 73010
L71880 73030
L71850 73060
L71820 73030
L71850 73010
L71850 73060
" />
<path d="M72550 73340
L72610 73370
L72720 73370
L72770 73340
L72800 73290
L72800 73260
L72770 73200
L72720 73180
L72630 73180
L72580 73150
L72550 73090
L72550 73060
L72580 73010
L72630 72980
L72720 72980
L72770 73010
" />
<path d="M73060 73370
L73060 72780
" />
<path d="M73310 73370
L73310 73060
L73280 73010
L73220 72980
L73140 72980
L73080 73010
L73060 73030
" />
<path d="M73590 73370
L73590 72980
" />
<path d="M73590 72780
L73560 72810
L73590 72840
L73620 72810
L73590 72780
L73590 72840
" />
<path d="M73790 72980
L74010 72980
" />
<path d="M73870 73370
L73870 72870
L73900 72810
L73950 72780
L74010 72780
" />
<path d="M74120 72980
L74350 72980
" />
<path d="M74210 72780
L74210 73290
L74240 73340
L74290 73370
L74350 73370
" />
<path d="M74770 73340
L74710 73370
L74600 73370
L74540 73340
L74520 73290
L74520 73060
L74540 73010
L74600 72980
L74710 72980
L74770 73010
L74800 73060
L74800 73120
L74520 73180
" />
<path d="M75050 73370
L75050 72980
" />
<path d="M75050 73090
L75080 73030
L75110 73010
L75160 72980
L75220 72980
" />
<path d="M75270 73430
L75720 73430
" />
<path d="M75840 72840
L75860 72810
L75920 72780
L76060 72780
L76120 72810
L76150 72840
L76170 72890
L76170 72950
L76150 73030
L75810 73370
L76170 73370
" />
<path d="M76430 73320
L76450 73340
L76430 73370
L76400 73340
L76430 73320
L76430 73370
" />
<path d="M76680 73340
L76740 73370
L76850 73370
L76900 73340
L76930 73290
L76930 73260
L76900 73200
L76850 73180
L76760 73180
L76710 73150
L76680 73090
L76680 73060
L76710 73010
L76760 72980
L76850 72980
L76900 73010
" />
<path d="M77440 73340
L77380 73370
L77270 73370
L77210 73340
L77190 73320
L77160 73260
L77160 73090
L77190 73030
L77210 73010
L77270 72980
L77380 72980
L77440 73010
" />
<path d="M77690 73370
L77690 72780
" />
<path d="M77940 73370
L77940 73060
L77920 73010
L77860 72980
L77780 72980
L77720 73010
L77690 73030
" />
</g>
<g style="fill:#840000; fill-opacity:0.0; 
stroke:#840000; stroke-width:100; stroke-opacity:1; 
stroke-linecap:round; stroke-linejoin:round;">
</g>
<g style="fill:#840000; fill-opacity:0.0; 
stroke:#840000; stroke-width:60; stroke-opacity:1; 
stroke-linecap:round; stroke-linejoin:round;">
<path d="M69690 71460
L112210 71460
" />
</g>
<g style="fill:#840000; fill-opacity:0.0; 
stroke:#840000; stroke-width:100; stroke-opacity:1; 
stroke-linecap:round; stroke-linejoin:round;">
</g>
<g style="fill:#840000; fill-opacity:0.0; 
stroke:#840000; stroke-width:60; stroke-opacity:1; 
stroke-linecap:round; stroke-linejoin:round;">
<text x="70080" y="72340"
textLength="9130" font-size="780" lengthAdjust="spacingAndGlyphs"
text-anchor="start" opacity="0">Sheet: /Shift UART/</text>
<path d="M70220 72280
L70300 72310
L70440 72310
L70500 72280
L70530 72260
L70550 72200
L70550 72140
L70530 72090
L70500 72060
L70440 72030
L70330 72000
L70270 71970
L70250 71950
L70220 71890
L70220 71830
L70250 71780
L70270 71750
L70330 71720
L70470 71720
L70550 71750
" />
<path d="M70810 72310
L70810 71720
" />
<path d="M71060 72310
L71060 72000
L71030 71950
L70980 71920
L70890 71920
L70840 71950
L70810 71970
" />
<path d="M71570 72280
L71510 72310
L71400 72310
L71340 72280
L71310 72230
L71310 72000
L71340 71950
L71400 71920
L71510 71920
L71570 71950
L71590 72000
L71590 72060
L71310 72120
" />
<path d="M72070 72280
L72020 72310
L71900 72310
L71850 72280
L71820 72230
L71820 72000
L71850 71950
L71900 71920
L72020 71920
L72070 71950
L72100 72000
L72100 72060
L71820 72120
" />
<path d="M72270 71920
L72490 71920
" />
<path d="M72350 71720
L72350 72230
L72380 72280
L72440 72310
L72490 72310
" />
<path d="M72690 72260
L72720 72280
L72690 72310
L72660 72280
L72690 72260
L72690 72310
" />
<path d="M72690 71950
L72720 71970
L72690 72000
L72660 71970
L72690 71950
L72690 72000
" />
<path d="M73840 71690
L73340 72450
" />
<path d="M74010 72280
L74090 72310
L74240 72310
L74290 72280
L74320 72260
L74350 72200
L74350 72140
L74320 72090
L74290 72060
L74240 72030
L74120 72000
L74070 71970
L74040 71950
L74010 71890
L74010 71830
L74040 71780
L74070 71750
L74120 71720
L74260 71720
L74350 71750
" />
<path d="M74600 72310
L74600 71720
" />
<path d="M74850 72310
L74850 72000
L74830 71950
L74770 71920
L74680 71920
L74630 71950
L74600 71970
" />
<path d="M75130 72310
L75130 71920
" />
<path d="M75130 71720
L75110 71750
L75130 71780
L75160 71750
L75130 71720
L75130 71780
" />
<path d="M75330 71920
L75560 71920
" />
<path d="M75420 72310
L75420 71810
L75440 71750
L75500 71720
L75560 71720
" />
<path d="M75670 71920
L75890 71920
" />
<path d="M75750 71720
L75750 72230
L75780 72280
L75840 72310
L75890 72310
" />
<path d="M76540 71720
L76540 72200
L76570 72260
L76600 72280
L76650 72310
L76760 72310
L76820 72280
L76850 72260
L76880 72200
L76880 71720
" />
<path d="M77130 72140
L77410 72140
" />
<path d="M77070 72310
L77270 71720
L77470 72310
" />
<path d="M78000 72310
L77800 72030
" />
<path d="M77660 72310
L77660 71720
L77890 71720
L77940 71750
L77970 71780
L78000 71830
L78000 71920
L77970 71970
L77940 72000
L77890 72030
L77660 72030
" />
<path d="M78170 71720
L78510 71720
" />
<path d="M78340 72310
L78340 71720
" />
<path d="M79120 71690
L78620 72450
" />
</g>
<g style="fill:#840000; fill-opacity:0.0; 
stroke:#840000; stroke-width:100; stroke-opacity:1; 
stroke-linecap:round; stroke-linejoin:round;">
</g>
<g style="fill:#840000; fill-opacity:0.0; 
stroke:#840000; stroke-width:120; stroke-opacity:1; 
stroke-linecap:round; stroke-linejoin:round;">
<text x="70080" y="71160"
textLength="9250" font-size="780" lengthAdjust="spacingAndGlyphs"
text-anchor="start" opacity="0">UAS Technikum Wien</text>
<path d="M70290 70540
L70290 71020
L70320 71080
L70350 71100
L70410 71130
L70520 71130
L70570 71100
L70600 71080
L70630 71020
L70630 70540
" />
<path d="M70880 70960
L71160 70960
" />
<path d="M70830 71130
L71020 70540
L71220 71130
" />
<path d="M71390 71100
L71470 71130
L71610 71130
L71670 71100
L71700 71080
L71730 71020
L71730 70960
L71700 70910
L71670 70880
L71610 70850
L71500 70820
L71450 70790
L71420 70770
L71390 70710
L71390 70650
L71420 70600
L71450 70570
L71500 70540
L71640 70540
L71730 70570
" />
<path d="M72340 70540
L72680 70540
" />
<path d="M72510 71130
L72510 70540
" />
<path d="M73100 71100
L73050 71130
L72930 71130
L72880 71100
L72850 71050
L72850 70820
L72880 70770
L72930 70740
L73050 70740
L73100 70770
L73130 70820
L73130 70880
L72850 70940
" />
<path d="M73640 71100
L73580 71130
L73470 71130
L73410 71100
L73380 71080
L73360 71020
L73360 70850
L73380 70790
L73410 70770
L73470 70740
L73580 70740
L73640 70770
" />
<path d="M73890 71130
L73890 70540
" />
<path d="M74140 71130
L74140 70820
L74110 70770
L74060 70740
L73970 70740
L73920 70770
L73890 70790
" />
<path d="M74420 70740
L74420 71130
" />
<path d="M74420 70790
L74450 70770
L74510 70740
L74590 70740
L74650 70770
L74680 70820
L74680 71130
" />
<path d="M74960 71130
L74960 70740
" />
<path d="M74960 70540
L74930 70570
L74960 70600
L74990 70570
L74960 70540
L74960 70600
" />
<path d="M75240 71130
L75240 70540
" />
<path d="M75290 70910
L75460 71130
" />
<path d="M75460 70740
L75240 70960
" />
<path d="M75970 70740
L75970 71130
" />
<path d="M75720 70740
L75720 71050
L75740 71100
L75800 71130
L75880 71130
L75940 71100
L75970 71080
" />
<path d="M76250 71130
L76250 70740
" />
<path d="M76250 70790
L76280 70770
L76330 70740
L76420 70740
L76470 70770
L76500 70820
L76500 71130
" />
<path d="M76500 70820
L76530 70770
L76590 70740
L76670 70740
L76730 70770
L76760 70820
L76760 71130
" />
<path d="M77430 70540
L77570 71130
L77680 70710
L77790 71130
L77940 70540
" />
<path d="M78160 71130
L78160 70740
" />
<path d="M78160 70540
L78130 70570
L78160 70600
L78190 70570
L78160 70540
L78160 70600
" />
<path d="M78670 71100
L78610 71130
L78500 71130
L78440 71100
L78410 71050
L78410 70820
L78440 70770
L78500 70740
L78610 70740
L78670 70770
L78690 70820
L78690 70880
L78410 70940
" />
<path d="M78950 70740
L78950 71130
" />
<path d="M78950 70790
L78970 70770
L79030 70740
L79120 70740
L79170 70770
L79200 70820
L79200 71130
" />
</g>
<g style="fill:#840000; fill-opacity:0.0; 
stroke:#840000; stroke-width:100; stroke-opacity:1; 
stroke-linecap:round; stroke-linejoin:round;">
</g>
<g style="fill:#840000; fill-opacity:0.0; 
stroke:#840000; stroke-width:60; stroke-opacity:1; 
stroke-linecap:round; stroke-linejoin:round;">
<path d="M77560 75400
L77560 76580
" />
</g>
<g style="fill:#840000; fill-opacity:0.0; 
stroke:#840000; stroke-width:100; stroke-opacity:1; 
stroke-linecap:round; stroke-linejoin:round;">
</g>
<g style="fill:#840000; fill-opacity:0.0; 
stroke:#840000; stroke-width:60; stroke-opacity:1; 
stroke-linecap:round; stroke-linejoin:round;">
<path d="M102760 75400
L102760 77960
" />
</g>
<g style="fill:#840000; fill-opacity:0.0; 
stroke:#840000; stroke-width:0; stroke-opacity:1; 
stroke-linecap:round; stroke-linejoin:round;">
<g >
</g>
<g style="fill:#840000; fill-opacity:0.0; 
stroke:#840000; stroke-width:100; stroke-opacity:1; 
stroke-linecap:round; stroke-linejoin:round;">
<rect x="58600" y="39500" width="800" height="2000" rx="0" />
</g>
<g style="fill:#840000; fill-opacity:0.0; 
stroke:#840000; stroke-width:60; stroke-opacity:1; 
stroke-linecap:round; stroke-linejoin:round;">
<path d="M59000 39500
L59000 39000
" />
<path d="M59000 41500
L59000 42000
" />
</g>
<g style="fill:#008484; fill-opacity:0.0; 
stroke:#008484; stroke-width:60; stroke-opacity:1; 
stroke-linecap:round; stroke-linejoin:round;">
<text x="60450" y="40310"
textLength="1610" font-size="660" lengthAdjust="spacingAndGlyphs"
text-anchor="middle" opacity="0">R35</text>
<path d="M60120 40280
L59960 40040
" />
<path d="M59840 40280
L59840 39780
L60030 39780
L60080 39810
L60100 39830
L60120 39880
L60120 39950
L60100 40000
L60080 40020
L60030 40040
L59840 40040
" />
<path d="M60290 39780
L60600 39780
L60430 39970
L60500 39970
L60550 40000
L60580 40020
L60600 40070
L60600 40190
L60580 40230
L60550 40260
L60500 40280
L60360 40280
L60310 40260
L60290 40230
" />
<path d="M61050 39780
L60810 39780
L60790 40020
L60810 40000
L60860 39970
L60980 39970
L61030 40000
L61050 40020
L61080 40070
L61080 40190
L61050 40230
L61030 40260
L60980 40280
L60860 40280
L60810 40260
L60790 40230
" />
<text x="60410" y="41220"
textLength="1420" font-size="660" lengthAdjust="spacingAndGlyphs"
text-anchor="middle" opacity="0">10k</text>
<path d="M60110 41190
L59820 41190
" />
<path d="M59960 41190
L59960 40690
L59920 40760
L59870 40810
L59820 40830
" />
<path d="M60420 40690
L60460 40690
L60510 40720
L60540 40740
L60560 40790
L60580 40880
L60580 41000
L60560 41100
L60540 41140
L60510 41170
L60460 41190
L60420 41190
L60370 41170
L60350 41140
L60320 41100
L60300 41000
L60300 40880
L60320 40790
L60350 40740
L60370 40720
L60420 40690
" />
<path d="M60800 41190
L60800 40690
" />
<path d="M60850 41000
L60990 41190
" />
<path d="M60990 40860
L60800 41050
" />
</g>
</g>
<g style="fill:#008484; fill-opacity:0.0; 
stroke:#008484; stroke-width:0; stroke-opacity:1; 
stroke-linecap:round; stroke-linejoin:round;">
<g >
</g>
<g style="fill:#840000; fill-opacity:0.0; 
stroke:#840000; stroke-width:0; stroke-opacity:1; 
stroke-linecap:round; stroke-linejoin:round;">
</g>
<g style="fill:#840000; fill-opacity:0.0; 
stroke:#840000; stroke-width:100; stroke-opacity:1; 
stroke-linecap:round; stroke-linejoin:round;">
<rect x="58600" y="33000" width="800" height="2000" rx="0" />
</g>
<g style="fill:#840000; fill-opacity:0.0; 
stroke:#840000; stroke-width:60; stroke-opacity:1; 
stroke-linecap:round; stroke-linejoin:round;">
<path d="M59000 33000
L59000 32500
" />
<path d="M59000 35000
L59000 35500
" />
</g>
<g style="fill:#008484; fill-opacity:0.0; 
stroke:#008484; stroke-width:60; stroke-opacity:1; 
stroke-linecap:round; stroke-linejoin:round;">
<text x="60450" y="33810"
textLength="1510" font-size="660" lengthAdjust="spacingAndGlyphs"
text-anchor="middle" opacity="0">R34</text>
<path d="M60120 33780
L59960 33540
" />
<path d="M59840 33780
L59840 33280
L60030 33280
L60080 33310
L60100 33330
L60120 33380
L60120 33450
L60100 33500
L60080 33520
L60030 33540
L59840 33540
" />
<path d="M60290 33280
L60600 33280
L60430 33470
L60500 33470
L60550 33500
L60580 33520
L60600 33570
L60600 33690
L60580 33730
L60550 33760
L60500 33780
L60360 33780
L60310 33760
L60290 33730
" />
<path d="M61030 33450
L61030 33780
" />
<path d="M60910 33260
L60790 33610
L61100 33610
" />
<text x="60410" y="34720"
textLength="1420" font-size="660" lengthAdjust="spacingAndGlyphs"
text-anchor="middle" opacity="0">10k</text>
<path d="M60110 34690
L59820 34690
" />
<path d="M59960 34690
L59960 34190
L59920 34260
L59870 34310
L59820 34330
" />
<path d="M60420 34190
L60460 34190
L60510 34220
L60540 34240
L60560 34290
L60580 34380
L60580 34500
L60560 34600
L60540 34640
L60510 34670
L60460 34690
L60420 34690
L60370 34670
L60350 34640
L60320 34600
L60300 34500
L60300 34380
L60320 34290
L60350 34240
L60370 34220
L60420 34190
" />
<path d="M60800 34690
L60800 34190
" />
<path d="M60850 34500
L60990 34690
" />
<path d="M60990 34360
L60800 34550
" />
</g>
</g>
<g style="fill:#008484; fill-opacity:0.0; 
stroke:#008484; stroke-width:0; stroke-opacity:1; 
stroke-linecap:round; stroke-linejoin:round;">
<g >
</g>
<g style="fill:#840000; fill-opacity:0.0; 
stroke:#840000; stroke-width:0; stroke-opacity:1; 
stroke-linecap:round; stroke-linejoin:round;">
</g>
<g style="fill:#840000; fill-opacity:0.0; 
stroke:#840000; stroke-width:100; stroke-opacity:1; 
stroke-linecap:round; stroke-linejoin:round;">
<rect x="52600" y="33000" width="800" height="2000" rx="0" />
</g>
<g style="fill:#840000; fill-opacity:0.0; 
stroke:#840000; stroke-width:60; stroke-opacity:1; 
stroke-linecap:round; stroke-linejoin:round;">
<path d="M53000 33000
L53000 32500
" />
<path d="M53000 35000
L53000 35500
" />
</g>
<g style="fill:#008484; fill-opacity:0.0; 
stroke:#008484; stroke-width:60; stroke-opacity:1; 
stroke-linecap:round; stroke-linejoin:round;">
<text x="54450" y="33810"
textLength="1510" font-size="660" lengthAdjust="spacingAndGlyphs"
text-anchor="middle" opacity="0">R32</text>
<path d="M54120 33780
L53960 33540
" />
<path d="M53840 33780
L53840 33280
L54030 33280
L54080 33310
L54100 33330
L54120 33380
L54120 33450
L54100 33500
L54080 33520
L54030 33540
L53840 33540
" />
<path d="M54290 33280
L54600 33280
L54430 33470
L54500 33470
L54550 33500
L54580 33520
L54600 33570
L54600 33690
L54580 33730
L54550 33760
L54500 33780
L54360 33780
L54310 33760
L54290 33730
" />
<path d="M54790 33330
L54810 33310
L54860 33280
L54980 33280
L55030 33310
L55050 33330
L55080 33380
L55080 33420
L55050 33500
L54770 33780
L55080 33780
" />
<text x="54410" y="34720"
textLength="1420" font-size="660" lengthAdjust="spacingAndGlyphs"
text-anchor="middle" opacity="0">10k</text>
<path d="M54110 34690
L53820 34690
" />
<path d="M53960 34690
L53960 34190
L53920 34260
L53870 34310
L53820 34330
" />
<path d="M54420 34190
L54460 34190
L54510 34220
L54540 34240
L54560 34290
L54580 34380
L54580 34500
L54560 34600
L54540 34640
L54510 34670
L54460 34690
L54420 34690
L54370 34670
L54350 34640
L54320 34600
L54300 34500
L54300 34380
L54320 34290
L54350 34240
L54370 34220
L54420 34190
" />
<path d="M54800 34690
L54800 34190
" />
<path d="M54850 34500
L54990 34690
" />
<path d="M54990 34360
L54800 34550
" />
</g>
</g>
<g style="fill:#008484; fill-opacity:0.0; 
stroke:#008484; stroke-width:0; stroke-opacity:1; 
stroke-linecap:round; stroke-linejoin:round;">
<g >
</g>
<g style="fill:#840000; fill-opacity:0.0; 
stroke:#840000; stroke-width:0; stroke-opacity:1; 
stroke-linecap:round; stroke-linejoin:round;">
</g>
<g style="fill:#840000; fill-opacity:0.0; 
stroke:#840000; stroke-width:100; stroke-opacity:1; 
stroke-linecap:round; stroke-linejoin:round;">
<circle cx="56000" cy="42650" r="1110" /> 
</g>
<g style="fill:#840000; fill-opacity:1.0; 
stroke:#840000; stroke-width:60; stroke-opacity:1; 
stroke-linecap:round; stroke-linejoin:round;">
<circle cx="55300" cy="43000" r="110" /> 
<circle cx="56700" cy="43000" r="110" /> 
</g>
<g style="fill:#840000; fill-opacity:0.0; 
stroke:#840000; stroke-width:60; stroke-opacity:1; 
stroke-linecap:round; stroke-linejoin:round;">
<path style="fill:#840000; fill-opacity:0.0; 
stroke:#840000; stroke-width:60; stroke-opacity:1; 
stroke-linecap:round; stroke-linejoin:round;fill:none"
d="M 55300,42300
55300,43000
" /> 
</g>
<g style="fill:#840000; fill-opacity:0.0; 
stroke:#840000; stroke-width:100; stroke-opacity:1; 
stroke-linecap:round; stroke-linejoin:round;">
<path style="fill:#840000; fill-opacity:0.0; 
stroke:#840000; stroke-width:100; stroke-opacity:1; 
stroke-linecap:round; stroke-linejoin:round;fill:none"
d="M 55500,42300
55100,42300
" /> 
</g>
<g style="fill:#840000; fill-opacity:0.0; 
stroke:#840000; stroke-width:60; stroke-opacity:1; 
stroke-linecap:round; stroke-linejoin:round;">
<path style="fill:#840000; fill-opacity:0.0; 
stroke:#840000; stroke-width:60; stroke-opacity:1; 
stroke-linecap:round; stroke-linejoin:round;fill:none"
d="M 56000,42300
56000,43000
" /> 
</g>
<g style="fill:#840000; fill-opacity:0.0; 
stroke:#840000; stroke-width:100; stroke-opacity:1; 
stroke-linecap:round; stroke-linejoin:round;">
<path style="fill:#840000; fill-opacity:0.0; 
stroke:#840000; stroke-width:100; stroke-opacity:1; 
stroke-linecap:round; stroke-linejoin:round;fill:none"
d="M 56200,42300
55800,42300
" /> 
</g>
<g style="fill:#840000; fill-opacity:0.0; 
stroke:#840000; stroke-width:60; stroke-opacity:1; 
stroke-linecap:round; stroke-linejoin:round;">
<path style="fill:#840000; fill-opacity:0.0; 
stroke:#840000; stroke-width:60; stroke-opacity:1; 
stroke-linecap:round; stroke-linejoin:round;fill:none"
d="M 56700,42300
56700,43000
" /> 
</g>
<g style="fill:#840000; fill-opacity:0.0; 
stroke:#840000; stroke-width:100; stroke-opacity:1; 
stroke-linecap:round; stroke-linejoin:round;">
<path style="fill:#840000; fill-opacity:0.0; 
stroke:#840000; stroke-width:100; stroke-opacity:1; 
stroke-linecap:round; stroke-linejoin:round;fill:none"
d="M 56900,42300
56500,42300
" /> 
</g>
<g style="fill:#840000; fill-opacity:0.0; 
stroke:#840000; stroke-width:60; stroke-opacity:1; 
stroke-linecap:round; stroke-linejoin:round;">
<path style="fill:#840000; fill-opacity:0.0; 
stroke:#840000; stroke-width:60; stroke-opacity:1; 
stroke-linecap:round; stroke-linejoin:round;fill:none"
d="M 55300,43000
55000,43000
" /> 
<path style="fill:#840000; fill-opacity:0.0; 
stroke:#840000; stroke-width:60; stroke-opacity:1; 
stroke-linecap:round; stroke-linejoin:round;fill:none"
d="M 55300,43000
56000,43000
" /> 
<path style="fill:#840000; fill-opacity:0.0; 
stroke:#840000; stroke-width:60; stroke-opacity:1; 
stroke-linecap:round; stroke-linejoin:round;fill:none"
d="M 57000,43000
56700,43000
" /> 
</g>
<g style="fill:#840000; fill-opacity:0.0; 
stroke:#840000; stroke-width:100; stroke-opacity:1; 
stroke-linecap:round; stroke-linejoin:round;">
<path style="fill:#840000; fill-opacity:0.0; 
stroke:#840000; stroke-width:100; stroke-opacity:1; 
stroke-linecap:round; stroke-linejoin:round;fill:none"
d="M 56750,42100
55250,42100
55250,42100
" /> 
</g>
<g style="fill:#840000; fill-opacity:1.0; 
stroke:#840000; stroke-width:60; stroke-opacity:1; 
stroke-linecap:round; stroke-linejoin:round;">
<path style="fill:#840000; fill-opacity:1.0; 
stroke:#840000; stroke-width:60; stroke-opacity:1; 
stroke-linecap:round; stroke-linejoin:round;fill-rule:evenodd;"
d="M 56000,42400
56150,42800
55850,42800
Z" /> 
</g>
<g style="fill:#840000; fill-opacity:0.0; 
stroke:#840000; stroke-width:60; stroke-opacity:1; 
stroke-linecap:round; stroke-linejoin:round;">
<path style="fill:#840000; fill-opacity:0.0; 
stroke:#840000; stroke-width:60; stroke-opacity:1; 
stroke-linecap:round; stroke-linejoin:round;fill:none"
d="M 55300,43000
55300,43300
56700,43300
56700,43000
" /> 
<path style="fill:#840000; fill-opacity:0.0; 
stroke:#840000; stroke-width:60; stroke-opacity:1; 
stroke-linecap:round; stroke-linejoin:round;fill:none"
d="M 56200,43100
56150,43150
56150,43450
56100,43500
" /> 
<path style="fill:#840000; fill-opacity:0.0; 
stroke:#840000; stroke-width:60; stroke-opacity:1; 
stroke-linecap:round; stroke-linejoin:round;fill:none"
d="M 56150,43300
55900,43150
55900,43450
Z" /> 
<path d="M56000 42100
L56000 40000
" />
<g transform="rotate(-90 56100 41050)">
<text x="56100" y="41550"
textLength="540" font-size="660" lengthAdjust="spacingAndGlyphs"
text-anchor="middle" opacity="0">1</text>
</g>
<path d="M56570 40900
L56570 41190
" />
<path d="M56570 41050
L56070 41050
L56140 41090
L56190 41140
L56210 41190
" />
<path d="M55000 43000
L54000 43000
" />
<text x="54500" y="43600"
textLength="540" font-size="660" lengthAdjust="spacingAndGlyphs"
text-anchor="middle" opacity="0">2</text>
<path d="M54350 43120
L54380 43100
L54420 43070
L54540 43070
L54590 43100
L54610 43120
L54640 43170
L54640 43210
L54610 43290
L54330 43570
L54640 43570
" />
<path d="M57000 43000
L58000 43000
" />
<text x="57500" y="43600"
textLength="540" font-size="660" lengthAdjust="spacingAndGlyphs"
text-anchor="middle" opacity="0">3</text>
<path d="M57330 43070
L57640 43070
L57470 43260
L57540 43260
L57590 43290
L57610 43310
L57640 43360
L57640 43480
L57610 43520
L57590 43550
L57540 43570
L57400 43570
L57350 43550
L57330 43520
" />
</g>
<g style="fill:#008484; fill-opacity:0.0; 
stroke:#008484; stroke-width:60; stroke-opacity:1; 
stroke-linecap:round; stroke-linejoin:round;">
<text x="57500" y="41270"
textLength="1060" font-size="660" lengthAdjust="spacingAndGlyphs"
text-anchor="middle" opacity="0">Q6</text>
<path d="M57450 41290
L57400 41270
L57350 41220
L57280 41150
L57230 41120
L57190 41120
" />
<path d="M57210 41240
L57160 41220
L57110 41170
L57090 41070
L57090 40910
L57110 40810
L57160 40770
L57210 40740
L57300 40740
L57350 40770
L57400 40810
L57420 40910
L57420 41070
L57400 41170
L57350 41220
L57300 41240
L57210 41240
" />
<path d="M57850 40740
L57760 40740
L57710 40770
L57690 40790
L57640 40860
L57610 40960
L57610 41150
L57640 41190
L57660 41220
L57710 41240
L57800 41240
L57850 41220
L57880 41190
L57900 41150
L57900 41030
L57880 40980
L57850 40960
L57800 40930
L57710 40930
L57660 40960
L57640 40980
L57610 41030
" />
<text x="56000" y="44770"
textLength="2940" font-size="660" lengthAdjust="spacingAndGlyphs"
text-anchor="middle" opacity="0">BSS138</text>
<path d="M54840 44480
L54910 44500
L54940 44530
L54960 44570
L54960 44650
L54940 44690
L54910 44720
L54860 44740
L54670 44740
L54670 44240
L54840 44240
L54890 44270
L54910 44290
L54940 44340
L54940 44380
L54910 44430
L54890 44460
L54840 44480
L54670 44480
" />
<path d="M55150 44720
L55220 44740
L55340 44740
L55390 44720
L55410 44690
L55440 44650
L55440 44600
L55410 44550
L55390 44530
L55340 44500
L55250 44480
L55200 44460
L55170 44430
L55150 44380
L55150 44340
L55170 44290
L55200 44270
L55250 44240
L55360 44240
L55440 44270
" />
<path d="M55630 44720
L55700 44740
L55820 44740
L55860 44720
L55890 44690
L55910 44650
L55910 44600
L55890 44550
L55860 44530
L55820 44500
L55720 44480
L55670 44460
L55650 44430
L55630 44380
L55630 44340
L55650 44290
L55670 44270
L55720 44240
L55840 44240
L55910 44270
" />
<path d="M56390 44740
L56100 44740
" />
<path d="M56250 44740
L56250 44240
L56200 44310
L56150 44360
L56100 44380
" />
<path d="M56550 44240
L56860 44240
L56700 44430
L56770 44430
L56820 44460
L56840 44480
L56860 44530
L56860 44650
L56840 44690
L56820 44720
L56770 44740
L56630 44740
L56580 44720
L56550 44690
" />
<path d="M57150 44460
L57100 44430
L57080 44410
L57050 44360
L57050 44340
L57080 44290
L57100 44270
L57150 44240
L57250 44240
L57290 44270
L57320 44290
L57340 44340
L57340 44360
L57320 44410
L57290 44430
L57250 44460
L57150 44460
L57100 44480
L57080 44500
L57050 44550
L57050 44650
L57080 44690
L57100 44720
L57150 44740
L57250 44740
L57290 44720
L57320 44690
L57340 44650
L57340 44550
L57320 44500
L57290 44480
L57250 44460
" />
</g>
</g>
<g style="fill:#008484; fill-opacity:0.0; 
stroke:#008484; stroke-width:0; stroke-opacity:1; 
stroke-linecap:round; stroke-linejoin:round;">
<g >
</g>
<g style="fill:#840000; fill-opacity:0.0; 
stroke:#840000; stroke-width:0; stroke-opacity:1; 
stroke-linecap:round; stroke-linejoin:round;">
</g>
<g style="fill:#840000; fill-opacity:0.0; 
stroke:#840000; stroke-width:100; stroke-opacity:1; 
stroke-linecap:round; stroke-linejoin:round;">
<circle cx="56000" cy="36150" r="1110" /> 
</g>
<g style="fill:#840000; fill-opacity:1.0; 
stroke:#840000; stroke-width:60; stroke-opacity:1; 
stroke-linecap:round; stroke-linejoin:round;">
<circle cx="55300" cy="36500" r="110" /> 
<circle cx="56700" cy="36500" r="110" /> 
</g>
<g style="fill:#840000; fill-opacity:0.0; 
stroke:#840000; stroke-width:60; stroke-opacity:1; 
stroke-linecap:round; stroke-linejoin:round;">
<path style="fill:#840000; fill-opacity:0.0; 
stroke:#840000; stroke-width:60; stroke-opacity:1; 
stroke-linecap:round; stroke-linejoin:round;fill:none"
d="M 55300,35800
55300,36500
" /> 
</g>
<g style="fill:#840000; fill-opacity:0.0; 
stroke:#840000; stroke-width:100; stroke-opacity:1; 
stroke-linecap:round; stroke-linejoin:round;">
<path style="fill:#840000; fill-opacity:0.0; 
stroke:#840000; stroke-width:100; stroke-opacity:1; 
stroke-linecap:round; stroke-linejoin:round;fill:none"
d="M 55500,35800
55100,35800
" /> 
</g>
<g style="fill:#840000; fill-opacity:0.0; 
stroke:#840000; stroke-width:60; stroke-opacity:1; 
stroke-linecap:round; stroke-linejoin:round;">
<path style="fill:#840000; fill-opacity:0.0; 
stroke:#840000; stroke-width:60; stroke-opacity:1; 
stroke-linecap:round; stroke-linejoin:round;fill:none"
d="M 56000,35800
56000,36500
" /> 
</g>
<g style="fill:#840000; fill-opacity:0.0; 
stroke:#840000; stroke-width:100; stroke-opacity:1; 
stroke-linecap:round; stroke-linejoin:round;">
<path style="fill:#840000; fill-opacity:0.0; 
stroke:#840000; stroke-width:100; stroke-opacity:1; 
stroke-linecap:round; stroke-linejoin:round;fill:none"
d="M 56200,35800
55800,35800
" /> 
</g>
<g style="fill:#840000; fill-opacity:0.0; 
stroke:#840000; stroke-width:60; stroke-opacity:1; 
stroke-linecap:round; stroke-linejoin:round;">
<path style="fill:#840000; fill-opacity:0.0; 
stroke:#840000; stroke-width:60; stroke-opacity:1; 
stroke-linecap:round; stroke-linejoin:round;fill:none"
d="M 56700,35800
56700,36500
" /> 
</g>
<g style="fill:#840000; fill-opacity:0.0; 
stroke:#840000; stroke-width:100; stroke-opacity:1; 
stroke-linecap:round; stroke-linejoin:round;">
<path style="fill:#840000; fill-opacity:0.0; 
stroke:#840000; stroke-width:100; stroke-opacity:1; 
stroke-linecap:round; stroke-linejoin:round;fill:none"
d="M 56900,35800
56500,35800
" /> 
</g>
<g style="fill:#840000; fill-opacity:0.0; 
stroke:#840000; stroke-width:60; stroke-opacity:1; 
stroke-linecap:round; stroke-linejoin:round;">
<path style="fill:#840000; fill-opacity:0.0; 
stroke:#840000; stroke-width:60; stroke-opacity:1; 
stroke-linecap:round; stroke-linejoin:round;fill:none"
d="M 55300,36500
55000,36500
" /> 
<path style="fill:#840000; fill-opacity:0.0; 
stroke:#840000; stroke-width:60; stroke-opacity:1; 
stroke-linecap:round; stroke-linejoin:round;fill:none"
d="M 55300,36500
56000,36500
" /> 
<path style="fill:#840000; fill-opacity:0.0; 
stroke:#840000; stroke-width:60; stroke-opacity:1; 
stroke-linecap:round; stroke-linejoin:round;fill:none"
d="M 57000,36500
56700,36500
" /> 
</g>
<g style="fill:#840000; fill-opacity:0.0; 
stroke:#840000; stroke-width:100; stroke-opacity:1; 
stroke-linecap:round; stroke-linejoin:round;">
<path style="fill:#840000; fill-opacity:0.0; 
stroke:#840000; stroke-width:100; stroke-opacity:1; 
stroke-linecap:round; stroke-linejoin:round;fill:none"
d="M 56750,35600
55250,35600
55250,35600
" /> 
</g>
<g style="fill:#840000; fill-opacity:1.0; 
stroke:#840000; stroke-width:60; stroke-opacity:1; 
stroke-linecap:round; stroke-linejoin:round;">
<path style="fill:#840000; fill-opacity:1.0; 
stroke:#840000; stroke-width:60; stroke-opacity:1; 
stroke-linecap:round; stroke-linejoin:round;fill-rule:evenodd;"
d="M 56000,35900
56150,36300
55850,36300
Z" /> 
</g>
<g style="fill:#840000; fill-opacity:0.0; 
stroke:#840000; stroke-width:60; stroke-opacity:1; 
stroke-linecap:round; stroke-linejoin:round;">
<path style="fill:#840000; fill-opacity:0.0; 
stroke:#840000; stroke-width:60; stroke-opacity:1; 
stroke-linecap:round; stroke-linejoin:round;fill:none"
d="M 55300,36500
55300,36800
56700,36800
56700,36500
" /> 
<path style="fill:#840000; fill-opacity:0.0; 
stroke:#840000; stroke-width:60; stroke-opacity:1; 
stroke-linecap:round; stroke-linejoin:round;fill:none"
d="M 56200,36600
56150,36650
56150,36950
56100,37000
" /> 
<path style="fill:#840000; fill-opacity:0.0; 
stroke:#840000; stroke-width:60; stroke-opacity:1; 
stroke-linecap:round; stroke-linejoin:round;fill:none"
d="M 56150,36800
55900,36650
55900,36950
Z" /> 
<path d="M56000 35600
L56000 33500
" />
<g transform="rotate(-90 56100 34550)">
<text x="56100" y="35050"
textLength="540" font-size="660" lengthAdjust="spacingAndGlyphs"
text-anchor="middle" opacity="0">1</text>
</g>
<path d="M56570 34400
L56570 34690
" />
<path d="M56570 34550
L56070 34550
L56140 34590
L56190 34640
L56210 34690
" />
<path d="M55000 36500
L54000 36500
" />
<text x="54500" y="37100"
textLength="540" font-size="660" lengthAdjust="spacingAndGlyphs"
text-anchor="middle" opacity="0">2</text>
<path d="M54350 36620
L54380 36600
L54420 36570
L54540 36570
L54590 36600
L54610 36620
L54640 36670
L54640 36710
L54610 36790
L54330 37070
L54640 37070
" />
<path d="M57000 36500
L58000 36500
" />
<text x="57500" y="37100"
textLength="540" font-size="660" lengthAdjust="spacingAndGlyphs"
text-anchor="middle" opacity="0">3</text>
<path d="M57330 36570
L57640 36570
L57470 36760
L57540 36760
L57590 36790
L57610 36810
L57640 36860
L57640 36980
L57610 37020
L57590 37050
L57540 37070
L57400 37070
L57350 37050
L57330 37020
" />
</g>
<g style="fill:#008484; fill-opacity:0.0; 
stroke:#008484; stroke-width:60; stroke-opacity:1; 
stroke-linecap:round; stroke-linejoin:round;">
<text x="57500" y="34770"
textLength="1060" font-size="660" lengthAdjust="spacingAndGlyphs"
text-anchor="middle" opacity="0">Q5</text>
<path d="M57450 34790
L57400 34770
L57350 34720
L57280 34650
L57230 34620
L57190 34620
" />
<path d="M57210 34740
L57160 34720
L57110 34670
L57090 34570
L57090 34410
L57110 34310
L57160 34270
L57210 34240
L57300 34240
L57350 34270
L57400 34310
L57420 34410
L57420 34570
L57400 34670
L57350 34720
L57300 34740
L57210 34740
" />
<path d="M57880 34240
L57640 34240
L57610 34480
L57640 34460
L57690 34430
L57800 34430
L57850 34460
L57880 34480
L57900 34530
L57900 34650
L57880 34690
L57850 34720
L57800 34740
L57690 34740
L57640 34720
L57610 34690
" />
<text x="56000" y="38270"
textLength="2940" font-size="660" lengthAdjust="spacingAndGlyphs"
text-anchor="middle" opacity="0">BSS138</text>
<path d="M54840 37980
L54910 38000
L54940 38030
L54960 38070
L54960 38150
L54940 38190
L54910 38220
L54860 38240
L54670 38240
L54670 37740
L54840 37740
L54890 37770
L54910 37790
L54940 37840
L54940 37880
L54910 37930
L54890 37960
L54840 37980
L54670 37980
" />
<path d="M55150 38220
L55220 38240
L55340 38240
L55390 38220
L55410 38190
L55440 38150
L55440 38100
L55410 38050
L55390 38030
L55340 38000
L55250 37980
L55200 37960
L55170 37930
L55150 37880
L55150 37840
L55170 37790
L55200 37770
L55250 37740
L55360 37740
L55440 37770
" />
<path d="M55630 38220
L55700 38240
L55820 38240
L55860 38220
L55890 38190
L55910 38150
L55910 38100
L55890 38050
L55860 38030
L55820 38000
L55720 37980
L55670 37960
L55650 37930
L55630 37880
L55630 37840
L55650 37790
L55670 37770
L55720 37740
L55840 37740
L55910 37770
" />
<path d="M56390 38240
L56100 38240
" />
<path d="M56250 38240
L56250 37740
L56200 37810
L56150 37860
L56100 37880
" />
<path d="M56550 37740
L56860 37740
L56700 37930
L56770 37930
L56820 37960
L56840 37980
L56860 38030
L56860 38150
L56840 38190
L56820 38220
L56770 38240
L56630 38240
L56580 38220
L56550 38190
" />
<path d="M57150 37960
L57100 37930
L57080 37910
L57050 37860
L57050 37840
L57080 37790
L57100 37770
L57150 37740
L57250 37740
L57290 37770
L57320 37790
L57340 37840
L57340 37860
L57320 37910
L57290 37930
L57250 37960
L57150 37960
L57100 37980
L57080 38000
L57050 38050
L57050 38150
L57080 38190
L57100 38220
L57150 38240
L57250 38240
L57290 38220
L57320 38190
L57340 38150
L57340 38050
L57320 38000
L57290 37980
L57250 37960
" />
</g>
</g>
<g style="fill:#008484; fill-opacity:0.0; 
stroke:#008484; stroke-width:0; stroke-opacity:1; 
stroke-linecap:round; stroke-linejoin:round;">
<g >
</g>
<g style="fill:#840000; fill-opacity:0.0; 
stroke:#840000; stroke-width:0; stroke-opacity:1; 
stroke-linecap:round; stroke-linejoin:round;">
</g>
<g style="fill:#840000; fill-opacity:0.0; 
stroke:#840000; stroke-width:100; stroke-opacity:1; 
stroke-linecap:round; stroke-linejoin:round;">
<rect x="52600" y="39500" width="800" height="2000" rx="0" />
</g>
<g style="fill:#840000; fill-opacity:0.0; 
stroke:#840000; stroke-width:60; stroke-opacity:1; 
stroke-linecap:round; stroke-linejoin:round;">
<path d="M53000 39500
L53000 39000
" />
<path d="M53000 41500
L53000 42000
" />
</g>
<g style="fill:#008484; fill-opacity:0.0; 
stroke:#008484; stroke-width:60; stroke-opacity:1; 
stroke-linecap:round; stroke-linejoin:round;">
<text x="54450" y="40310"
textLength="1510" font-size="660" lengthAdjust="spacingAndGlyphs"
text-anchor="middle" opacity="0">R33</text>
<path d="M54120 40280
L53960 40040
" />
<path d="M53840 40280
L53840 39780
L54030 39780
L54080 39810
L54100 39830
L54120 39880
L54120 39950
L54100 40000
L54080 40020
L54030 40040
L53840 40040
" />
<path d="M54290 39780
L54600 39780
L54430 39970
L54500 39970
L54550 40000
L54580 40020
L54600 40070
L54600 40190
L54580 40230
L54550 40260
L54500 40280
L54360 40280
L54310 40260
L54290 40230
" />
<path d="M54770 39780
L55080 39780
L54910 39970
L54980 39970
L55030 40000
L55050 40020
L55080 40070
L55080 40190
L55050 40230
L55030 40260
L54980 40280
L54840 40280
L54790 40260
L54770 40230
" />
<text x="54410" y="41220"
textLength="1420" font-size="660" lengthAdjust="spacingAndGlyphs"
text-anchor="middle" opacity="0">10k</text>
<path d="M54110 41190
L53820 41190
" />
<path d="M53960 41190
L53960 40690
L53920 40760
L53870 40810
L53820 40830
" />
<path d="M54420 40690
L54460 40690
L54510 40720
L54540 40740
L54560 40790
L54580 40880
L54580 41000
L54560 41100
L54540 41140
L54510 41170
L54460 41190
L54420 41190
L54370 41170
L54350 41140
L54320 41100
L54300 41000
L54300 40880
L54320 40790
L54350 40740
L54370 40720
L54420 40690
" />
<path d="M54800 41190
L54800 40690
" />
<path d="M54850 41000
L54990 41190
" />
<path d="M54990 40860
L54800 41050
" />
</g>
</g>
<g style="fill:#008484; fill-opacity:0.0; 
stroke:#008484; stroke-width:60; stroke-opacity:1; 
stroke-linecap:round; stroke-linejoin:round;">
</g>
<g style="fill:#008400; fill-opacity:0.0; 
stroke:#008400; stroke-width:60; stroke-opacity:1; 
stroke-linecap:round; stroke-linejoin:round;">
<path d="M59000 43000
L60000 43000
" />
<path d="M53000 36500
L54000 36500
" />
<path d="M53000 39000
L56000 39000
" />
<path d="M56000 39000
L56000 40000
" />
<path d="M53000 31500
L53000 32500
" />
<path d="M59000 31500
L59000 32500
" />
<path d="M53000 32500
L56000 32500
" />
<path d="M56000 32500
L56000 33500
" />
<path d="M52000 36500
L53000 36500
" />
<path d="M58000 36500
L59000 36500
" />
<path d="M59000 35500
L59000 36500
" />
<path d="M59000 36500
L60000 36500
" />
<path d="M53000 35500
L53000 36500
" />
<path d="M59000 42000
L59000 43000
" />
<path d="M58000 43000
L59000 43000
" />
<path d="M53000 43000
L54000 43000
" />
<path d="M53000 42000
L53000 43000
" />
<path d="M52000 43000
L53000 43000
" />
</g>
<g style="fill:#848400; fill-opacity:0.0; 
stroke:#848400; stroke-width:60; stroke-opacity:1; 
stroke-linecap:round; stroke-linejoin:round;">
<text x="52400" y="31750"
textLength="1320" font-size="660" lengthAdjust="spacingAndGlyphs"
text-anchor="end" opacity="0">VLV</text>
<path d="M51150 31220
L51320 31720
L51480 31220
" />
<path d="M51890 31720
L51650 31720
L51650 31220
" />
<path d="M51980 31220
L52150 31720
L52320 31220
" />
</g>
<g style="fill:#848400; fill-opacity:0.0; 
stroke:#848400; stroke-width:100; stroke-opacity:1; 
stroke-linecap:round; stroke-linejoin:round;">
<path style="fill:#848400; fill-opacity:0.0; 
stroke:#848400; stroke-width:100; stroke-opacity:1; 
stroke-linecap:round; stroke-linejoin:round;fill:none"
d="M 53000,31500
52750,31250
52500,31250
52500,31750
52750,31750
Z" /> 
</g>
<g style="fill:#848400; fill-opacity:0.0; 
stroke:#848400; stroke-width:60; stroke-opacity:1; 
stroke-linecap:round; stroke-linejoin:round;">
<text x="59600" y="31750"
textLength="1440" font-size="660" lengthAdjust="spacingAndGlyphs"
text-anchor="start" opacity="0">VHV</text>
<path d="M59670 31220
L59840 31720
L60010 31220
" />
<path d="M60170 31720
L60170 31220
" />
<path d="M60170 31460
L60460 31460
" />
<path d="M60460 31720
L60460 31220
" />
<path d="M60630 31220
L60790 31720
L60960 31220
" />
</g>
<g style="fill:#848400; fill-opacity:0.0; 
stroke:#848400; stroke-width:100; stroke-opacity:1; 
stroke-linecap:round; stroke-linejoin:round;">
<path style="fill:#848400; fill-opacity:0.0; 
stroke:#848400; stroke-width:100; stroke-opacity:1; 
stroke-linecap:round; stroke-linejoin:round;fill:none"
d="M 59000,31500
59250,31750
59500,31750
59500,31250
59250,31250
Z" /> 
</g>
<g style="fill:#848400; fill-opacity:0.0; 
stroke:#848400; stroke-width:60; stroke-opacity:1; 
stroke-linecap:round; stroke-linejoin:round;">
<text x="51400" y="36750"
textLength="1370" font-size="660" lengthAdjust="spacingAndGlyphs"
text-anchor="end" opacity="0">LV1</text>
<path d="M50410 36720
L50170 36720
L50170 36220
" />
<path d="M50510 36220
L50670 36720
L50840 36220
" />
<path d="M51270 36720
L50980 36720
" />
<path d="M51130 36720
L51130 36220
L51080 36290
L51030 36340
L50980 36360
" />
</g>
<g style="fill:#848400; fill-opacity:0.0; 
stroke:#848400; stroke-width:100; stroke-opacity:1; 
stroke-linecap:round; stroke-linejoin:round;">
<path style="fill:#848400; fill-opacity:0.0; 
stroke:#848400; stroke-width:100; stroke-opacity:1; 
stroke-linecap:round; stroke-linejoin:round;fill:none"
d="M 52000,36500
51750,36250
51500,36250
51500,36750
51750,36750
Z" /> 
</g>
<g style="fill:#848400; fill-opacity:0.0; 
stroke:#848400; stroke-width:60; stroke-opacity:1; 
stroke-linecap:round; stroke-linejoin:round;">
<text x="51400" y="43250"
textLength="1370" font-size="660" lengthAdjust="spacingAndGlyphs"
text-anchor="end" opacity="0">LV2</text>
<path d="M50410 43220
L50170 43220
L50170 42720
" />
<path d="M50510 42720
L50670 43220
L50840 42720
" />
<path d="M50980 42770
L51010 42750
L51060 42720
L51170 42720
L51220 42750
L51250 42770
L51270 42820
L51270 42860
L51250 42940
L50960 43220
L51270 43220
" />
</g>
<g style="fill:#848400; fill-opacity:0.0; 
stroke:#848400; stroke-width:100; stroke-opacity:1; 
stroke-linecap:round; stroke-linejoin:round;">
<path style="fill:#848400; fill-opacity:0.0; 
stroke:#848400; stroke-width:100; stroke-opacity:1; 
stroke-linecap:round; stroke-linejoin:round;fill:none"
d="M 52000,43000
51750,42750
51500,42750
51500,43250
51750,43250
Z" /> 
</g>
<g style="fill:#848400; fill-opacity:0.0; 
stroke:#848400; stroke-width:60; stroke-opacity:1; 
stroke-linecap:round; stroke-linejoin:round;">
<text x="60600" y="36750"
textLength="1490" font-size="660" lengthAdjust="spacingAndGlyphs"
text-anchor="start" opacity="0">HV1</text>
<path d="M60740 36720
L60740 36220
" />
<path d="M60740 36460
L61030 36460
" />
<path d="M61030 36720
L61030 36220
" />
<path d="M61200 36220
L61360 36720
L61530 36220
" />
<path d="M61960 36720
L61670 36720
" />
<path d="M61820 36720
L61820 36220
L61770 36290
L61720 36340
L61670 36360
" />
</g>
<g style="fill:#848400; fill-opacity:0.0; 
stroke:#848400; stroke-width:100; stroke-opacity:1; 
stroke-linecap:round; stroke-linejoin:round;">
<path style="fill:#848400; fill-opacity:0.0; 
stroke:#848400; stroke-width:100; stroke-opacity:1; 
stroke-linecap:round; stroke-linejoin:round;fill:none"
d="M 60000,36500
60250,36750
60500,36750
60500,36250
60250,36250
Z" /> 
</g>
<g style="fill:#848400; fill-opacity:0.0; 
stroke:#848400; stroke-width:60; stroke-opacity:1; 
stroke-linecap:round; stroke-linejoin:round;">
<text x="60600" y="43250"
textLength="1490" font-size="660" lengthAdjust="spacingAndGlyphs"
text-anchor="start" opacity="0">HV2</text>
<path d="M60740 43220
L60740 42720
" />
<path d="M60740 42960
L61030 42960
" />
<path d="M61030 43220
L61030 42720
" />
<path d="M61200 42720
L61360 43220
L61530 42720
" />
<path d="M61670 42770
L61700 42750
L61740 42720
L61860 42720
L61910 42750
L61930 42770
L61960 42820
L61960 42860
L61930 42940
L61650 43220
L61960 43220
" />
</g>
<g style="fill:#848400; fill-opacity:0.0; 
stroke:#848400; stroke-width:100; stroke-opacity:1; 
stroke-linecap:round; stroke-linejoin:round;">
<path style="fill:#848400; fill-opacity:0.0; 
stroke:#848400; stroke-width:100; stroke-opacity:1; 
stroke-linecap:round; stroke-linejoin:round;fill:none"
d="M 60000,43000
60250,43250
60500,43250
60500,42750
60250,42750
Z" /> 
</g>
<g style="fill:#848400; fill-opacity:0.0; 
stroke:#848400; stroke-width:60; stroke-opacity:1; 
stroke-linecap:round; stroke-linejoin:round;">
</g>
<g style="fill:#000000; fill-opacity:0.0; 
stroke:#000000; stroke-width:60; stroke-opacity:1; 
stroke-linecap:round; stroke-linejoin:round;">
<text x="53000" y="32400"
textLength="890" font-size="660" lengthAdjust="spacingAndGlyphs"
text-anchor="end" opacity="0">LV</text>
<path d="M52490 32370
L52250 32370
L52250 31870
" />
<path d="M52580 31870
L52750 32370
L52920 31870
" />
<text x="53000" y="38900"
textLength="890" font-size="660" lengthAdjust="spacingAndGlyphs"
text-anchor="end" opacity="0">LV</text>
<path d="M52490 38870
L52250 38870
L52250 38370
" />
<path d="M52580 38370
L52750 38870
L52920 38370
" />
<text x="59000" y="32400"
textLength="1010" font-size="660" lengthAdjust="spacingAndGlyphs"
text-anchor="start" opacity="0">HV</text>
<path d="M59140 32370
L59140 31870
" />
<path d="M59140 32110
L59430 32110
" />
<path d="M59430 32370
L59430 31870
" />
<path d="M59600 31870
L59760 32370
L59930 31870
" />
<text x="59000" y="38900"
textLength="1010" font-size="660" lengthAdjust="spacingAndGlyphs"
text-anchor="start" opacity="0">HV</text>
<path d="M59140 38870
L59140 38370
" />
<path d="M59140 38610
L59430 38610
" />
<path d="M59430 38870
L59430 38370
" />
<path d="M59600 38370
L59760 38870
L59930 38370
" />
</g>
<g style="fill:#000000; fill-opacity:0.0; 
stroke:#000000; stroke-width:0; stroke-opacity:1; 
stroke-linecap:round; stroke-linejoin:round;">
</g>
<g style="fill:#008400; fill-opacity:0.0; 
stroke:#008400; stroke-width:0; stroke-opacity:1; 
stroke-linecap:round; stroke-linejoin:round;">
</g>
<g style="fill:#008400; fill-opacity:1.0; 
stroke:#008400; stroke-width:100; stroke-opacity:1; 
stroke-linecap:round; stroke-linejoin:round;">
<circle cx="53000" cy="32500" r="200" /> 
</g>
<g style="fill:#008400; fill-opacity:1.0; 
stroke:#008400; stroke-width:0; stroke-opacity:1; 
stroke-linecap:round; stroke-linejoin:round;">
</g>
<g style="fill:#008400; fill-opacity:1.0; 
stroke:#008400; stroke-width:100; stroke-opacity:1; 
stroke-linecap:round; stroke-linejoin:round;">
<circle cx="53000" cy="43000" r="200" /> 
</g>
<g style="fill:#008400; fill-opacity:1.0; 
stroke:#008400; stroke-width:0; stroke-opacity:1; 
stroke-linecap:round; stroke-linejoin:round;">
</g>
<g style="fill:#008400; fill-opacity:1.0; 
stroke:#008400; stroke-width:100; stroke-opacity:1; 
stroke-linecap:round; stroke-linejoin:round;">
<circle cx="59000" cy="36500" r="200" /> 
</g>
<g style="fill:#008400; fill-opacity:1.0; 
stroke:#008400; stroke-width:0; stroke-opacity:1; 
stroke-linecap:round; stroke-linejoin:round;">
</g>
<g style="fill:#008400; fill-opacity:1.0; 
stroke:#008400; stroke-width:100; stroke-opacity:1; 
stroke-linecap:round; stroke-linejoin:round;">
<circle cx="53000" cy="36500" r="200" /> 
</g>
<g style="fill:#008400; fill-opacity:1.0; 
stroke:#008400; stroke-width:0; stroke-opacity:1; 
stroke-linecap:round; stroke-linejoin:round;">
</g>
<g style="fill:#008400; fill-opacity:1.0; 
stroke:#008400; stroke-width:100; stroke-opacity:1; 
stroke-linecap:round; stroke-linejoin:round;">
<circle cx="59000" cy="43000" r="200" /> 
</g> 
</svg>
